Aleo-Bold.ufo
<glyph name="exclam" format="1">
  <advance width="186"/>
  <unicode hex="0021"/>
  <note>
    exclam
  </note>
  <outline>
    <contour>
      <point x="153" y="723" type="line"/>
      <point x="36" y="723" type="line"/>
      <point x="36" y="437" type="line" smooth="yes"/>
      <point x="36" y="407"/>
      <point x="38" y="377"/>
      <point x="41" y="348" type="curve" smooth="yes"/>
      <point x="44" y="319"/>
      <point x="48" y="288"/>
      <point x="53" y="255" type="curve"/>
      <point x="136" y="255" type="line"/>
      <point x="141" y="288"/>
      <point x="145" y="319"/>
      <point x="148" y="348" type="curve" smooth="yes"/>
      <point x="151" y="377"/>
      <point x="153" y="407"/>
      <point x="153" y="437" type="curve" smooth="yes"/>
    </contour>
    <contour>
      <point x="18" y="57"/>
      <point x="19" y="47"/>
      <point x="23" y="38" type="curve" smooth="yes"/>
      <point x="27" y="29"/>
      <point x="32" y="22"/>
      <point x="39" y="15" type="curve" smooth="yes"/>
      <point x="46" y="8"/>
      <point x="55" y="3"/>
      <point x="64" y="-1" type="curve" smooth="yes"/>
      <point x="73" y="-5"/>
      <point x="83" y="-7"/>
      <point x="94" y="-7" type="curve" smooth="yes"/>
      <point x="104" y="-7"/>
      <point x="114" y="-5"/>
      <point x="123" y="-1" type="curve" smooth="yes"/>
      <point x="132" y="3"/>
      <point x="140" y="8"/>
      <point x="147" y="15" type="curve" smooth="yes"/>
      <point x="154" y="22"/>
      <point x="159" y="29"/>
      <point x="163" y="38" type="curve" smooth="yes"/>
      <point x="167" y="47"/>
      <point x="169" y="57"/>
      <point x="169" y="68" type="curve" smooth="yes"/>
      <point x="169" y="78"/>
      <point x="167" y="89"/>
      <point x="163" y="98" type="curve" smooth="yes"/>
      <point x="159" y="107"/>
      <point x="154" y="115"/>
      <point x="147" y="122" type="curve" smooth="yes"/>
      <point x="140" y="129"/>
      <point x="132" y="134"/>
      <point x="123" y="138" type="curve" smooth="yes"/>
      <point x="114" y="142"/>
      <point x="104" y="144"/>
      <point x="94" y="144" type="curve" smooth="yes"/>
      <point x="83" y="144"/>
      <point x="73" y="142"/>
      <point x="64" y="138" type="curve" smooth="yes"/>
      <point x="55" y="134"/>
      <point x="46" y="129"/>
      <point x="39" y="122" type="curve" smooth="yes"/>
      <point x="32" y="115"/>
      <point x="27" y="107"/>
      <point x="23" y="98" type="curve" smooth="yes"/>
      <point x="19" y="89"/>
      <point x="18" y="78"/>
      <point x="18" y="68" type="curve" smooth="yes"/>
    </contour>
  </outline>
</glyph>
<glyph name="quotedbl" format="1">
  <advance width="338"/>
  <unicode hex="0022"/>
  <note>
    quotedbl
  </note>
  <outline>
    <contour>
      <point x="131" y="723" type="line"/>
      <point x="24" y="723" type="line"/>
      <point x="24" y="579" type="line"/>
      <point x="34" y="501" type="line" smooth="yes"/>
      <point x="36" y="486"/>
      <point x="41" y="475"/>
      <point x="48" y="467" type="curve" smooth="yes"/>
      <point x="55" y="459"/>
      <point x="64" y="456"/>
      <point x="76" y="456" type="curve" smooth="yes"/>
      <point x="90" y="456"/>
      <point x="101" y="459"/>
      <point x="107" y="467" type="curve" smooth="yes"/>
      <point x="113" y="475"/>
      <point x="118" y="486"/>
      <point x="120" y="501" type="curve" smooth="yes"/>
      <point x="131" y="579" type="line"/>
    </contour>
    <contour>
      <point x="315" y="723" type="line"/>
      <point x="208" y="723" type="line"/>
      <point x="208" y="579" type="line"/>
      <point x="218" y="501" type="line" smooth="yes"/>
      <point x="220" y="486"/>
      <point x="225" y="475"/>
      <point x="232" y="467" type="curve" smooth="yes"/>
      <point x="239" y="459"/>
      <point x="248" y="456"/>
      <point x="260" y="456" type="curve" smooth="yes"/>
      <point x="274" y="456"/>
      <point x="285" y="459"/>
      <point x="291" y="467" type="curve" smooth="yes"/>
      <point x="297" y="475"/>
      <point x="302" y="486"/>
      <point x="304" y="501" type="curve" smooth="yes"/>
      <point x="315" y="579" type="line"/>
    </contour>
  </outline>
</glyph>
<glyph name="dollar" format="1">
  <advance width="535"/>
  <unicode hex="0024"/>
  <note>
    dollar
  </note>
  <outline>
    <contour>
      <point x="201" y="-112" type="line"/>
      <point x="246" y="-112" type="line" smooth="yes"/>
      <point x="256" y="-112"/>
      <point x="264" y="-108"/>
      <point x="270" y="-102" type="curve" smooth="yes"/>
      <point x="276" y="-96"/>
      <point x="279" y="-88"/>
      <point x="280" y="-80" type="curve"/>
      <point x="286" y="-7" type="line"/>
      <point x="323" y="-4"/>
      <point x="357" y="3"/>
      <point x="386" y="16" type="curve" smooth="yes"/>
      <point x="415" y="29"/>
      <point x="439" y="46"/>
      <point x="459" y="67" type="curve" smooth="yes"/>
      <point x="479" y="88"/>
      <point x="494" y="112"/>
      <point x="504" y="139" type="curve" smooth="yes"/>
      <point x="514" y="166"/>
      <point x="520" y="195"/>
      <point x="520" y="226" type="curve" smooth="yes"/>
      <point x="520" y="257"/>
      <point x="514" y="284"/>
      <point x="502" y="305" type="curve" smooth="yes"/>
      <point x="490" y="326"/>
      <point x="475" y="343"/>
      <point x="456" y="357" type="curve" smooth="yes"/>
      <point x="437" y="371"/>
      <point x="417" y="382"/>
      <point x="393" y="391" type="curve" smooth="yes"/>
      <point x="369" y="400"/>
      <point x="346" y="409"/>
      <point x="322" y="416" type="curve"/>
      <point x="339" y="622" type="line"/>
      <point x="352" y="619"/>
      <point x="363" y="616"/>
      <point x="374" y="611" type="curve" smooth="yes"/>
      <point x="385" y="606"/>
      <point x="395" y="602"/>
      <point x="404" y="597" type="curve"/>
      <point x="413" y="593"/>
      <point x="420" y="589"/>
      <point x="427" y="586" type="curve" smooth="yes"/>
      <point x="434" y="583"/>
      <point x="440" y="581"/>
      <point x="445" y="581" type="curve" smooth="yes"/>
      <point x="452" y="581"/>
      <point x="457" y="583"/>
      <point x="462" y="586" type="curve" smooth="yes"/>
      <point x="467" y="589"/>
      <point x="471" y="594"/>
      <point x="476" y="601" type="curve" smooth="yes"/>
      <point x="506" y="646" type="line"/>
      <point x="487" y="664"/>
      <point x="465" y="681"/>
      <point x="439" y="695" type="curve" smooth="yes"/>
      <point x="413" y="709"/>
      <point x="383" y="719"/>
      <point x="348" y="725" type="curve"/>
      <point x="356" y="824" type="line"/>
      <point x="311" y="824" type="line" smooth="yes"/>
      <point x="301" y="824"/>
      <point x="293" y="820"/>
      <point x="287" y="814" type="curve" smooth="yes"/>
      <point x="281" y="808"/>
      <point x="278" y="800"/>
      <point x="277" y="792" type="curve"/>
      <point x="272" y="730" type="line"/>
      <point x="235" y="728"/>
      <point x="202" y="720"/>
      <point x="174" y="708" type="curve" smooth="yes"/>
      <point x="146" y="696"/>
      <point x="121" y="681"/>
      <point x="102" y="662" type="curve" smooth="yes"/>
      <point x="83" y="643"/>
      <point x="68" y="621"/>
      <point x="58" y="597" type="curve" smooth="yes"/>
      <point x="48" y="573"/>
      <point x="43" y="547"/>
      <point x="43" y="522" type="curve" smooth="yes"/>
      <point x="43" y="488"/>
      <point x="49" y="461"/>
      <point x="60" y="438" type="curve" smooth="yes"/>
      <point x="71" y="415"/>
      <point x="87" y="396"/>
      <point x="105" y="381" type="curve" smooth="yes"/>
      <point x="123" y="366"/>
      <point x="144" y="355"/>
      <point x="167" y="346" type="curve" smooth="yes"/>
      <point x="190" y="337"/>
      <point x="214" y="329"/>
      <point x="238" y="322" type="curve"/>
      <point x="218" y="98" type="line"/>
      <point x="199" y="101"/>
      <point x="184" y="107"/>
      <point x="170" y="114" type="curve" smooth="yes"/>
      <point x="156" y="121"/>
      <point x="145" y="127"/>
      <point x="134" y="134" type="curve" smooth="yes"/>
      <point x="123" y="141"/>
      <point x="113" y="148"/>
      <point x="105" y="153" type="curve" smooth="yes"/>
      <point x="97" y="158"/>
      <point x="89" y="160"/>
      <point x="82" y="160" type="curve" smooth="yes"/>
      <point x="76" y="160"/>
      <point x="70" y="159"/>
      <point x="64" y="156" type="curve" smooth="yes"/>
      <point x="58" y="153"/>
      <point x="54" y="148"/>
      <point x="51" y="143" type="curve"/>
      <point x="13" y="87" type="line"/>
      <point x="37" y="63"/>
      <point x="66" y="43"/>
      <point x="100" y="27" type="curve" smooth="yes"/>
      <point x="134" y="11"/>
      <point x="171" y="1"/>
      <point x="210" y="-4" type="curve"/>
    </contour>
    <contour>
      <point x="402" y="176"/>
      <point x="393" y="151"/>
      <point x="375" y="132" type="curve" smooth="yes"/>
      <point x="357" y="113"/>
      <point x="330" y="101"/>
      <point x="295" y="96" type="curve"/>
      <point x="312" y="300" type="line"/>
      <point x="325" y="296"/>
      <point x="337" y="290"/>
      <point x="348" y="285" type="curve" smooth="yes"/>
      <point x="359" y="280"/>
      <point x="369" y="273"/>
      <point x="377" y="266" type="curve" smooth="yes"/>
      <point x="385" y="259"/>
      <point x="391" y="251"/>
      <point x="396" y="241" type="curve"/>
      <point x="400" y="231"/>
      <point x="402" y="220"/>
      <point x="402" y="207" type="curve" smooth="yes"/>
    </contour>
    <contour>
      <point x="160" y="545"/>
      <point x="161" y="556"/>
      <point x="165" y="566" type="curve" smooth="yes"/>
      <point x="169" y="576"/>
      <point x="176" y="584"/>
      <point x="184" y="592" type="curve" smooth="yes"/>
      <point x="192" y="600"/>
      <point x="203" y="607"/>
      <point x="216" y="613" type="curve"/>
      <point x="229" y="618"/>
      <point x="244" y="622"/>
      <point x="262" y="624" type="curve"/>
      <point x="247" y="439" type="line"/>
      <point x="234" y="444"/>
      <point x="223" y="449"/>
      <point x="212" y="455" type="curve" smooth="yes"/>
      <point x="201" y="461"/>
      <point x="192" y="467"/>
      <point x="184" y="475" type="curve" smooth="yes"/>
      <point x="176" y="483"/>
      <point x="170" y="491"/>
      <point x="166" y="501" type="curve" smooth="yes"/>
      <point x="162" y="511"/>
      <point x="160" y="521"/>
      <point x="160" y="534" type="curve" smooth="yes"/>
    </contour>
  </outline>
</glyph>
<glyph name="quotesingle" format="1">
  <advance width="154"/>
  <unicode hex="0027"/>
  <note>
    quotesingle
  </note>
  <outline>
    <contour>
      <point x="131" y="723" type="line"/>
      <point x="24" y="723" type="line"/>
      <point x="24" y="579" type="line"/>
      <point x="34" y="501" type="line" smooth="yes"/>
      <point x="36" y="486"/>
      <point x="41" y="475"/>
      <point x="48" y="467" type="curve" smooth="yes"/>
      <point x="55" y="459"/>
      <point x="64" y="456"/>
      <point x="76" y="456" type="curve" smooth="yes"/>
      <point x="90" y="456"/>
      <point x="101" y="459"/>
      <point x="107" y="467" type="curve" smooth="yes"/>
      <point x="113" y="475"/>
      <point x="118" y="486"/>
      <point x="120" y="501" type="curve" smooth="yes"/>
      <point x="131" y="579" type="line"/>
    </contour>
  </outline>
</glyph>
<glyph name="parenleft" format="1">
  <advance width="242"/>
  <unicode hex="0028"/>
  <note>
    parenleft
  </note>
  <outline>
    <contour>
      <point x="125" y="383"/>
      <point x="133" y="450"/>
      <point x="150" y="516" type="curve" smooth="yes"/>
      <point x="167" y="582"/>
      <point x="190" y="646"/>
      <point x="221" y="704" type="curve"/>
      <point x="225" y="713"/>
      <point x="228" y="720"/>
      <point x="228" y="726" type="curve" smooth="yes"/>
      <point x="228" y="732"/>
      <point x="225" y="738"/>
      <point x="222" y="742" type="curve" smooth="yes"/>
      <point x="219" y="746"/>
      <point x="215" y="749"/>
      <point x="210" y="752" type="curve" smooth="yes"/>
      <point x="156" y="785" type="line"/>
      <point x="131" y="747"/>
      <point x="109" y="709"/>
      <point x="92" y="671" type="curve" smooth="yes"/>
      <point x="75" y="633"/>
      <point x="61" y="594"/>
      <point x="50" y="555" type="curve" smooth="yes"/>
      <point x="39" y="516"/>
      <point x="31" y="476"/>
      <point x="26" y="436" type="curve" smooth="yes"/>
      <point x="21" y="396"/>
      <point x="18" y="356"/>
      <point x="18" y="314" type="curve" smooth="yes"/>
      <point x="18" y="272"/>
      <point x="21" y="231"/>
      <point x="26" y="191" type="curve" smooth="yes"/>
      <point x="31" y="151"/>
      <point x="39" y="111"/>
      <point x="50" y="72" type="curve" smooth="yes"/>
      <point x="61" y="33"/>
      <point x="75" y="-6"/>
      <point x="92" y="-44" type="curve" smooth="yes"/>
      <point x="109" y="-82"/>
      <point x="131" y="-120"/>
      <point x="156" y="-158" type="curve"/>
      <point x="210" y="-124" type="line" smooth="yes"/>
      <point x="215" y="-121"/>
      <point x="219" y="-118"/>
      <point x="222" y="-114" type="curve" smooth="yes"/>
      <point x="225" y="-110"/>
      <point x="228" y="-105"/>
      <point x="228" y="-98" type="curve" smooth="yes"/>
      <point x="228" y="-95"/>
      <point x="227" y="-92"/>
      <point x="226" y="-88" type="curve" smooth="yes"/>
      <point x="225" y="-84"/>
      <point x="224" y="-80"/>
      <point x="222" y="-76" type="curve" smooth="yes"/>
      <point x="191" y="-18"/>
      <point x="167" y="45"/>
      <point x="150" y="111" type="curve" smooth="yes"/>
      <point x="133" y="177"/>
      <point x="125" y="245"/>
      <point x="125" y="314" type="curve" smooth="yes"/>
    </contour>
  </outline>
</glyph>
<glyph name="comma" format="1">
  <advance width="198"/>
  <unicode hex="002C"/>
  <note>
    comma
  </note>
  <outline>
    <contour>
      <point x="125" y="-94"/>
      <point x="173" y="-10"/>
      <point x="173" y="59" type="curve" smooth="yes"/>
      <point x="173" y="103"/>
      <point x="149" y="143"/>
      <point x="98" y="143" type="curve" smooth="yes"/>
      <point x="55" y="143"/>
      <point x="26" y="116"/>
      <point x="26" y="76" type="curve" smooth="yes"/>
      <point x="26" y="48"/>
      <point x="38" y="21"/>
      <point x="68" y="7" type="curve" smooth="yes"/>
      <point x="77" y="3"/>
      <point x="86" y="2"/>
      <point x="96" y="2" type="curve"/>
      <point x="90" y="-28"/>
      <point x="66" y="-62"/>
      <point x="42" y="-86" type="curve" smooth="yes"/>
      <point x="40" y="-88"/>
      <point x="32" y="-96"/>
      <point x="32" y="-104" type="curve" smooth="yes"/>
      <point x="32" y="-111"/>
      <point x="35" y="-117"/>
      <point x="41" y="-122" type="curve" smooth="yes"/>
      <point x="63" y="-142" type="line"/>
    </contour>
  </outline>
</glyph>
<glyph name="period" format="1">
  <advance width="203"/>
  <unicode hex="002E"/>
  <note>
    period
  </note>
  <outline>
    <contour>
      <point x="26" y="57"/>
      <point x="28" y="47"/>
      <point x="32" y="38" type="curve" smooth="yes"/>
      <point x="36" y="29"/>
      <point x="41" y="22"/>
      <point x="48" y="15" type="curve" smooth="yes"/>
      <point x="55" y="8"/>
      <point x="64" y="3"/>
      <point x="73" y="-1" type="curve" smooth="yes"/>
      <point x="82" y="-5"/>
      <point x="92" y="-7"/>
      <point x="103" y="-7" type="curve" smooth="yes"/>
      <point x="113" y="-7"/>
      <point x="123" y="-5"/>
      <point x="132" y="-1" type="curve" smooth="yes"/>
      <point x="141" y="3"/>
      <point x="149" y="8"/>
      <point x="156" y="15" type="curve" smooth="yes"/>
      <point x="163" y="22"/>
      <point x="168" y="29"/>
      <point x="172" y="38" type="curve" smooth="yes"/>
      <point x="176" y="47"/>
      <point x="178" y="57"/>
      <point x="178" y="68" type="curve" smooth="yes"/>
      <point x="178" y="78"/>
      <point x="176" y="89"/>
      <point x="172" y="98" type="curve" smooth="yes"/>
      <point x="168" y="107"/>
      <point x="163" y="115"/>
      <point x="156" y="122" type="curve" smooth="yes"/>
      <point x="149" y="129"/>
      <point x="141" y="134"/>
      <point x="132" y="138" type="curve" smooth="yes"/>
      <point x="123" y="142"/>
      <point x="112" y="144"/>
      <point x="102" y="144" type="curve" smooth="yes"/>
      <point x="91" y="144"/>
      <point x="81" y="142"/>
      <point x="72" y="138" type="curve" smooth="yes"/>
      <point x="63" y="134"/>
      <point x="55" y="129"/>
      <point x="48" y="122" type="curve" smooth="yes"/>
      <point x="41" y="115"/>
      <point x="36" y="107"/>
      <point x="32" y="98" type="curve" smooth="yes"/>
      <point x="28" y="89"/>
      <point x="26" y="78"/>
      <point x="26" y="68" type="curve" smooth="yes"/>
    </contour>
  </outline>
</glyph>
<glyph name="slash" format="1">
  <advance width="436"/>
  <unicode hex="002F"/>
  <note>
    slash
  </note>
  <outline>
    <contour>
      <point x="422" y="743" type="line"/>
      <point x="370" y="743" type="line" smooth="yes"/>
      <point x="355" y="743"/>
      <point x="342" y="740"/>
      <point x="331" y="732" type="curve" smooth="yes"/>
      <point x="320" y="724"/>
      <point x="312" y="714"/>
      <point x="306" y="700" type="curve" smooth="yes"/>
      <point x="14" y="-48" type="line"/>
      <point x="66" y="-48" type="line" smooth="yes"/>
      <point x="72" y="-48"/>
      <point x="79" y="-46"/>
      <point x="86" y="-44" type="curve" smooth="yes"/>
      <point x="93" y="-42"/>
      <point x="99" y="-40"/>
      <point x="105" y="-36" type="curve" smooth="yes"/>
      <point x="111" y="-32"/>
      <point x="116" y="-28"/>
      <point x="121" y="-22" type="curve" smooth="yes"/>
      <point x="126" y="-16"/>
      <point x="129" y="-10"/>
      <point x="132" y="-2" type="curve" smooth="yes"/>
    </contour>
  </outline>
</glyph>
<glyph name="one" format="1">
  <advance width="483"/>
  <unicode hex="0031"/>
  <note>
    one
  </note>
  <outline>
    <contour>
      <point x="441" y="84"/>
      <point x="404" y="88"/>
      <point x="337" y="93" type="curve"/>
      <point x="337" y="724" type="line"/>
      <point x="235" y="724" type="line"/>
      <point x="15" y="536" type="line"/>
      <point x="54" y="483" type="line" smooth="yes"/>
      <point x="57" y="479"/>
      <point x="60" y="476"/>
      <point x="66" y="473" type="curve"/>
      <point x="71" y="470"/>
      <point x="77" y="469"/>
      <point x="84" y="469" type="curve" smooth="yes"/>
      <point x="88" y="469"/>
      <point x="94" y="470"/>
      <point x="98" y="471" type="curve" smooth="yes"/>
      <point x="102" y="472"/>
      <point x="107" y="475"/>
      <point x="111" y="479" type="curve"/>
      <point x="215" y="566" type="line"/>
      <point x="214" y="548"/>
      <point x="213" y="530"/>
      <point x="213" y="514" type="curve" smooth="yes"/>
      <point x="213" y="94" type="line"/>
      <point x="136" y="88"/>
      <point x="94" y="84"/>
      <point x="87" y="83" type="curve"/>
      <point x="74" y="80"/>
      <point x="67" y="72"/>
      <point x="67" y="58" type="curve" smooth="yes"/>
      <point x="67" y="0" type="line"/>
      <point x="263" y="0" type="line"/>
      <point x="271" y="0" type="line"/>
      <point x="467" y="0" type="line"/>
      <point x="467" y="58" type="line" smooth="yes"/>
      <point x="467" y="72"/>
      <point x="460" y="80"/>
      <point x="447" y="83" type="curve"/>
    </contour>
  </outline>
</glyph>
<glyph name="four" format="1">
  <advance width="584"/>
  <unicode hex="0034"/>
  <note>
    four
  </note>
  <outline>
    <contour>
      <point x="476" y="272" type="line"/>
      <point x="476" y="724" type="line"/>
      <point x="359" y="724" type="line"/>
      <point x="16" y="266" type="line"/>
      <point x="29" y="204" type="line"/>
      <point x="31" y="196"/>
      <point x="35" y="189"/>
      <point x="41" y="184" type="curve" smooth="yes"/>
      <point x="47" y="179"/>
      <point x="55" y="176"/>
      <point x="63" y="176" type="curve" smooth="yes"/>
      <point x="368" y="176" type="line"/>
      <point x="368" y="0" type="line"/>
      <point x="476" y="0" type="line"/>
      <point x="476" y="176" type="line"/>
      <point x="542" y="176" type="line" smooth="yes"/>
      <point x="550" y="176"/>
      <point x="556" y="179"/>
      <point x="560" y="184" type="curve" smooth="yes"/>
      <point x="564" y="189"/>
      <point x="567" y="194"/>
      <point x="567" y="201" type="curve" smooth="yes"/>
      <point x="567" y="272" type="line"/>
    </contour>
    <contour>
      <point x="368" y="272" type="line"/>
      <point x="148" y="272" type="line"/>
      <point x="372" y="582" type="line"/>
      <point x="370" y="569"/>
      <point x="370" y="556"/>
      <point x="369" y="544" type="curve" smooth="yes"/>
      <point x="368" y="532"/>
      <point x="368" y="520"/>
      <point x="368" y="509" type="curve" smooth="yes"/>
    </contour>
  </outline>
</glyph>
<glyph name="six" format="1">
  <advance width="541"/>
  <unicode hex="0036"/>
  <note>
    six
  </note>
  <outline>
    <contour>
      <point x="291" y="452"/>
      <point x="273" y="450"/>
      <point x="257" y="446" type="curve" smooth="yes"/>
      <point x="241" y="442"/>
      <point x="226" y="436"/>
      <point x="212" y="429" type="curve"/>
      <point x="224" y="444" type="line" smooth="yes"/>
      <point x="228" y="449"/>
      <point x="233" y="454"/>
      <point x="238" y="460" type="curve" smooth="yes"/>
      <point x="452" y="723" type="line"/>
      <point x="342" y="723" type="line" smooth="yes"/>
      <point x="327" y="723"/>
      <point x="314" y="720"/>
      <point x="302" y="714" type="curve" smooth="yes"/>
      <point x="290" y="708"/>
      <point x="282" y="702"/>
      <point x="276" y="694" type="curve" smooth="yes"/>
      <point x="104" y="462" type="line" smooth="yes"/>
      <point x="75" y="423"/>
      <point x="53" y="387"/>
      <point x="39" y="351" type="curve" smooth="yes"/>
      <point x="25" y="315"/>
      <point x="18" y="280"/>
      <point x="18" y="246" type="curve" smooth="yes"/>
      <point x="18" y="208"/>
      <point x="24" y="173"/>
      <point x="36" y="142" type="curve" smooth="yes"/>
      <point x="48" y="111"/>
      <point x="64" y="84"/>
      <point x="86" y="62" type="curve" smooth="yes"/>
      <point x="108" y="40"/>
      <point x="133" y="22"/>
      <point x="164" y="10" type="curve" smooth="yes"/>
      <point x="195" y="-2"/>
      <point x="229" y="-8"/>
      <point x="268" y="-8" type="curve" smooth="yes"/>
      <point x="306" y="-8"/>
      <point x="340" y="-2"/>
      <point x="372" y="11" type="curve" smooth="yes"/>
      <point x="404" y="24"/>
      <point x="431" y="41"/>
      <point x="453" y="63" type="curve" smooth="yes"/>
      <point x="475" y="85"/>
      <point x="493" y="110"/>
      <point x="505" y="140" type="curve" smooth="yes"/>
      <point x="517" y="170"/>
      <point x="524" y="201"/>
      <point x="524" y="235" type="curve" smooth="yes"/>
      <point x="524" y="271"/>
      <point x="518" y="303"/>
      <point x="506" y="330" type="curve" smooth="yes"/>
      <point x="494" y="357"/>
      <point x="478" y="379"/>
      <point x="458" y="397" type="curve" smooth="yes"/>
      <point x="438" y="415"/>
      <point x="416" y="429"/>
      <point x="390" y="438" type="curve" smooth="yes"/>
      <point x="364" y="447"/>
      <point x="337" y="452"/>
      <point x="310" y="452" type="curve" smooth="yes"/>
    </contour>
    <contour>
      <point x="137" y="246"/>
      <point x="140" y="263"/>
      <point x="146" y="279" type="curve" smooth="yes"/>
      <point x="152" y="295"/>
      <point x="161" y="309"/>
      <point x="173" y="321" type="curve" smooth="yes"/>
      <point x="185" y="333"/>
      <point x="198" y="342"/>
      <point x="214" y="349" type="curve" smooth="yes"/>
      <point x="230" y="356"/>
      <point x="247" y="359"/>
      <point x="267" y="359" type="curve" smooth="yes"/>
      <point x="287" y="359"/>
      <point x="305" y="356"/>
      <point x="321" y="350" type="curve" smooth="yes"/>
      <point x="337" y="344"/>
      <point x="351" y="336"/>
      <point x="363" y="324" type="curve" smooth="yes"/>
      <point x="375" y="312"/>
      <point x="384" y="298"/>
      <point x="390" y="282" type="curve" smooth="yes"/>
      <point x="396" y="266"/>
      <point x="400" y="247"/>
      <point x="400" y="226" type="curve" smooth="yes"/>
      <point x="400" y="207"/>
      <point x="397" y="189"/>
      <point x="390" y="173" type="curve" smooth="yes"/>
      <point x="383" y="157"/>
      <point x="374" y="143"/>
      <point x="362" y="131" type="curve" smooth="yes"/>
      <point x="350" y="119"/>
      <point x="337" y="110"/>
      <point x="320" y="103" type="curve" smooth="yes"/>
      <point x="304" y="96"/>
      <point x="285" y="93"/>
      <point x="265" y="93" type="curve" smooth="yes"/>
      <point x="244" y="93"/>
      <point x="226" y="97"/>
      <point x="210" y="103" type="curve" smooth="yes"/>
      <point x="194" y="109"/>
      <point x="181" y="118"/>
      <point x="170" y="130" type="curve" smooth="yes"/>
      <point x="159" y="142"/>
      <point x="151" y="156"/>
      <point x="145" y="172" type="curve" smooth="yes"/>
      <point x="139" y="188"/>
      <point x="137" y="207"/>
      <point x="137" y="227" type="curve" smooth="yes"/>
    </contour>
  </outline>
</glyph>
<glyph name="nine" format="1">
  <advance width="523"/>
  <unicode hex="0039"/>
  <note>
    nine
  </note>
  <outline>
    <contour>
      <point x="240" y="288"/>
      <point x="261" y="291"/>
      <point x="281" y="297" type="curve"/>
      <point x="301" y="302"/>
      <point x="319" y="310"/>
      <point x="336" y="321" type="curve"/>
      <point x="331" y="314"/>
      <point x="327" y="308"/>
      <point x="322" y="301" type="curve" smooth="yes"/>
      <point x="317" y="294"/>
      <point x="312" y="287"/>
      <point x="306" y="280" type="curve" smooth="yes"/>
      <point x="81" y="0" type="line"/>
      <point x="194" y="0" type="line" smooth="yes"/>
      <point x="208" y="0"/>
      <point x="222" y="2"/>
      <point x="233" y="8" type="curve" smooth="yes"/>
      <point x="244" y="14"/>
      <point x="252" y="20"/>
      <point x="258" y="28" type="curve" smooth="yes"/>
      <point x="424" y="264" type="line" smooth="yes"/>
      <point x="436" y="282"/>
      <point x="447" y="299"/>
      <point x="457" y="317" type="curve" smooth="yes"/>
      <point x="467" y="335"/>
      <point x="476" y="353"/>
      <point x="483" y="371" type="curve" smooth="yes"/>
      <point x="490" y="389"/>
      <point x="495" y="409"/>
      <point x="499" y="429" type="curve" smooth="yes"/>
      <point x="503" y="449"/>
      <point x="505" y="471"/>
      <point x="505" y="493" type="curve" smooth="yes"/>
      <point x="505" y="528"/>
      <point x="499" y="560"/>
      <point x="488" y="589" type="curve" smooth="yes"/>
      <point x="477" y="618"/>
      <point x="461" y="643"/>
      <point x="440" y="664" type="curve" smooth="yes"/>
      <point x="419" y="685"/>
      <point x="395" y="702"/>
      <point x="365" y="714" type="curve" smooth="yes"/>
      <point x="335" y="726"/>
      <point x="302" y="731"/>
      <point x="265" y="731" type="curve" smooth="yes"/>
      <point x="228" y="731"/>
      <point x="194" y="724"/>
      <point x="164" y="712" type="curve" smooth="yes"/>
      <point x="134" y="700"/>
      <point x="108" y="683"/>
      <point x="86" y="662" type="curve" smooth="yes"/>
      <point x="64" y="641"/>
      <point x="48" y="616"/>
      <point x="36" y="588" type="curve" smooth="yes"/>
      <point x="24" y="560"/>
      <point x="18" y="528"/>
      <point x="18" y="496" type="curve" smooth="yes"/>
      <point x="18" y="461"/>
      <point x="24" y="432"/>
      <point x="35" y="406" type="curve" smooth="yes"/>
      <point x="46" y="380"/>
      <point x="61" y="359"/>
      <point x="80" y="341" type="curve" smooth="yes"/>
      <point x="99" y="323"/>
      <point x="120" y="311"/>
      <point x="144" y="302" type="curve" smooth="yes"/>
      <point x="168" y="293"/>
      <point x="193" y="288"/>
      <point x="218" y="288" type="curve" smooth="yes"/>
    </contour>
    <contour>
      <point x="386" y="488"/>
      <point x="384" y="471"/>
      <point x="378" y="456" type="curve" smooth="yes"/>
      <point x="372" y="441"/>
      <point x="365" y="429"/>
      <point x="354" y="418" type="curve" smooth="yes"/>
      <point x="343" y="407"/>
      <point x="331" y="398"/>
      <point x="315" y="392" type="curve" smooth="yes"/>
      <point x="299" y="386"/>
      <point x="282" y="382"/>
      <point x="262" y="382" type="curve" smooth="yes"/>
      <point x="224" y="382"/>
      <point x="194" y="393"/>
      <point x="173" y="414" type="curve" smooth="yes"/>
      <point x="152" y="435"/>
      <point x="142" y="466"/>
      <point x="142" y="506" type="curve" smooth="yes"/>
      <point x="142" y="524"/>
      <point x="144" y="541"/>
      <point x="150" y="556" type="curve" smooth="yes"/>
      <point x="156" y="571"/>
      <point x="164" y="584"/>
      <point x="174" y="595" type="curve" smooth="yes"/>
      <point x="184" y="606"/>
      <point x="197" y="615"/>
      <point x="212" y="621" type="curve" smooth="yes"/>
      <point x="227" y="627"/>
      <point x="244" y="630"/>
      <point x="263" y="630" type="curve" smooth="yes"/>
      <point x="281" y="630"/>
      <point x="298" y="628"/>
      <point x="313" y="622" type="curve" smooth="yes"/>
      <point x="328" y="616"/>
      <point x="341" y="608"/>
      <point x="352" y="597" type="curve" smooth="yes"/>
      <point x="363" y="586"/>
      <point x="372" y="574"/>
      <point x="378" y="558" type="curve" smooth="yes"/>
      <point x="384" y="542"/>
      <point x="386" y="525"/>
      <point x="386" y="505" type="curve" smooth="yes"/>
    </contour>
  </outline>
</glyph>
<glyph name="semicolon" format="1">
  <advance width="195"/>
  <unicode hex="003B"/>
  <note>
    semicolon
  </note>
  <outline>
    <contour>
      <point x="26" y="65"/>
      <point x="27" y="55"/>
      <point x="31" y="46" type="curve" smooth="yes"/>
      <point x="35" y="37"/>
      <point x="39" y="30"/>
      <point x="45" y="23" type="curve" smooth="yes"/>
      <point x="51" y="16"/>
      <point x="59" y="11"/>
      <point x="68" y="7" type="curve" smooth="yes"/>
      <point x="77" y="3"/>
      <point x="86" y="2"/>
      <point x="96" y="2" type="curve"/>
      <point x="94" y="-8"/>
      <point x="90" y="-18"/>
      <point x="86" y="-27" type="curve" smooth="yes"/>
      <point x="82" y="-36"/>
      <point x="77" y="-43"/>
      <point x="72" y="-51" type="curve" smooth="yes"/>
      <point x="67" y="-59"/>
      <point x="61" y="-65"/>
      <point x="56" y="-71" type="curve" smooth="yes"/>
      <point x="51" y="-77"/>
      <point x="46" y="-82"/>
      <point x="42" y="-86" type="curve" smooth="yes"/>
      <point x="39" y="-89"/>
      <point x="37" y="-92"/>
      <point x="35" y="-95" type="curve" smooth="yes"/>
      <point x="33" y="-98"/>
      <point x="32" y="-101"/>
      <point x="32" y="-104" type="curve" smooth="yes"/>
      <point x="32" y="-111"/>
      <point x="36" y="-117"/>
      <point x="42" y="-122" type="curve"/>
      <point x="63" y="-142" type="line"/>
      <point x="81" y="-128"/>
      <point x="96" y="-113"/>
      <point x="110" y="-96" type="curve" smooth="yes"/>
      <point x="124" y="-79"/>
      <point x="135" y="-62"/>
      <point x="144" y="-44" type="curve" smooth="yes"/>
      <point x="153" y="-26"/>
      <point x="161" y="-10"/>
      <point x="166" y="8" type="curve" smooth="yes"/>
      <point x="171" y="26"/>
      <point x="173" y="43"/>
      <point x="173" y="59" type="curve" smooth="yes"/>
      <point x="173" y="70"/>
      <point x="171" y="81"/>
      <point x="168" y="91" type="curve" smooth="yes"/>
      <point x="165" y="101"/>
      <point x="160" y="110"/>
      <point x="154" y="118" type="curve" smooth="yes"/>
      <point x="148" y="126"/>
      <point x="140" y="133"/>
      <point x="131" y="137" type="curve" smooth="yes"/>
      <point x="122" y="141"/>
      <point x="111" y="143"/>
      <point x="98" y="143" type="curve" smooth="yes"/>
      <point x="87" y="143"/>
      <point x="77" y="142"/>
      <point x="68" y="138" type="curve" smooth="yes"/>
      <point x="59" y="134"/>
      <point x="52" y="130"/>
      <point x="46" y="124" type="curve" smooth="yes"/>
      <point x="40" y="118"/>
      <point x="35" y="110"/>
      <point x="31" y="102" type="curve" smooth="yes"/>
      <point x="27" y="94"/>
      <point x="26" y="85"/>
      <point x="26" y="76" type="curve" smooth="yes"/>
    </contour>
    <contour>
      <point x="22" y="413"/>
      <point x="24" y="404"/>
      <point x="28" y="395" type="curve" smooth="yes"/>
      <point x="32" y="386"/>
      <point x="37" y="378"/>
      <point x="44" y="371" type="curve" smooth="yes"/>
      <point x="51" y="364"/>
      <point x="59" y="359"/>
      <point x="68" y="355" type="curve" smooth="yes"/>
      <point x="77" y="351"/>
      <point x="87" y="350"/>
      <point x="98" y="350" type="curve" smooth="yes"/>
      <point x="108" y="350"/>
      <point x="119" y="351"/>
      <point x="128" y="355" type="curve" smooth="yes"/>
      <point x="137" y="359"/>
      <point x="145" y="364"/>
      <point x="152" y="371" type="curve" smooth="yes"/>
      <point x="159" y="378"/>
      <point x="164" y="386"/>
      <point x="168" y="395" type="curve" smooth="yes"/>
      <point x="172" y="404"/>
      <point x="174" y="413"/>
      <point x="174" y="424" type="curve" smooth="yes"/>
      <point x="174" y="434"/>
      <point x="172" y="445"/>
      <point x="168" y="454" type="curve" smooth="yes"/>
      <point x="164" y="463"/>
      <point x="159" y="471"/>
      <point x="152" y="478" type="curve" smooth="yes"/>
      <point x="145" y="485"/>
      <point x="137" y="490"/>
      <point x="128" y="494" type="curve" smooth="yes"/>
      <point x="119" y="498"/>
      <point x="108" y="500"/>
      <point x="98" y="500" type="curve" smooth="yes"/>
      <point x="87" y="500"/>
      <point x="77" y="498"/>
      <point x="68" y="494" type="curve" smooth="yes"/>
      <point x="59" y="490"/>
      <point x="51" y="485"/>
      <point x="44" y="478" type="curve" smooth="yes"/>
      <point x="37" y="471"/>
      <point x="32" y="463"/>
      <point x="28" y="454" type="curve" smooth="yes"/>
      <point x="24" y="445"/>
      <point x="22" y="434"/>
      <point x="22" y="424" type="curve" smooth="yes"/>
    </contour>
  </outline>
</glyph>
<glyph name="equal" format="1">
  <advance width="500"/>
  <unicode hex="003D"/>
  <note>
    equal
  </note>
  <outline>
    <contour>
      <point x="29" y="294" type="line"/>
      <point x="29" y="202" type="line"/>
      <point x="472" y="202" type="line"/>
      <point x="472" y="294" type="line"/>
    </contour>
    <contour>
      <point x="29" y="470" type="line"/>
      <point x="29" y="378" type="line"/>
      <point x="472" y="378" type="line"/>
      <point x="472" y="470" type="line"/>
    </contour>
  </outline>
</glyph>
<glyph name="greater" format="1">
  <advance width="441"/>
  <unicode hex="003E"/>
  <note>
    greater
  </note>
  <outline>
    <contour>
      <point x="24" y="105" type="line"/>
      <point x="420" y="312" type="line"/>
      <point x="420" y="362" type="line"/>
      <point x="24" y="568" type="line"/>
      <point x="24" y="480" type="line" smooth="yes"/>
      <point x="24" y="473"/>
      <point x="26" y="468"/>
      <point x="29" y="462" type="curve" smooth="yes"/>
      <point x="32" y="456"/>
      <point x="38" y="452"/>
      <point x="46" y="448" type="curve" smooth="yes"/>
      <point x="227" y="355" type="line" smooth="yes"/>
      <point x="235" y="351"/>
      <point x="243" y="348"/>
      <point x="251" y="345" type="curve" smooth="yes"/>
      <point x="259" y="342"/>
      <point x="268" y="339"/>
      <point x="278" y="337" type="curve"/>
      <point x="258" y="332"/>
      <point x="242" y="326"/>
      <point x="227" y="319" type="curve"/>
      <point x="46" y="226" type="line" smooth="yes"/>
      <point x="38" y="222"/>
      <point x="32" y="217"/>
      <point x="29" y="211" type="curve" smooth="yes"/>
      <point x="26" y="205"/>
      <point x="24" y="200"/>
      <point x="24" y="193" type="curve" smooth="yes"/>
    </contour>
  </outline>
</glyph>
<glyph name="A" format="1">
  <advance width="812"/>
  <unicode hex="0041"/>
  <note>
    A
  </note>
  <outline>
    <contour>
      <point x="719" y="100" type="line"/>
      <point x="474" y="723" type="line"/>
      <point x="336" y="723" type="line"/>
      <point x="92" y="100" type="line"/>
      <point x="37" y="77" type="line"/>
      <point x="24" y="71"/>
      <point x="17" y="63"/>
      <point x="17" y="51" type="curve" smooth="yes"/>
      <point x="17" y="0" type="line"/>
      <point x="261" y="0" type="line"/>
      <point x="261" y="51" type="line" smooth="yes"/>
      <point x="261" y="63"/>
      <point x="254" y="71"/>
      <point x="241" y="77" type="curve"/>
      <point x="221" y="85" type="line"/>
      <point x="261" y="194" type="line"/>
      <point x="549" y="194" type="line"/>
      <point x="589" y="85" type="line"/>
      <point x="569" y="77" type="line"/>
      <point x="556" y="71"/>
      <point x="549" y="63"/>
      <point x="549" y="51" type="curve" smooth="yes"/>
      <point x="549" y="0" type="line"/>
      <point x="793" y="0" type="line"/>
      <point x="793" y="51" type="line" smooth="yes"/>
      <point x="793" y="63"/>
      <point x="787" y="72"/>
      <point x="774" y="77" type="curve"/>
    </contour>
    <contour>
      <point x="378" y="513" type="line" smooth="yes"/>
      <point x="387" y="538"/>
      <point x="395" y="567"/>
      <point x="405" y="599" type="curve"/>
      <point x="414" y="567"/>
      <point x="423" y="538"/>
      <point x="432" y="514" type="curve" smooth="yes"/>
      <point x="515" y="289" type="line"/>
      <point x="296" y="289" type="line"/>
    </contour>
    <contour>
      <point x="731" y="10" type="move" name="ogonek"/>
    </contour>
    <contour>
      <point x="406" y="0" type="move" name="bottom"/>
    </contour>
    <contour>
      <point x="395" y="723" type="move" name="top"/>
    </contour>
  </outline>
</glyph>
<glyph name="B" format="1">
  <advance width="645"/>
  <unicode hex="0042"/>
  <note>
    B
  </note>
  <outline>
    <contour>
      <point x="505" y="382"/>
      <point x="524" y="391"/>
      <point x="540" y="402" type="curve" smooth="yes"/>
      <point x="556" y="413"/>
      <point x="569" y="424"/>
      <point x="580" y="438" type="curve" smooth="yes"/>
      <point x="590" y="451"/>
      <point x="599" y="466"/>
      <point x="604" y="482" type="curve" smooth="yes"/>
      <point x="609" y="498"/>
      <point x="611" y="514"/>
      <point x="611" y="531" type="curve" smooth="yes"/>
      <point x="611" y="561"/>
      <point x="606" y="586"/>
      <point x="596" y="610" type="curve" smooth="yes"/>
      <point x="586" y="634"/>
      <point x="571" y="654"/>
      <point x="549" y="671" type="curve" smooth="yes"/>
      <point x="528" y="688"/>
      <point x="500" y="701"/>
      <point x="466" y="710" type="curve" smooth="yes"/>
      <point x="432" y="719"/>
      <point x="392" y="723"/>
      <point x="345" y="723" type="curve" smooth="yes"/>
      <point x="96" y="723" type="line"/>
      <point x="20" y="723" type="line"/>
      <point x="20" y="664" type="line" smooth="yes"/>
      <point x="20" y="647"/>
      <point x="28" y="637"/>
      <point x="45" y="633" type="curve"/>
      <point x="46" y="633"/>
      <point x="48" y="632"/>
      <point x="51" y="632" type="curve" smooth="yes"/>
      <point x="54" y="632"/>
      <point x="59" y="630"/>
      <point x="66" y="629" type="curve" smooth="yes"/>
      <point x="73" y="628"/>
      <point x="84" y="626"/>
      <point x="96" y="624" type="curve"/>
      <point x="96" y="99" type="line"/>
      <point x="84" y="97"/>
      <point x="73" y="95"/>
      <point x="66" y="94" type="curve" smooth="yes"/>
      <point x="59" y="93"/>
      <point x="54" y="91"/>
      <point x="51" y="91" type="curve" smooth="yes"/>
      <point x="48" y="91"/>
      <point x="46" y="90"/>
      <point x="45" y="90" type="curve"/>
      <point x="28" y="86"/>
      <point x="20" y="76"/>
      <point x="20" y="59" type="curve" smooth="yes"/>
      <point x="20" y="0" type="line"/>
      <point x="96" y="0" type="line"/>
      <point x="369" y="0" type="line" smooth="yes"/>
      <point x="411" y="0"/>
      <point x="448" y="5"/>
      <point x="481" y="16" type="curve" smooth="yes"/>
      <point x="514" y="27"/>
      <point x="541" y="41"/>
      <point x="563" y="60" type="curve" smooth="yes"/>
      <point x="585" y="79"/>
      <point x="602" y="102"/>
      <point x="614" y="128" type="curve" smooth="yes"/>
      <point x="626" y="154"/>
      <point x="632" y="182"/>
      <point x="632" y="213" type="curve" smooth="yes"/>
      <point x="632" y="298"/>
      <point x="582" y="352"/>
      <point x="483" y="374" type="curve"/>
    </contour>
    <contour>
      <point x="230" y="619" type="line"/>
      <point x="345" y="619" type="line" smooth="yes"/>
      <point x="390" y="619"/>
      <point x="424" y="611"/>
      <point x="445" y="595" type="curve" smooth="yes"/>
      <point x="466" y="579"/>
      <point x="477" y="553"/>
      <point x="477" y="515" type="curve" smooth="yes"/>
      <point x="477" y="479"/>
      <point x="466" y="452"/>
      <point x="442" y="435" type="curve" smooth="yes"/>
      <point x="418" y="418"/>
      <point x="384" y="410"/>
      <point x="338" y="410" type="curve" smooth="yes"/>
      <point x="230" y="410" type="line"/>
    </contour>
    <contour>
      <point x="488" y="160"/>
      <point x="480" y="148"/>
      <point x="470" y="138" type="curve" smooth="yes"/>
      <point x="460" y="128"/>
      <point x="447" y="120"/>
      <point x="430" y="114" type="curve" smooth="yes"/>
      <point x="413" y="108"/>
      <point x="392" y="105"/>
      <point x="367" y="105" type="curve" smooth="yes"/>
      <point x="230" y="105" type="line"/>
      <point x="230" y="317" type="line"/>
      <point x="366" y="317" type="line" smooth="yes"/>
      <point x="390" y="317"/>
      <point x="410" y="315"/>
      <point x="427" y="310" type="curve" smooth="yes"/>
      <point x="444" y="305"/>
      <point x="457" y="299"/>
      <point x="468" y="290" type="curve" smooth="yes"/>
      <point x="479" y="281"/>
      <point x="486" y="270"/>
      <point x="491" y="258" type="curve" smooth="yes"/>
      <point x="496" y="245"/>
      <point x="499" y="232"/>
      <point x="499" y="216" type="curve" smooth="yes"/>
      <point x="499" y="201"/>
      <point x="497" y="186"/>
      <point x="492" y="173" type="curve"/>
    </contour>
    <contour>
      <point x="323" y="723" type="move" name="top"/>
    </contour>
    <contour>
      <point x="323" y="0" type="move" name="bottom"/>
    </contour>
  </outline>
</glyph>
<glyph name="H" format="1">
  <advance width="801"/>
  <unicode hex="0048"/>
  <note>
    H
  </note>
  <outline>
    <contour>
      <point x="773" y="637"/>
      <point x="781" y="647"/>
      <point x="781" y="664" type="curve" smooth="yes"/>
      <point x="781" y="723" type="line"/>
      <point x="706" y="723" type="line"/>
      <point x="570" y="723" type="line"/>
      <point x="495" y="723" type="line"/>
      <point x="495" y="664" type="line" smooth="yes"/>
      <point x="495" y="647"/>
      <point x="503" y="637"/>
      <point x="520" y="633" type="curve"/>
      <point x="521" y="633"/>
      <point x="523" y="632"/>
      <point x="526" y="632" type="curve"/>
      <point x="529" y="631"/>
      <point x="534" y="630"/>
      <point x="541" y="629" type="curve" smooth="yes"/>
      <point x="548" y="628"/>
      <point x="558" y="626"/>
      <point x="570" y="624" type="curve"/>
      <point x="570" y="412" type="line"/>
      <point x="231" y="412" type="line"/>
      <point x="231" y="624" type="line"/>
      <point x="243" y="626"/>
      <point x="254" y="628"/>
      <point x="261" y="629" type="curve" smooth="yes"/>
      <point x="268" y="630"/>
      <point x="273" y="632"/>
      <point x="276" y="632" type="curve"/>
      <point x="279" y="633"/>
      <point x="281" y="633"/>
      <point x="282" y="633" type="curve"/>
      <point x="299" y="637"/>
      <point x="307" y="647"/>
      <point x="307" y="664" type="curve" smooth="yes"/>
      <point x="307" y="723" type="line"/>
      <point x="231" y="723" type="line"/>
      <point x="96" y="723" type="line"/>
      <point x="20" y="723" type="line"/>
      <point x="20" y="664" type="line" smooth="yes"/>
      <point x="20" y="647"/>
      <point x="28" y="637"/>
      <point x="45" y="633" type="curve"/>
      <point x="46" y="633"/>
      <point x="48" y="633"/>
      <point x="51" y="632" type="curve"/>
      <point x="54" y="632"/>
      <point x="59" y="630"/>
      <point x="66" y="629" type="curve" smooth="yes"/>
      <point x="73" y="628"/>
      <point x="84" y="626"/>
      <point x="96" y="624" type="curve"/>
      <point x="96" y="99" type="line"/>
      <point x="84" y="97"/>
      <point x="73" y="95"/>
      <point x="66" y="94" type="curve" smooth="yes"/>
      <point x="59" y="93"/>
      <point x="54" y="91"/>
      <point x="51" y="91" type="curve" smooth="yes"/>
      <point x="48" y="91"/>
      <point x="46" y="90"/>
      <point x="45" y="90" type="curve"/>
      <point x="28" y="86"/>
      <point x="20" y="76"/>
      <point x="20" y="59" type="curve" smooth="yes"/>
      <point x="20" y="0" type="line"/>
      <point x="96" y="0" type="line"/>
      <point x="231" y="0" type="line"/>
      <point x="307" y="0" type="line"/>
      <point x="307" y="59" type="line" smooth="yes"/>
      <point x="307" y="76"/>
      <point x="299" y="86"/>
      <point x="282" y="90" type="curve"/>
      <point x="281" y="90"/>
      <point x="279" y="90"/>
      <point x="276" y="91" type="curve"/>
      <point x="273" y="91"/>
      <point x="268" y="93"/>
      <point x="261" y="94" type="curve" smooth="yes"/>
      <point x="254" y="95"/>
      <point x="243" y="97"/>
      <point x="231" y="99" type="curve"/>
      <point x="231" y="316" type="line"/>
      <point x="570" y="316" type="line"/>
      <point x="570" y="99" type="line"/>
      <point x="558" y="97"/>
      <point x="548" y="95"/>
      <point x="541" y="94" type="curve" smooth="yes"/>
      <point x="534" y="93"/>
      <point x="529" y="92"/>
      <point x="526" y="91" type="curve" smooth="yes"/>
      <point x="523" y="90"/>
      <point x="521" y="90"/>
      <point x="520" y="90" type="curve"/>
      <point x="503" y="86"/>
      <point x="495" y="76"/>
      <point x="495" y="59" type="curve" smooth="yes"/>
      <point x="495" y="0" type="line"/>
      <point x="570" y="0" type="line"/>
      <point x="706" y="0" type="line"/>
      <point x="781" y="0" type="line"/>
      <point x="781" y="59" type="line" smooth="yes"/>
      <point x="781" y="76"/>
      <point x="773" y="86"/>
      <point x="756" y="90" type="curve"/>
      <point x="755" y="90"/>
      <point x="753" y="91"/>
      <point x="750" y="91" type="curve" smooth="yes"/>
      <point x="747" y="91"/>
      <point x="742" y="93"/>
      <point x="735" y="94" type="curve" smooth="yes"/>
      <point x="728" y="95"/>
      <point x="718" y="97"/>
      <point x="706" y="99" type="curve"/>
      <point x="706" y="624" type="line"/>
      <point x="718" y="626"/>
      <point x="728" y="628"/>
      <point x="735" y="629" type="curve" smooth="yes"/>
      <point x="742" y="630"/>
      <point x="747" y="632"/>
      <point x="750" y="632" type="curve" smooth="yes"/>
      <point x="753" y="632"/>
      <point x="755" y="633"/>
      <point x="756" y="633" type="curve"/>
    </contour>
    <contour>
      <point x="401" y="0" type="move" name="bottom"/>
    </contour>
    <contour>
      <point x="401" y="723" type="move" name="top"/>
    </contour>
    <contour>
      <point x="20" y="723" type="move" name="topleft"/>
    </contour>
    <contour>
      <point x="401" y="362" type="move" name="center"/>
    </contour>
  </outline>
</glyph>
<glyph name="J" format="1">
  <advance width="452"/>
  <unicode hex="004A"/>
  <note>
    J
  </note>
  <outline>
    <contour>
      <point x="361" y="723" type="line"/>
      <point x="227" y="723" type="line"/>
      <point x="142" y="723" type="line"/>
      <point x="142" y="664" type="line" smooth="yes"/>
      <point x="142" y="647"/>
      <point x="150" y="637"/>
      <point x="167" y="633" type="curve"/>
      <point x="168" y="633"/>
      <point x="172" y="632"/>
      <point x="176" y="632" type="curve" smooth="yes"/>
      <point x="180" y="632"/>
      <point x="186" y="630"/>
      <point x="195" y="629" type="curve" smooth="yes"/>
      <point x="204" y="628"/>
      <point x="215" y="626"/>
      <point x="227" y="624" type="curve"/>
      <point x="227" y="254" type="line" smooth="yes"/>
      <point x="227" y="227"/>
      <point x="224" y="203"/>
      <point x="219" y="184" type="curve" smooth="yes"/>
      <point x="214" y="165"/>
      <point x="207" y="150"/>
      <point x="197" y="138" type="curve" smooth="yes"/>
      <point x="187" y="126"/>
      <point x="175" y="116"/>
      <point x="160" y="111" type="curve"/>
      <point x="145" y="105"/>
      <point x="129" y="103"/>
      <point x="110" y="103" type="curve" smooth="yes"/>
      <point x="96" y="103"/>
      <point x="84" y="105"/>
      <point x="75" y="107" type="curve" smooth="yes"/>
      <point x="66" y="109"/>
      <point x="59" y="110"/>
      <point x="53" y="110" type="curve" smooth="yes"/>
      <point x="44" y="110"/>
      <point x="37" y="107"/>
      <point x="32" y="103" type="curve"/>
      <point x="27" y="98"/>
      <point x="24" y="93"/>
      <point x="23" y="86" type="curve"/>
      <point x="16" y="6" type="line"/>
      <point x="35" y="1"/>
      <point x="54" y="-3"/>
      <point x="71" y="-5" type="curve" smooth="yes"/>
      <point x="88" y="-7"/>
      <point x="106" y="-8"/>
      <point x="124" y="-8" type="curve" smooth="yes"/>
      <point x="163" y="-8"/>
      <point x="197" y="-1"/>
      <point x="227" y="11" type="curve" smooth="yes"/>
      <point x="257" y="23"/>
      <point x="282" y="41"/>
      <point x="302" y="64" type="curve" smooth="yes"/>
      <point x="322" y="87"/>
      <point x="336" y="114"/>
      <point x="346" y="147" type="curve" smooth="yes"/>
      <point x="356" y="180"/>
      <point x="361" y="216"/>
      <point x="361" y="257" type="curve" smooth="yes"/>
      <point x="361" y="624" type="line"/>
      <point x="373" y="626"/>
      <point x="384" y="628"/>
      <point x="391" y="629" type="curve" smooth="yes"/>
      <point x="398" y="630"/>
      <point x="403" y="632"/>
      <point x="406" y="632" type="curve" smooth="yes"/>
      <point x="409" y="632"/>
      <point x="411" y="633"/>
      <point x="412" y="633" type="curve"/>
      <point x="429" y="637"/>
      <point x="437" y="647"/>
      <point x="437" y="664" type="curve" smooth="yes"/>
      <point x="437" y="723" type="line"/>
    </contour>
    <contour>
      <point x="226" y="723" type="move" name="top"/>
    </contour>
    <contour>
      <point x="226" y="0" type="move" name="bottom"/>
    </contour>
  </outline>
</glyph>
<glyph name="K" format="1">
  <advance width="736"/>
  <unicode hex="004B"/>
  <note>
    K
  </note>
  <outline>
    <contour>
      <point x="690" y="90"/>
      <point x="688" y="91"/>
      <point x="684" y="91" type="curve" smooth="yes"/>
      <point x="680" y="91"/>
      <point x="674" y="93"/>
      <point x="666" y="94" type="curve" smooth="yes"/>
      <point x="658" y="95"/>
      <point x="649" y="97"/>
      <point x="637" y="99" type="curve"/>
      <point x="459" y="338" type="line" smooth="yes"/>
      <point x="451" y="349"/>
      <point x="442" y="359"/>
      <point x="433" y="366" type="curve" smooth="yes"/>
      <point x="424" y="373"/>
      <point x="414" y="379"/>
      <point x="403" y="383" type="curve"/>
      <point x="411" y="387"/>
      <point x="419" y="393"/>
      <point x="426" y="399" type="curve" smooth="yes"/>
      <point x="433" y="405"/>
      <point x="440" y="413"/>
      <point x="448" y="422" type="curve"/>
      <point x="611" y="624" type="line"/>
      <point x="623" y="626"/>
      <point x="633" y="628"/>
      <point x="641" y="629" type="curve" smooth="yes"/>
      <point x="649" y="630"/>
      <point x="655" y="632"/>
      <point x="659" y="632" type="curve" smooth="yes"/>
      <point x="663" y="632"/>
      <point x="665" y="633"/>
      <point x="667" y="633" type="curve"/>
      <point x="684" y="637"/>
      <point x="692" y="647"/>
      <point x="692" y="664" type="curve" smooth="yes"/>
      <point x="692" y="723" type="line"/>
      <point x="616" y="723" type="line"/>
      <point x="591" y="723" type="line"/>
      <point x="426" y="723" type="line"/>
      <point x="426" y="664" type="line" smooth="yes"/>
      <point x="426" y="647"/>
      <point x="434" y="637"/>
      <point x="451" y="633" type="curve"/>
      <point x="452" y="633"/>
      <point x="454" y="632"/>
      <point x="457" y="632" type="curve" smooth="yes"/>
      <point x="460" y="632"/>
      <point x="462" y="631"/>
      <point x="464" y="631" type="curve"/>
      <point x="315" y="442" type="line" smooth="yes"/>
      <point x="309" y="434"/>
      <point x="301" y="429"/>
      <point x="293" y="425" type="curve" smooth="yes"/>
      <point x="285" y="421"/>
      <point x="275" y="420"/>
      <point x="262" y="420" type="curve" smooth="yes"/>
      <point x="230" y="420" type="line"/>
      <point x="230" y="624" type="line"/>
      <point x="242" y="626"/>
      <point x="253" y="629"/>
      <point x="260" y="630" type="curve" smooth="yes"/>
      <point x="267" y="631"/>
      <point x="272" y="631"/>
      <point x="275" y="632" type="curve"/>
      <point x="278" y="632"/>
      <point x="280" y="633"/>
      <point x="281" y="633" type="curve"/>
      <point x="298" y="637"/>
      <point x="306" y="648"/>
      <point x="306" y="665" type="curve" smooth="yes"/>
      <point x="306" y="723" type="line"/>
      <point x="230" y="723" type="line"/>
      <point x="96" y="723" type="line"/>
      <point x="20" y="723" type="line"/>
      <point x="20" y="665" type="line" smooth="yes"/>
      <point x="20" y="648"/>
      <point x="28" y="637"/>
      <point x="45" y="633" type="curve"/>
      <point x="46" y="633"/>
      <point x="48" y="632"/>
      <point x="51" y="632" type="curve" smooth="yes"/>
      <point x="54" y="632"/>
      <point x="59" y="631"/>
      <point x="66" y="630" type="curve" smooth="yes"/>
      <point x="73" y="629"/>
      <point x="84" y="626"/>
      <point x="96" y="624" type="curve"/>
      <point x="96" y="99" type="line"/>
      <point x="84" y="97"/>
      <point x="73" y="95"/>
      <point x="66" y="94" type="curve" smooth="yes"/>
      <point x="59" y="93"/>
      <point x="54" y="92"/>
      <point x="51" y="91" type="curve" smooth="yes"/>
      <point x="48" y="90"/>
      <point x="46" y="90"/>
      <point x="45" y="90" type="curve"/>
      <point x="28" y="86"/>
      <point x="20" y="76"/>
      <point x="20" y="59" type="curve" smooth="yes"/>
      <point x="20" y="0" type="line"/>
      <point x="96" y="0" type="line"/>
      <point x="230" y="0" type="line"/>
      <point x="306" y="0" type="line"/>
      <point x="306" y="59" type="line" smooth="yes"/>
      <point x="306" y="76"/>
      <point x="298" y="86"/>
      <point x="281" y="90" type="curve"/>
      <point x="280" y="90"/>
      <point x="278" y="91"/>
      <point x="275" y="91" type="curve" smooth="yes"/>
      <point x="272" y="91"/>
      <point x="267" y="93"/>
      <point x="260" y="94" type="curve" smooth="yes"/>
      <point x="253" y="95"/>
      <point x="242" y="97"/>
      <point x="230" y="99" type="curve"/>
      <point x="230" y="318" type="line"/>
      <point x="273" y="318" type="line" smooth="yes"/>
      <point x="288" y="318"/>
      <point x="300" y="316"/>
      <point x="308" y="312" type="curve" smooth="yes"/>
      <point x="316" y="308"/>
      <point x="324" y="303"/>
      <point x="331" y="294" type="curve" smooth="yes"/>
      <point x="484" y="94" type="line"/>
      <point x="479" y="93"/>
      <point x="474" y="92"/>
      <point x="470" y="91" type="curve" smooth="yes"/>
      <point x="466" y="90"/>
      <point x="463" y="90"/>
      <point x="462" y="90" type="curve"/>
      <point x="445" y="86"/>
      <point x="437" y="76"/>
      <point x="437" y="59" type="curve" smooth="yes"/>
      <point x="437" y="0" type="line"/>
      <point x="591" y="0" type="line"/>
      <point x="603" y="0" type="line"/>
      <point x="642" y="0" type="line"/>
      <point x="710" y="0" type="line"/>
      <point x="717" y="0" type="line"/>
      <point x="717" y="59" type="line" smooth="yes"/>
      <point x="717" y="76"/>
      <point x="709" y="86"/>
      <point x="692" y="90" type="curve"/>
    </contour>
    <contour>
      <point x="368" y="723" type="move" name="top"/>
    </contour>
    <contour>
      <point x="368" y="0" type="move" name="bottom"/>
    </contour>
  </outline>
</glyph>
<glyph name="M" format="1">
  <advance width="975"/>
  <unicode hex="004D"/>
  <note>
    M
  </note>
  <outline>
    <contour>
      <point x="947" y="637"/>
      <point x="955" y="647"/>
      <point x="955" y="664" type="curve" smooth="yes"/>
      <point x="955" y="723" type="line"/>
      <point x="880" y="723" type="line"/>
      <point x="778" y="723" type="line" smooth="yes"/>
      <point x="772" y="723"/>
      <point x="767" y="722"/>
      <point x="763" y="722" type="curve" smooth="yes"/>
      <point x="759" y="722"/>
      <point x="755" y="721"/>
      <point x="751" y="720" type="curve" smooth="yes"/>
      <point x="747" y="719"/>
      <point x="744" y="716"/>
      <point x="741" y="713" type="curve" smooth="yes"/>
      <point x="738" y="710"/>
      <point x="736" y="706"/>
      <point x="733" y="701" type="curve"/>
      <point x="519" y="301" type="line" smooth="yes"/>
      <point x="513" y="290"/>
      <point x="508" y="279"/>
      <point x="503" y="267" type="curve" smooth="yes"/>
      <point x="498" y="255"/>
      <point x="494" y="244"/>
      <point x="489" y="232" type="curve"/>
      <point x="484" y="244"/>
      <point x="479" y="256"/>
      <point x="474" y="267" type="curve" smooth="yes"/>
      <point x="469" y="278"/>
      <point x="465" y="289"/>
      <point x="459" y="300" type="curve" smooth="yes"/>
      <point x="243" y="701" type="line"/>
      <point x="240" y="706"/>
      <point x="237" y="710"/>
      <point x="234" y="713" type="curve" smooth="yes"/>
      <point x="231" y="716"/>
      <point x="229" y="719"/>
      <point x="225" y="720" type="curve"/>
      <point x="222" y="721"/>
      <point x="217" y="722"/>
      <point x="213" y="722" type="curve" smooth="yes"/>
      <point x="209" y="722"/>
      <point x="203" y="723"/>
      <point x="197" y="723" type="curve" smooth="yes"/>
      <point x="96" y="723" type="line"/>
      <point x="20" y="723" type="line"/>
      <point x="20" y="664" type="line" smooth="yes"/>
      <point x="20" y="647"/>
      <point x="28" y="637"/>
      <point x="45" y="633" type="curve"/>
      <point x="46" y="633"/>
      <point x="48" y="633"/>
      <point x="51" y="632" type="curve"/>
      <point x="54" y="632"/>
      <point x="59" y="630"/>
      <point x="66" y="629" type="curve" smooth="yes"/>
      <point x="73" y="628"/>
      <point x="84" y="626"/>
      <point x="96" y="624" type="curve"/>
      <point x="96" y="99" type="line"/>
      <point x="84" y="97"/>
      <point x="73" y="95"/>
      <point x="66" y="94" type="curve" smooth="yes"/>
      <point x="59" y="93"/>
      <point x="54" y="92"/>
      <point x="51" y="91" type="curve" smooth="yes"/>
      <point x="48" y="90"/>
      <point x="46" y="90"/>
      <point x="45" y="90" type="curve"/>
      <point x="28" y="86"/>
      <point x="20" y="76"/>
      <point x="20" y="59" type="curve" smooth="yes"/>
      <point x="20" y="0" type="line"/>
      <point x="96" y="0" type="line"/>
      <point x="214" y="0" type="line"/>
      <point x="304" y="0" type="line"/>
      <point x="304" y="59" type="line" smooth="yes"/>
      <point x="304" y="76"/>
      <point x="296" y="86"/>
      <point x="279" y="90" type="curve"/>
      <point x="277" y="90"/>
      <point x="256" y="93"/>
      <point x="214" y="99" type="curve"/>
      <point x="214" y="467" type="line" smooth="yes"/>
      <point x="214" y="476"/>
      <point x="214" y="486"/>
      <point x="213" y="496" type="curve" smooth="yes"/>
      <point x="212" y="506"/>
      <point x="212" y="517"/>
      <point x="211" y="528" type="curve"/>
      <point x="432" y="117" type="line" smooth="yes"/>
      <point x="437" y="108"/>
      <point x="444" y="100"/>
      <point x="452" y="95" type="curve" smooth="yes"/>
      <point x="460" y="90"/>
      <point x="469" y="87"/>
      <point x="480" y="87" type="curve" smooth="yes"/>
      <point x="498" y="87" type="line" smooth="yes"/>
      <point x="509" y="87"/>
      <point x="518" y="90"/>
      <point x="526" y="95" type="curve" smooth="yes"/>
      <point x="534" y="100"/>
      <point x="541" y="108"/>
      <point x="546" y="117" type="curve" smooth="yes"/>
      <point x="764" y="527" type="line"/>
      <point x="763" y="516"/>
      <point x="762" y="505"/>
      <point x="762" y="495" type="curve" smooth="yes"/>
      <point x="762" y="485"/>
      <point x="761" y="476"/>
      <point x="761" y="467" type="curve" smooth="yes"/>
      <point x="761" y="99" type="line"/>
      <point x="720" y="93"/>
      <point x="698" y="90"/>
      <point x="696" y="90" type="curve"/>
      <point x="679" y="86"/>
      <point x="671" y="76"/>
      <point x="671" y="59" type="curve" smooth="yes"/>
      <point x="671" y="0" type="line"/>
      <point x="761" y="0" type="line"/>
      <point x="880" y="0" type="line"/>
      <point x="955" y="0" type="line"/>
      <point x="955" y="59" type="line" smooth="yes"/>
      <point x="955" y="76"/>
      <point x="947" y="86"/>
      <point x="930" y="90" type="curve"/>
      <point x="929" y="90"/>
      <point x="927" y="91"/>
      <point x="924" y="91" type="curve" smooth="yes"/>
      <point x="921" y="91"/>
      <point x="916" y="93"/>
      <point x="909" y="94" type="curve" smooth="yes"/>
      <point x="902" y="95"/>
      <point x="892" y="97"/>
      <point x="880" y="99" type="curve"/>
      <point x="880" y="624" type="line"/>
      <point x="892" y="626"/>
      <point x="902" y="628"/>
      <point x="909" y="629" type="curve" smooth="yes"/>
      <point x="916" y="630"/>
      <point x="921" y="632"/>
      <point x="924" y="632" type="curve" smooth="yes"/>
      <point x="927" y="632"/>
      <point x="929" y="633"/>
      <point x="930" y="633" type="curve"/>
    </contour>
    <contour>
      <point x="488" y="723" type="move" name="top"/>
    </contour>
    <contour>
      <point x="488" y="0" type="move" name="bottom"/>
    </contour>
  </outline>
</glyph>
<glyph name="O" format="1">
  <advance width="762"/>
  <unicode hex="004F"/>
  <note>
    O
  </note>
  <outline>
    <contour>
      <point x="747" y="573"/>
      <point x="599" y="731"/>
      <point x="381" y="731" type="curve" smooth="yes"/>
      <point x="168" y="731"/>
      <point x="14" y="582"/>
      <point x="14" y="362" type="curve" smooth="yes"/>
      <point x="14" y="143"/>
      <point x="166" y="-8"/>
      <point x="381" y="-8" type="curve" smooth="yes"/>
      <point x="596" y="-8"/>
      <point x="747" y="146"/>
      <point x="747" y="362" type="curve" smooth="yes"/>
    </contour>
    <contour>
      <point x="609" y="213"/>
      <point x="532" y="107"/>
      <point x="381" y="107" type="curve" smooth="yes"/>
      <point x="231" y="107"/>
      <point x="151" y="212"/>
      <point x="151" y="362" type="curve" smooth="yes"/>
      <point x="151" y="509"/>
      <point x="229" y="616"/>
      <point x="381" y="616" type="curve" smooth="yes"/>
      <point x="530" y="616"/>
      <point x="609" y="511"/>
      <point x="609" y="362" type="curve" smooth="yes"/>
    </contour>
    <contour>
      <point x="381" y="0" type="move" name="bottom"/>
    </contour>
    <contour>
      <point x="686" y="10" type="move" name="ogonek"/>
    </contour>
    <contour>
      <point x="381" y="723" type="move" name="top"/>
    </contour>
    <contour>
      <point x="742" y="723" type="move" name="topright"/>
    </contour>
    <contour>
      <point x="20" y="723" type="move" name="topleft"/>
    </contour>
    <contour>
      <point x="381" y="362" type="move" name="center"/>
    </contour>
  </outline>
</glyph>
<glyph name="P" format="1">
  <advance width="615"/>
  <unicode hex="0050"/>
  <note>
    P
  </note>
  <outline>
    <contour>
      <point x="572" y="614"/>
      <point x="555" y="638"/>
      <point x="532" y="658" type="curve" smooth="yes"/>
      <point x="509" y="678"/>
      <point x="480" y="695"/>
      <point x="445" y="706" type="curve" smooth="yes"/>
      <point x="410" y="717"/>
      <point x="367" y="723"/>
      <point x="319" y="723" type="curve" smooth="yes"/>
      <point x="96" y="723" type="line"/>
      <point x="20" y="723" type="line"/>
      <point x="20" y="664" type="line" smooth="yes"/>
      <point x="20" y="647"/>
      <point x="28" y="637"/>
      <point x="45" y="633" type="curve"/>
      <point x="46" y="633"/>
      <point x="48" y="633"/>
      <point x="51" y="632" type="curve"/>
      <point x="54" y="632"/>
      <point x="59" y="630"/>
      <point x="66" y="629" type="curve" smooth="yes"/>
      <point x="73" y="628"/>
      <point x="84" y="626"/>
      <point x="96" y="624" type="curve"/>
      <point x="96" y="99" type="line"/>
      <point x="84" y="97"/>
      <point x="73" y="95"/>
      <point x="66" y="94" type="curve" smooth="yes"/>
      <point x="59" y="93"/>
      <point x="54" y="92"/>
      <point x="51" y="91" type="curve"/>
      <point x="48" y="91"/>
      <point x="46" y="90"/>
      <point x="45" y="90" type="curve"/>
      <point x="28" y="86"/>
      <point x="20" y="76"/>
      <point x="20" y="59" type="curve" smooth="yes"/>
      <point x="20" y="0" type="line"/>
      <point x="96" y="0" type="line"/>
      <point x="230" y="0" type="line"/>
      <point x="306" y="0" type="line"/>
      <point x="306" y="59" type="line" smooth="yes"/>
      <point x="306" y="76"/>
      <point x="298" y="86"/>
      <point x="281" y="90" type="curve"/>
      <point x="280" y="90"/>
      <point x="278" y="91"/>
      <point x="275" y="91" type="curve" smooth="yes"/>
      <point x="272" y="91"/>
      <point x="267" y="93"/>
      <point x="260" y="94" type="curve" smooth="yes"/>
      <point x="253" y="95"/>
      <point x="242" y="97"/>
      <point x="230" y="99" type="curve"/>
      <point x="230" y="255" type="line"/>
      <point x="319" y="255" type="line" smooth="yes"/>
      <point x="366" y="255"/>
      <point x="407" y="260"/>
      <point x="442" y="272" type="curve" smooth="yes"/>
      <point x="477" y="284"/>
      <point x="507" y="300"/>
      <point x="530" y="321" type="curve" smooth="yes"/>
      <point x="553" y="342"/>
      <point x="570" y="367"/>
      <point x="582" y="396" type="curve" smooth="yes"/>
      <point x="594" y="425"/>
      <point x="600" y="458"/>
      <point x="600" y="493" type="curve" smooth="yes"/>
      <point x="600" y="527"/>
      <point x="594" y="558"/>
      <point x="583" y="586" type="curve" smooth="yes"/>
    </contour>
    <contour>
      <point x="450" y="420"/>
      <point x="441" y="406"/>
      <point x="429" y="395" type="curve"/>
      <point x="417" y="383"/>
      <point x="402" y="375"/>
      <point x="384" y="369" type="curve" smooth="yes"/>
      <point x="366" y="363"/>
      <point x="344" y="360"/>
      <point x="319" y="360" type="curve" smooth="yes"/>
      <point x="230" y="360" type="line"/>
      <point x="230" y="619" type="line"/>
      <point x="319" y="619" type="line" smooth="yes"/>
      <point x="344" y="619"/>
      <point x="366" y="616"/>
      <point x="384" y="610" type="curve" smooth="yes"/>
      <point x="402" y="604"/>
      <point x="417" y="596"/>
      <point x="429" y="585" type="curve" smooth="yes"/>
      <point x="441" y="574"/>
      <point x="450" y="561"/>
      <point x="456" y="545" type="curve" smooth="yes"/>
      <point x="462" y="529"/>
      <point x="465" y="512"/>
      <point x="465" y="493" type="curve" smooth="yes"/>
      <point x="465" y="473"/>
      <point x="462" y="453"/>
      <point x="456" y="437" type="curve" smooth="yes"/>
    </contour>
    <contour>
      <point x="308" y="723" type="move" name="top"/>
    </contour>
    <contour>
      <point x="308" y="0" type="move" name="bottom"/>
    </contour>
  </outline>
</glyph>
<glyph name="R" format="1">
  <advance width="685"/>
  <unicode hex="0052"/>
  <note>
    R
  </note>
  <outline>
    <contour>
      <point x="641" y="90"/>
      <point x="638" y="91"/>
      <point x="634" y="91" type="curve" smooth="yes"/>
      <point x="630" y="91"/>
      <point x="625" y="93"/>
      <point x="617" y="94" type="curve" smooth="yes"/>
      <point x="609" y="95"/>
      <point x="598" y="97"/>
      <point x="586" y="99" type="curve"/>
      <point x="472" y="267" type="line" smooth="yes"/>
      <point x="460" y="285"/>
      <point x="445" y="299"/>
      <point x="428" y="309" type="curve"/>
      <point x="453" y="317"/>
      <point x="476" y="328"/>
      <point x="496" y="341" type="curve" smooth="yes"/>
      <point x="516" y="354"/>
      <point x="533" y="369"/>
      <point x="546" y="387" type="curve" smooth="yes"/>
      <point x="559" y="405"/>
      <point x="570" y="424"/>
      <point x="577" y="446" type="curve" smooth="yes"/>
      <point x="584" y="468"/>
      <point x="588" y="491"/>
      <point x="588" y="515" type="curve" smooth="yes"/>
      <point x="588" y="546"/>
      <point x="583" y="573"/>
      <point x="572" y="599" type="curve" smooth="yes"/>
      <point x="562" y="624"/>
      <point x="544" y="647"/>
      <point x="522" y="665" type="curve" smooth="yes"/>
      <point x="500" y="683"/>
      <point x="471" y="698"/>
      <point x="436" y="708" type="curve" smooth="yes"/>
      <point x="401" y="718"/>
      <point x="358" y="723"/>
      <point x="309" y="723" type="curve" smooth="yes"/>
      <point x="96" y="723" type="line"/>
      <point x="20" y="723" type="line"/>
      <point x="20" y="664" type="line" smooth="yes"/>
      <point x="20" y="647"/>
      <point x="28" y="637"/>
      <point x="45" y="633" type="curve"/>
      <point x="46" y="633"/>
      <point x="48" y="632"/>
      <point x="51" y="632" type="curve" smooth="yes"/>
      <point x="54" y="632"/>
      <point x="59" y="630"/>
      <point x="66" y="629" type="curve" smooth="yes"/>
      <point x="73" y="628"/>
      <point x="84" y="626"/>
      <point x="96" y="624" type="curve"/>
      <point x="96" y="99" type="line"/>
      <point x="84" y="97"/>
      <point x="73" y="95"/>
      <point x="66" y="94" type="curve" smooth="yes"/>
      <point x="59" y="93"/>
      <point x="54" y="92"/>
      <point x="51" y="91" type="curve"/>
      <point x="48" y="91"/>
      <point x="46" y="90"/>
      <point x="45" y="90" type="curve"/>
      <point x="28" y="86"/>
      <point x="20" y="76"/>
      <point x="20" y="59" type="curve" smooth="yes"/>
      <point x="20" y="0" type="line"/>
      <point x="96" y="0" type="line"/>
      <point x="230" y="0" type="line"/>
      <point x="306" y="0" type="line"/>
      <point x="306" y="59" type="line" smooth="yes"/>
      <point x="306" y="76"/>
      <point x="298" y="86"/>
      <point x="281" y="90" type="curve"/>
      <point x="280" y="90"/>
      <point x="278" y="91"/>
      <point x="275" y="91" type="curve" smooth="yes"/>
      <point x="272" y="91"/>
      <point x="267" y="93"/>
      <point x="260" y="94" type="curve" smooth="yes"/>
      <point x="253" y="95"/>
      <point x="242" y="97"/>
      <point x="230" y="99" type="curve"/>
      <point x="230" y="283" type="line"/>
      <point x="281" y="283" type="line" smooth="yes"/>
      <point x="294" y="283"/>
      <point x="304" y="281"/>
      <point x="311" y="277" type="curve" smooth="yes"/>
      <point x="318" y="273"/>
      <point x="324" y="268"/>
      <point x="330" y="259" type="curve" smooth="yes"/>
      <point x="482" y="27" type="line" smooth="yes"/>
      <point x="488" y="18"/>
      <point x="494" y="12"/>
      <point x="502" y="7" type="curve" smooth="yes"/>
      <point x="510" y="2"/>
      <point x="520" y="0"/>
      <point x="532" y="0" type="curve" smooth="yes"/>
      <point x="591" y="0" type="line"/>
      <point x="653" y="0" type="line"/>
      <point x="667" y="0" type="line"/>
      <point x="667" y="59" type="line" smooth="yes"/>
      <point x="667" y="76"/>
      <point x="659" y="86"/>
      <point x="642" y="90" type="curve"/>
    </contour>
    <contour>
      <point x="354" y="383"/>
      <point x="332" y="379"/>
      <point x="307" y="379" type="curve" smooth="yes"/>
      <point x="230" y="379" type="line"/>
      <point x="230" y="619" type="line"/>
      <point x="309" y="619" type="line" smooth="yes"/>
      <point x="359" y="619"/>
      <point x="396" y="610"/>
      <point x="420" y="590" type="curve" smooth="yes"/>
      <point x="444" y="570"/>
      <point x="456" y="542"/>
      <point x="456" y="505" type="curve" smooth="yes"/>
      <point x="456" y="487"/>
      <point x="453" y="470"/>
      <point x="447" y="455" type="curve" smooth="yes"/>
      <point x="441" y="440"/>
      <point x="432" y="426"/>
      <point x="420" y="415" type="curve" smooth="yes"/>
      <point x="408" y="404"/>
      <point x="392" y="395"/>
      <point x="373" y="389" type="curve" smooth="yes"/>
    </contour>
    <contour>
      <point x="343" y="723" type="move" name="top"/>
    </contour>
    <contour>
      <point x="343" y="0" type="move" name="bottom"/>
    </contour>
  </outline>
</glyph>
<glyph name="T" format="1">
  <advance width="633"/>
  <unicode hex="0054"/>
  <note>
    T
  </note>
  <outline>
    <contour>
      <point x="601" y="723" type="line"/>
      <point x="601" y="723" type="line"/>
      <point x="32" y="723" type="line"/>
      <point x="31" y="723" type="line"/>
      <point x="16" y="723" type="line"/>
      <point x="16" y="552" type="line"/>
      <point x="20" y="552" type="line"/>
      <point x="32" y="552" type="line"/>
      <point x="74" y="552" type="line" smooth="yes"/>
      <point x="87" y="552"/>
      <point x="94" y="559"/>
      <point x="97" y="571" type="curve"/>
      <point x="98" y="577"/>
      <point x="100" y="591"/>
      <point x="102" y="613" type="curve"/>
      <point x="249" y="613" type="line"/>
      <point x="249" y="99" type="line"/>
      <point x="237" y="97"/>
      <point x="227" y="95"/>
      <point x="220" y="94" type="curve" smooth="yes"/>
      <point x="213" y="93"/>
      <point x="208" y="91"/>
      <point x="205" y="91" type="curve" smooth="yes"/>
      <point x="202" y="91"/>
      <point x="200" y="90"/>
      <point x="199" y="90" type="curve"/>
      <point x="182" y="86"/>
      <point x="174" y="76"/>
      <point x="174" y="59" type="curve" smooth="yes"/>
      <point x="174" y="0" type="line"/>
      <point x="249" y="0" type="line"/>
      <point x="384" y="0" type="line"/>
      <point x="460" y="0" type="line"/>
      <point x="460" y="59" type="line" smooth="yes"/>
      <point x="460" y="76"/>
      <point x="451" y="86"/>
      <point x="434" y="90" type="curve"/>
      <point x="433" y="90"/>
      <point x="431" y="91"/>
      <point x="428" y="91" type="curve" smooth="yes"/>
      <point x="425" y="91"/>
      <point x="420" y="93"/>
      <point x="413" y="94" type="curve" smooth="yes"/>
      <point x="406" y="95"/>
      <point x="396" y="97"/>
      <point x="384" y="99" type="curve"/>
      <point x="384" y="612" type="line"/>
      <point x="531" y="612" type="line"/>
      <point x="533" y="590"/>
      <point x="535" y="577"/>
      <point x="536" y="571" type="curve"/>
      <point x="539" y="559"/>
      <point x="547" y="552"/>
      <point x="560" y="552" type="curve" smooth="yes"/>
      <point x="601" y="552" type="line"/>
      <point x="613" y="552" type="line"/>
      <point x="617" y="552" type="line"/>
      <point x="617" y="723" type="line"/>
    </contour>
    <contour>
      <point x="317" y="362" type="move" name="center"/>
    </contour>
    <contour>
      <point x="317" y="0" type="move" name="bottom"/>
    </contour>
    <contour>
      <point x="317" y="723" type="move" name="top"/>
    </contour>
  </outline>
</glyph>
<glyph name="V" format="1">
  <advance width="807"/>
  <unicode hex="0056"/>
  <note>
    V
  </note>
  <outline>
    <contour>
      <point x="756" y="723" type="line"/>
      <point x="715" y="723" type="line"/>
      <point x="648" y="723" type="line"/>
      <point x="520" y="723" type="line"/>
      <point x="520" y="664" type="line" smooth="yes"/>
      <point x="520" y="647"/>
      <point x="528" y="637"/>
      <point x="545" y="633" type="curve"/>
      <point x="546" y="633"/>
      <point x="548" y="633"/>
      <point x="550" y="632" type="curve" smooth="yes"/>
      <point x="552" y="631"/>
      <point x="556" y="630"/>
      <point x="561" y="629" type="curve" smooth="yes"/>
      <point x="566" y="628"/>
      <point x="571" y="626"/>
      <point x="577" y="625" type="curve"/>
      <point x="434" y="251" type="line" smooth="yes"/>
      <point x="423" y="222"/>
      <point x="413" y="188"/>
      <point x="405" y="150" type="curve"/>
      <point x="400" y="169"/>
      <point x="395" y="187"/>
      <point x="390" y="204" type="curve" smooth="yes"/>
      <point x="385" y="221"/>
      <point x="380" y="237"/>
      <point x="374" y="251" type="curve"/>
      <point x="230" y="625" type="line"/>
      <point x="236" y="626"/>
      <point x="241" y="628"/>
      <point x="246" y="629" type="curve" smooth="yes"/>
      <point x="251" y="630"/>
      <point x="254" y="631"/>
      <point x="256" y="632" type="curve" smooth="yes"/>
      <point x="258" y="633"/>
      <point x="260" y="633"/>
      <point x="261" y="633" type="curve"/>
      <point x="278" y="637"/>
      <point x="286" y="647"/>
      <point x="286" y="664" type="curve" smooth="yes"/>
      <point x="286" y="723" type="line"/>
      <point x="159" y="723" type="line"/>
      <point x="92" y="723" type="line"/>
      <point x="51" y="723" type="line"/>
      <point x="16" y="723" type="line"/>
      <point x="16" y="664" type="line" smooth="yes"/>
      <point x="16" y="647"/>
      <point x="24" y="637"/>
      <point x="41" y="633" type="curve"/>
      <point x="43" y="633"/>
      <point x="44" y="633"/>
      <point x="47" y="632" type="curve"/>
      <point x="50" y="632"/>
      <point x="55" y="630"/>
      <point x="62" y="629" type="curve" smooth="yes"/>
      <point x="69" y="628"/>
      <point x="78" y="626"/>
      <point x="90" y="624" type="curve"/>
      <point x="343" y="0" type="line"/>
      <point x="464" y="0" type="line"/>
      <point x="716" y="624" type="line"/>
      <point x="728" y="626"/>
      <point x="738" y="628"/>
      <point x="745" y="629" type="curve" smooth="yes"/>
      <point x="752" y="630"/>
      <point x="756" y="632"/>
      <point x="759" y="632" type="curve" smooth="yes"/>
      <point x="762" y="632"/>
      <point x="763" y="633"/>
      <point x="765" y="633" type="curve"/>
      <point x="782" y="637"/>
      <point x="790" y="647"/>
      <point x="790" y="664" type="curve" smooth="yes"/>
      <point x="790" y="723" type="line"/>
    </contour>
    <contour>
      <point x="404" y="723" type="move" name="top"/>
    </contour>
    <contour>
      <point x="404" y="0" type="move" name="bottom"/>
    </contour>
  </outline>
</glyph>
<glyph name="W" format="1">
  <advance width="1133"/>
  <unicode hex="0057"/>
  <note>
    W
  </note>
  <outline>
    <contour>
      <point x="1084" y="723" type="line"/>
      <point x="1042" y="723" type="line"/>
      <point x="978" y="723" type="line"/>
      <point x="848" y="723" type="line"/>
      <point x="848" y="664" type="line" smooth="yes"/>
      <point x="848" y="647"/>
      <point x="856" y="637"/>
      <point x="873" y="633" type="curve" smooth="yes"/>
      <point x="890" y="629"/>
      <point x="904" y="626"/>
      <point x="914" y="624" type="curve"/>
      <point x="811" y="260" type="line" smooth="yes"/>
      <point x="808" y="250"/>
      <point x="805" y="238"/>
      <point x="803" y="226" type="curve"/>
      <point x="800" y="214"/>
      <point x="798" y="202"/>
      <point x="796" y="189" type="curve"/>
      <point x="791" y="215"/>
      <point x="784" y="239"/>
      <point x="777" y="260" type="curve" smooth="yes"/>
      <point x="636" y="692" type="line" smooth="yes"/>
      <point x="633" y="701"/>
      <point x="628" y="709"/>
      <point x="620" y="715" type="curve" smooth="yes"/>
      <point x="612" y="721"/>
      <point x="603" y="723"/>
      <point x="591" y="723" type="curve" smooth="yes"/>
      <point x="551" y="723" type="line" smooth="yes"/>
      <point x="540" y="723"/>
      <point x="531" y="719"/>
      <point x="523" y="713" type="curve" smooth="yes"/>
      <point x="515" y="707"/>
      <point x="510" y="700"/>
      <point x="507" y="692" type="curve"/>
      <point x="365" y="260" type="line" smooth="yes"/>
      <point x="361" y="249"/>
      <point x="358" y="238"/>
      <point x="355" y="225" type="curve" smooth="yes"/>
      <point x="352" y="213"/>
      <point x="349" y="199"/>
      <point x="346" y="185" type="curve"/>
      <point x="344" y="199"/>
      <point x="341" y="213"/>
      <point x="339" y="225" type="curve"/>
      <point x="336" y="237"/>
      <point x="333" y="249"/>
      <point x="330" y="260" type="curve" smooth="yes"/>
      <point x="227" y="625" type="line"/>
      <point x="233" y="627"/>
      <point x="239" y="628"/>
      <point x="244" y="629" type="curve" smooth="yes"/>
      <point x="249" y="630"/>
      <point x="253" y="631"/>
      <point x="255" y="632" type="curve" smooth="yes"/>
      <point x="257" y="633"/>
      <point x="259" y="633"/>
      <point x="260" y="633" type="curve"/>
      <point x="277" y="637"/>
      <point x="285" y="647"/>
      <point x="285" y="664" type="curve" smooth="yes"/>
      <point x="285" y="723" type="line"/>
      <point x="162" y="723" type="line"/>
      <point x="91" y="723" type="line"/>
      <point x="50" y="723" type="line"/>
      <point x="15" y="723" type="line"/>
      <point x="15" y="664" type="line" smooth="yes"/>
      <point x="15" y="647"/>
      <point x="23" y="637"/>
      <point x="40" y="633" type="curve"/>
      <point x="41" y="633"/>
      <point x="44" y="632"/>
      <point x="51" y="631" type="curve" smooth="yes"/>
      <point x="58" y="630"/>
      <point x="68" y="628"/>
      <point x="80" y="626" type="curve"/>
      <point x="274" y="0" type="line"/>
      <point x="395" y="0" type="line"/>
      <point x="555" y="494" type="line" smooth="yes"/>
      <point x="557" y="500"/>
      <point x="559" y="506"/>
      <point x="561" y="514" type="curve" smooth="yes"/>
      <point x="563" y="521"/>
      <point x="565" y="530"/>
      <point x="567" y="538" type="curve"/>
      <point x="569" y="530"/>
      <point x="572" y="521"/>
      <point x="574" y="514" type="curve" smooth="yes"/>
      <point x="576" y="507"/>
      <point x="578" y="500"/>
      <point x="580" y="494" type="curve" smooth="yes"/>
      <point x="738" y="0" type="line"/>
      <point x="859" y="0" type="line"/>
      <point x="1054" y="626" type="line"/>
      <point x="1066" y="628"/>
      <point x="1075" y="630"/>
      <point x="1082" y="631" type="curve" smooth="yes"/>
      <point x="1089" y="632"/>
      <point x="1092" y="633"/>
      <point x="1093" y="633" type="curve"/>
      <point x="1110" y="637"/>
      <point x="1118" y="647"/>
      <point x="1118" y="664" type="curve" smooth="yes"/>
      <point x="1118" y="723" type="line"/>
    </contour>
    <contour>
      <point x="567" y="723" type="move" name="top"/>
    </contour>
    <contour>
      <point x="567" y="0" type="move" name="bottom"/>
    </contour>
  </outline>
</glyph>
<glyph name="Y" format="1">
  <advance width="726"/>
  <unicode hex="0059"/>
  <note>
    Y
  </note>
  <outline>
    <contour>
      <point x="694" y="723" type="line"/>
      <point x="676" y="723" type="line"/>
      <point x="634" y="723" type="line"/>
      <point x="575" y="723" type="line"/>
      <point x="440" y="723" type="line"/>
      <point x="440" y="664" type="line" smooth="yes"/>
      <point x="440" y="647"/>
      <point x="448" y="637"/>
      <point x="465" y="633" type="curve"/>
      <point x="466" y="633"/>
      <point x="468" y="633"/>
      <point x="470" y="632" type="curve"/>
      <point x="472" y="632"/>
      <point x="475" y="630"/>
      <point x="479" y="629" type="curve" smooth="yes"/>
      <point x="483" y="628"/>
      <point x="489" y="627"/>
      <point x="494" y="626" type="curve"/>
      <point x="399" y="451" type="line" smooth="yes"/>
      <point x="391" y="437"/>
      <point x="385" y="424"/>
      <point x="379" y="411" type="curve" smooth="yes"/>
      <point x="373" y="398"/>
      <point x="368" y="386"/>
      <point x="364" y="373" type="curve"/>
      <point x="359" y="385"/>
      <point x="355" y="398"/>
      <point x="349" y="411" type="curve" smooth="yes"/>
      <point x="343" y="424"/>
      <point x="337" y="437"/>
      <point x="329" y="451" type="curve" smooth="yes"/>
      <point x="233" y="626" type="line"/>
      <point x="238" y="627"/>
      <point x="243" y="628"/>
      <point x="247" y="629" type="curve" smooth="yes"/>
      <point x="251" y="630"/>
      <point x="255" y="631"/>
      <point x="257" y="632" type="curve"/>
      <point x="259" y="632"/>
      <point x="260" y="633"/>
      <point x="261" y="633" type="curve"/>
      <point x="278" y="637"/>
      <point x="286" y="647"/>
      <point x="286" y="664" type="curve" smooth="yes"/>
      <point x="286" y="723" type="line"/>
      <point x="151" y="723" type="line"/>
      <point x="92" y="723" type="line"/>
      <point x="51" y="723" type="line"/>
      <point x="33" y="723" type="line"/>
      <point x="16" y="723" type="line"/>
      <point x="16" y="664" type="line" smooth="yes"/>
      <point x="16" y="647"/>
      <point x="24" y="637"/>
      <point x="41" y="633" type="curve"/>
      <point x="42" y="633"/>
      <point x="44" y="633"/>
      <point x="47" y="632" type="curve"/>
      <point x="50" y="632"/>
      <point x="55" y="630"/>
      <point x="62" y="629" type="curve" smooth="yes"/>
      <point x="69" y="628"/>
      <point x="80" y="626"/>
      <point x="92" y="624" type="curve"/>
      <point x="296" y="281" type="line"/>
      <point x="296" y="99" type="line"/>
      <point x="284" y="97"/>
      <point x="274" y="95"/>
      <point x="267" y="94" type="curve" smooth="yes"/>
      <point x="260" y="93"/>
      <point x="255" y="92"/>
      <point x="252" y="91" type="curve" smooth="yes"/>
      <point x="249" y="90"/>
      <point x="246" y="90"/>
      <point x="245" y="90" type="curve"/>
      <point x="228" y="86"/>
      <point x="220" y="76"/>
      <point x="220" y="59" type="curve" smooth="yes"/>
      <point x="220" y="0" type="line"/>
      <point x="296" y="0" type="line"/>
      <point x="431" y="0" type="line"/>
      <point x="506" y="0" type="line"/>
      <point x="506" y="59" type="line" smooth="yes"/>
      <point x="506" y="76"/>
      <point x="498" y="86"/>
      <point x="481" y="90" type="curve"/>
      <point x="480" y="90"/>
      <point x="478" y="91"/>
      <point x="475" y="91" type="curve" smooth="yes"/>
      <point x="472" y="91"/>
      <point x="467" y="93"/>
      <point x="460" y="94" type="curve" smooth="yes"/>
      <point x="453" y="95"/>
      <point x="443" y="97"/>
      <point x="431" y="99" type="curve"/>
      <point x="431" y="281" type="line"/>
      <point x="635" y="624" type="line"/>
      <point x="647" y="626"/>
      <point x="657" y="628"/>
      <point x="664" y="629" type="curve" smooth="yes"/>
      <point x="671" y="630"/>
      <point x="676" y="632"/>
      <point x="679" y="632" type="curve" smooth="yes"/>
      <point x="682" y="632"/>
      <point x="683" y="633"/>
      <point x="685" y="633" type="curve"/>
      <point x="702" y="637"/>
      <point x="710" y="647"/>
      <point x="710" y="664" type="curve" smooth="yes"/>
      <point x="710" y="723" type="line"/>
    </contour>
    <contour>
      <point x="363" y="723" type="move" name="top"/>
    </contour>
    <contour>
      <point x="363" y="0" type="move" name="bottom"/>
    </contour>
    <contour>
      <point x="20" y="723" type="move" name="topleft"/>
    </contour>
  </outline>
</glyph>
<glyph name="bracketleft" format="1">
  <advance width="248"/>
  <unicode hex="005B"/>
  <note>
    bracketleft
  </note>
  <outline>
    <contour>
      <point x="28" y="-154" type="line"/>
      <point x="232" y="-154" type="line"/>
      <point x="232" y="-106" type="line" smooth="yes"/>
      <point x="232" y="-97"/>
      <point x="229" y="-89"/>
      <point x="223" y="-83" type="curve" smooth="yes"/>
      <point x="217" y="-77"/>
      <point x="210" y="-74"/>
      <point x="200" y="-74" type="curve" smooth="yes"/>
      <point x="130" y="-74" type="line"/>
      <point x="130" y="694" type="line"/>
      <point x="200" y="694" type="line" smooth="yes"/>
      <point x="210" y="694"/>
      <point x="217" y="697"/>
      <point x="223" y="703" type="curve" smooth="yes"/>
      <point x="229" y="709"/>
      <point x="232" y="716"/>
      <point x="232" y="725" type="curve" smooth="yes"/>
      <point x="232" y="774" type="line"/>
      <point x="28" y="774" type="line"/>
    </contour>
  </outline>
</glyph>
<glyph name="grave" format="1">
  <advance width="279"/>
  <unicode hex="0060"/>
  <note>
    grave
  </note>
  <outline>
    <contour>
      <point x="22" y="731" type="line"/>
      <point x="146" y="600" type="line"/>
      <point x="152" y="593"/>
      <point x="158" y="590"/>
      <point x="164" y="587" type="curve"/>
      <point x="170" y="585"/>
      <point x="177" y="583"/>
      <point x="186" y="583" type="curve" smooth="yes"/>
      <point x="257" y="583" type="line"/>
      <point x="186" y="704" type="line" smooth="yes"/>
      <point x="181" y="713"/>
      <point x="174" y="720"/>
      <point x="168" y="724" type="curve" smooth="yes"/>
      <point x="162" y="728"/>
      <point x="152" y="731"/>
      <point x="138" y="731" type="curve" smooth="yes"/>
    </contour>
  </outline>
</glyph>
<glyph name="a" format="1">
  <advance width="521"/>
  <unicode hex="0061"/>
  <note>
    a
  </note>
  <outline>
    <contour>
      <point x="477" y="91"/>
      <point x="473" y="92"/>
      <point x="467" y="93" type="curve" smooth="yes"/>
      <point x="461" y="94"/>
      <point x="451" y="96"/>
      <point x="440" y="98" type="curve"/>
      <point x="440" y="325" type="line" smooth="yes"/>
      <point x="440" y="354"/>
      <point x="436" y="381"/>
      <point x="428" y="405" type="curve" smooth="yes"/>
      <point x="420" y="429"/>
      <point x="406" y="450"/>
      <point x="390" y="468" type="curve" smooth="yes"/>
      <point x="374" y="485"/>
      <point x="354" y="499"/>
      <point x="331" y="509" type="curve" smooth="yes"/>
      <point x="307" y="519"/>
      <point x="280" y="524"/>
      <point x="250" y="524" type="curve" smooth="yes"/>
      <point x="167" y="524"/>
      <point x="96" y="496"/>
      <point x="37" y="442" type="curve"/>
      <point x="60" y="403" type="line"/>
      <point x="64" y="397"/>
      <point x="68" y="391"/>
      <point x="74" y="387" type="curve" smooth="yes"/>
      <point x="80" y="383"/>
      <point x="88" y="381"/>
      <point x="96" y="381" type="curve" smooth="yes"/>
      <point x="106" y="381"/>
      <point x="115" y="383"/>
      <point x="123" y="388" type="curve" smooth="yes"/>
      <point x="131" y="393"/>
      <point x="140" y="397"/>
      <point x="150" y="403" type="curve" smooth="yes"/>
      <point x="160" y="409"/>
      <point x="172" y="414"/>
      <point x="185" y="419" type="curve" smooth="yes"/>
      <point x="198" y="424"/>
      <point x="215" y="426"/>
      <point x="235" y="426" type="curve" smooth="yes"/>
      <point x="263" y="426"/>
      <point x="284" y="418"/>
      <point x="298" y="401" type="curve" smooth="yes"/>
      <point x="312" y="384"/>
      <point x="320" y="359"/>
      <point x="320" y="324" type="curve" smooth="yes"/>
      <point x="320" y="294" type="line"/>
      <point x="262" y="294"/>
      <point x="212" y="289"/>
      <point x="173" y="279" type="curve" smooth="yes"/>
      <point x="134" y="269"/>
      <point x="103" y="256"/>
      <point x="79" y="241" type="curve" smooth="yes"/>
      <point x="55" y="226"/>
      <point x="38" y="209"/>
      <point x="28" y="190" type="curve" smooth="yes"/>
      <point x="18" y="171"/>
      <point x="13" y="151"/>
      <point x="13" y="132" type="curve" smooth="yes"/>
      <point x="13" y="109"/>
      <point x="17" y="89"/>
      <point x="24" y="72" type="curve" smooth="yes"/>
      <point x="31" y="55"/>
      <point x="42" y="40"/>
      <point x="55" y="28" type="curve" smooth="yes"/>
      <point x="68" y="16"/>
      <point x="84" y="8"/>
      <point x="102" y="2" type="curve" smooth="yes"/>
      <point x="120" y="-4"/>
      <point x="140" y="-7"/>
      <point x="162" y="-7" type="curve" smooth="yes"/>
      <point x="180" y="-7"/>
      <point x="197" y="-5"/>
      <point x="212" y="-2" type="curve" smooth="yes"/>
      <point x="227" y="1"/>
      <point x="241" y="5"/>
      <point x="254" y="11" type="curve" smooth="yes"/>
      <point x="267" y="17"/>
      <point x="281" y="24"/>
      <point x="293" y="33" type="curve"/>
      <point x="306" y="42"/>
      <point x="318" y="52"/>
      <point x="331" y="64" type="curve"/>
      <point x="342" y="28" type="line" smooth="yes"/>
      <point x="345" y="17"/>
      <point x="350" y="9"/>
      <point x="357" y="6" type="curve"/>
      <point x="364" y="2"/>
      <point x="373" y="1"/>
      <point x="385" y="1" type="curve" smooth="yes"/>
      <point x="427" y="1" type="line"/>
      <point x="440" y="1" type="line"/>
      <point x="503" y="1" type="line"/>
      <point x="503" y="60" type="line" smooth="yes"/>
      <point x="503" y="77"/>
      <point x="495" y="87"/>
      <point x="478" y="91" type="curve"/>
    </contour>
    <contour>
      <point x="320" y="133" type="line"/>
      <point x="311" y="124"/>
      <point x="302" y="116"/>
      <point x="293" y="109" type="curve" smooth="yes"/>
      <point x="284" y="102"/>
      <point x="275" y="97"/>
      <point x="266" y="92" type="curve" smooth="yes"/>
      <point x="257" y="87"/>
      <point x="246" y="83"/>
      <point x="235" y="81" type="curve" smooth="yes"/>
      <point x="224" y="79"/>
      <point x="213" y="78"/>
      <point x="200" y="78" type="curve" smooth="yes"/>
      <point x="179" y="78"/>
      <point x="163" y="83"/>
      <point x="150" y="92" type="curve" smooth="yes"/>
      <point x="137" y="101"/>
      <point x="131" y="117"/>
      <point x="131" y="139" type="curve" smooth="yes"/>
      <point x="131" y="150"/>
      <point x="134" y="161"/>
      <point x="140" y="170" type="curve" smooth="yes"/>
      <point x="146" y="179"/>
      <point x="156" y="187"/>
      <point x="171" y="194" type="curve" smooth="yes"/>
      <point x="186" y="201"/>
      <point x="206" y="207"/>
      <point x="230" y="212" type="curve" smooth="yes"/>
      <point x="254" y="217"/>
      <point x="284" y="219"/>
      <point x="320" y="219" type="curve"/>
    </contour>
    <contour>
      <point x="469" y="10" type="move" name="ogonek"/>
    </contour>
    <contour>
      <point x="261" y="0" type="move" name="bottom"/>
    </contour>
    <contour>
      <point x="261" y="513" type="move" name="top"/>
    </contour>
  </outline>
</glyph>
<glyph name="b" format="1">
  <advance width="581"/>
  <unicode hex="0062"/>
  <note>
    b
  </note>
  <outline>
    <contour>
      <point x="543" y="404"/>
      <point x="530" y="432"/>
      <point x="513" y="454" type="curve" smooth="yes"/>
      <point x="496" y="476"/>
      <point x="476" y="493"/>
      <point x="453" y="504" type="curve" smooth="yes"/>
      <point x="430" y="516"/>
      <point x="404" y="521"/>
      <point x="376" y="521" type="curve" smooth="yes"/>
      <point x="342" y="521"/>
      <point x="312" y="515"/>
      <point x="286" y="502" type="curve" smooth="yes"/>
      <point x="260" y="489"/>
      <point x="237" y="472"/>
      <point x="217" y="450" type="curve"/>
      <point x="217" y="743" type="line"/>
      <point x="94" y="743" type="line"/>
      <point x="14" y="743" type="line"/>
      <point x="14" y="684" type="line" smooth="yes"/>
      <point x="14" y="667"/>
      <point x="22" y="657"/>
      <point x="39" y="653" type="curve"/>
      <point x="40" y="653"/>
      <point x="43" y="652"/>
      <point x="46" y="652" type="curve" smooth="yes"/>
      <point x="49" y="652"/>
      <point x="55" y="650"/>
      <point x="63" y="649" type="curve" smooth="yes"/>
      <point x="71" y="648"/>
      <point x="82" y="646"/>
      <point x="94" y="644" type="curve"/>
      <point x="94" y="181" type="line"/>
      <point x="94" y="21" type="line"/>
      <point x="188" y="2"/>
      <point x="271" y="-7"/>
      <point x="345" y="-7" type="curve" smooth="yes"/>
      <point x="379" y="-7"/>
      <point x="409" y="-1"/>
      <point x="436" y="13" type="curve" smooth="yes"/>
      <point x="463" y="26"/>
      <point x="487" y="45"/>
      <point x="506" y="69" type="curve" smooth="yes"/>
      <point x="525" y="93"/>
      <point x="540" y="121"/>
      <point x="550" y="154" type="curve" smooth="yes"/>
      <point x="560" y="187"/>
      <point x="566" y="223"/>
      <point x="566" y="261" type="curve" smooth="yes"/>
      <point x="566" y="303"/>
      <point x="561" y="340"/>
      <point x="552" y="372" type="curve" smooth="yes"/>
    </contour>
    <contour>
      <point x="424" y="161"/>
      <point x="415" y="143"/>
      <point x="405" y="129" type="curve" smooth="yes"/>
      <point x="395" y="115"/>
      <point x="382" y="104"/>
      <point x="367" y="97" type="curve" smooth="yes"/>
      <point x="352" y="90"/>
      <point x="336" y="87"/>
      <point x="317" y="87" type="curve" smooth="yes"/>
      <point x="284" y="87"/>
      <point x="250" y="90"/>
      <point x="217" y="96" type="curve"/>
      <point x="217" y="363" type="line"/>
      <point x="233" y="383"/>
      <point x="250" y="398"/>
      <point x="268" y="409" type="curve" smooth="yes"/>
      <point x="286" y="420"/>
      <point x="308" y="425"/>
      <point x="334" y="425" type="curve" smooth="yes"/>
      <point x="350" y="425"/>
      <point x="364" y="422"/>
      <point x="377" y="416" type="curve" smooth="yes"/>
      <point x="390" y="410"/>
      <point x="401" y="401"/>
      <point x="410" y="388" type="curve" smooth="yes"/>
      <point x="419" y="375"/>
      <point x="426" y="358"/>
      <point x="431" y="337" type="curve" smooth="yes"/>
      <point x="436" y="316"/>
      <point x="438" y="291"/>
      <point x="438" y="261" type="curve" smooth="yes"/>
      <point x="438" y="231"/>
      <point x="436" y="205"/>
      <point x="430" y="183" type="curve" smooth="yes"/>
    </contour>
    <contour>
      <point x="291" y="513" type="move" name="top"/>
    </contour>
    <contour>
      <point x="291" y="0" type="move" name="bottom"/>
    </contour>
  </outline>
</glyph>
<glyph name="f" format="1">
  <advance width="368"/>
  <unicode hex="0066"/>
  <note>
    f
  </note>
  <outline>
    <contour>
      <point x="224" y="603"/>
      <point x="230" y="613"/>
      <point x="238" y="621" type="curve" smooth="yes"/>
      <point x="246" y="629"/>
      <point x="256" y="635"/>
      <point x="267" y="638" type="curve" smooth="yes"/>
      <point x="278" y="641"/>
      <point x="291" y="642"/>
      <point x="306" y="642" type="curve" smooth="yes"/>
      <point x="317" y="642"/>
      <point x="327" y="644"/>
      <point x="335" y="646" type="curve" smooth="yes"/>
      <point x="343" y="648"/>
      <point x="348" y="654"/>
      <point x="349" y="664" type="curve"/>
      <point x="351" y="726" type="line"/>
      <point x="331" y="732"/>
      <point x="309" y="735"/>
      <point x="285" y="735" type="curve" smooth="yes"/>
      <point x="255" y="735"/>
      <point x="229" y="731"/>
      <point x="205" y="722" type="curve" smooth="yes"/>
      <point x="181" y="713"/>
      <point x="162" y="701"/>
      <point x="145" y="685" type="curve" smooth="yes"/>
      <point x="128" y="669"/>
      <point x="116" y="648"/>
      <point x="107" y="625" type="curve" smooth="yes"/>
      <point x="98" y="602"/>
      <point x="94" y="575"/>
      <point x="94" y="546" type="curve" smooth="yes"/>
      <point x="94" y="508" type="line"/>
      <point x="18" y="508" type="line"/>
      <point x="18" y="458" type="line" smooth="yes"/>
      <point x="18" y="449"/>
      <point x="20" y="442"/>
      <point x="26" y="437" type="curve" smooth="yes"/>
      <point x="32" y="432"/>
      <point x="40" y="429"/>
      <point x="50" y="427" type="curve"/>
      <point x="94" y="420" type="line"/>
      <point x="94" y="99" type="line"/>
      <point x="82" y="97"/>
      <point x="72" y="95"/>
      <point x="65" y="94" type="curve" smooth="yes"/>
      <point x="58" y="93"/>
      <point x="53" y="92"/>
      <point x="50" y="91" type="curve" smooth="yes"/>
      <point x="47" y="90"/>
      <point x="44" y="90"/>
      <point x="43" y="90" type="curve"/>
      <point x="26" y="86"/>
      <point x="18" y="76"/>
      <point x="18" y="59" type="curve" smooth="yes"/>
      <point x="18" y="0" type="line"/>
      <point x="94" y="0" type="line"/>
      <point x="217" y="0" type="line"/>
      <point x="218" y="0" type="line"/>
      <point x="299" y="0" type="line"/>
      <point x="299" y="59" type="line" smooth="yes"/>
      <point x="299" y="76"/>
      <point x="291" y="86"/>
      <point x="274" y="90" type="curve"/>
      <point x="273" y="90"/>
      <point x="270" y="91"/>
      <point x="266" y="91" type="curve" smooth="yes"/>
      <point x="262" y="91"/>
      <point x="256" y="93"/>
      <point x="248" y="94" type="curve" smooth="yes"/>
      <point x="240" y="95"/>
      <point x="230" y="97"/>
      <point x="218" y="99" type="curve"/>
      <point x="218" y="421" type="line"/>
      <point x="347" y="421" type="line"/>
      <point x="347" y="509" type="line"/>
      <point x="213" y="509" type="line"/>
      <point x="213" y="543" type="line" smooth="yes"/>
      <point x="213" y="562"/>
      <point x="216" y="577"/>
      <point x="220" y="590" type="curve" smooth="yes"/>
    </contour>
    <contour>
      <point x="184" y="513" type="move" name="top"/>
    </contour>
    <contour>
      <point x="184" y="0" type="move" name="bottom"/>
    </contour>
  </outline>
</glyph>
<glyph name="g" format="1">
  <advance width="516"/>
  <unicode hex="0067"/>
  <note>
    g
  </note>
  <outline>
    <contour>
      <point x="210" y="522"/>
      <point x="182" y="518"/>
      <point x="157" y="510" type="curve" smooth="yes"/>
      <point x="132" y="502"/>
      <point x="111" y="491"/>
      <point x="93" y="477" type="curve" smooth="yes"/>
      <point x="75" y="463"/>
      <point x="60" y="445"/>
      <point x="50" y="425" type="curve" smooth="yes"/>
      <point x="40" y="405"/>
      <point x="35" y="381"/>
      <point x="35" y="356" type="curve" smooth="yes"/>
      <point x="35" y="325"/>
      <point x="42" y="297"/>
      <point x="57" y="274" type="curve" smooth="yes"/>
      <point x="72" y="251"/>
      <point x="93" y="232"/>
      <point x="119" y="218" type="curve"/>
      <point x="108" y="212"/>
      <point x="97" y="206"/>
      <point x="89" y="199" type="curve" smooth="yes"/>
      <point x="81" y="192"/>
      <point x="74" y="184"/>
      <point x="68" y="176" type="curve" smooth="yes"/>
      <point x="62" y="168"/>
      <point x="59" y="160"/>
      <point x="56" y="152" type="curve" smooth="yes"/>
      <point x="53" y="144"/>
      <point x="52" y="136"/>
      <point x="52" y="128" type="curve" smooth="yes"/>
      <point x="52" y="109"/>
      <point x="56" y="94"/>
      <point x="64" y="82" type="curve" smooth="yes"/>
      <point x="72" y="70"/>
      <point x="81" y="61"/>
      <point x="94" y="54" type="curve"/>
      <point x="68" y="44"/>
      <point x="48" y="32"/>
      <point x="33" y="16" type="curve" smooth="yes"/>
      <point x="18" y="0"/>
      <point x="11" y="-21"/>
      <point x="11" y="-45" type="curve" smooth="yes"/>
      <point x="11" y="-63"/>
      <point x="16" y="-80"/>
      <point x="25" y="-96" type="curve" smooth="yes"/>
      <point x="34" y="-112"/>
      <point x="48" y="-127"/>
      <point x="67" y="-139" type="curve" smooth="yes"/>
      <point x="86" y="-151"/>
      <point x="109" y="-161"/>
      <point x="138" y="-169" type="curve" smooth="yes"/>
      <point x="167" y="-177"/>
      <point x="201" y="-180"/>
      <point x="240" y="-180" type="curve" smooth="yes"/>
      <point x="279" y="-180"/>
      <point x="314" y="-175"/>
      <point x="345" y="-165" type="curve" smooth="yes"/>
      <point x="376" y="-155"/>
      <point x="402" y="-142"/>
      <point x="423" y="-125" type="curve" smooth="yes"/>
      <point x="444" y="-108"/>
      <point x="460" y="-89"/>
      <point x="471" y="-68" type="curve" smooth="yes"/>
      <point x="482" y="-47"/>
      <point x="488" y="-25"/>
      <point x="488" y="-2" type="curve" smooth="yes"/>
      <point x="488" y="22"/>
      <point x="484" y="42"/>
      <point x="474" y="58" type="curve" smooth="yes"/>
      <point x="464" y="74"/>
      <point x="452" y="85"/>
      <point x="436" y="94" type="curve" smooth="yes"/>
      <point x="420" y="103"/>
      <point x="404" y="110"/>
      <point x="384" y="114" type="curve" smooth="yes"/>
      <point x="364" y="118"/>
      <point x="344" y="121"/>
      <point x="323" y="123" type="curve" smooth="yes"/>
      <point x="302" y="125"/>
      <point x="283" y="125"/>
      <point x="263" y="126" type="curve"/>
      <point x="243" y="126"/>
      <point x="226" y="128"/>
      <point x="210" y="130" type="curve" smooth="yes"/>
      <point x="194" y="132"/>
      <point x="182" y="135"/>
      <point x="172" y="140" type="curve" smooth="yes"/>
      <point x="162" y="145"/>
      <point x="158" y="153"/>
      <point x="158" y="163" type="curve" smooth="yes"/>
      <point x="158" y="175"/>
      <point x="166" y="185"/>
      <point x="182" y="195" type="curve"/>
      <point x="200" y="191"/>
      <point x="220" y="190"/>
      <point x="239" y="190" type="curve" smooth="yes"/>
      <point x="268" y="190"/>
      <point x="294" y="194"/>
      <point x="318" y="202" type="curve" smooth="yes"/>
      <point x="342" y="210"/>
      <point x="364" y="221"/>
      <point x="382" y="235" type="curve" smooth="yes"/>
      <point x="400" y="249"/>
      <point x="414" y="267"/>
      <point x="424" y="287" type="curve" smooth="yes"/>
      <point x="434" y="307"/>
      <point x="439" y="331"/>
      <point x="439" y="356" type="curve" smooth="yes"/>
      <point x="439" y="367"/>
      <point x="438" y="376"/>
      <point x="436" y="386" type="curve" smooth="yes"/>
      <point x="434" y="396"/>
      <point x="432" y="405"/>
      <point x="429" y="414" type="curve"/>
      <point x="475" y="422" type="line" smooth="yes"/>
      <point x="485" y="424"/>
      <point x="491" y="427"/>
      <point x="495" y="431" type="curve" smooth="yes"/>
      <point x="499" y="435"/>
      <point x="501" y="441"/>
      <point x="501" y="449" type="curve" smooth="yes"/>
      <point x="501" y="495" type="line"/>
      <point x="354" y="495" type="line"/>
      <point x="338" y="504"/>
      <point x="320" y="511"/>
      <point x="301" y="515" type="curve" smooth="yes"/>
      <point x="282" y="519"/>
      <point x="261" y="522"/>
      <point x="239" y="522" type="curve" smooth="yes"/>
    </contour>
    <contour>
      <point x="374" y="-33"/>
      <point x="372" y="-43"/>
      <point x="367" y="-51" type="curve" smooth="yes"/>
      <point x="362" y="-59"/>
      <point x="354" y="-67"/>
      <point x="343" y="-73" type="curve" smooth="yes"/>
      <point x="332" y="-79"/>
      <point x="319" y="-83"/>
      <point x="302" y="-87" type="curve" smooth="yes"/>
      <point x="285" y="-91"/>
      <point x="265" y="-93"/>
      <point x="242" y="-93" type="curve" smooth="yes"/>
      <point x="219" y="-93"/>
      <point x="201" y="-91"/>
      <point x="185" y="-88" type="curve" smooth="yes"/>
      <point x="169" y="-85"/>
      <point x="156" y="-81"/>
      <point x="146" y="-75" type="curve" smooth="yes"/>
      <point x="136" y="-69"/>
      <point x="129" y="-62"/>
      <point x="125" y="-54" type="curve" smooth="yes"/>
      <point x="121" y="-46"/>
      <point x="118" y="-38"/>
      <point x="118" y="-29" type="curve" smooth="yes"/>
      <point x="118" y="-15"/>
      <point x="123" y="-3"/>
      <point x="131" y="7" type="curve" smooth="yes"/>
      <point x="139" y="17"/>
      <point x="151" y="26"/>
      <point x="165" y="34" type="curve"/>
      <point x="180" y="32"/>
      <point x="196" y="31"/>
      <point x="212" y="30" type="curve" smooth="yes"/>
      <point x="228" y="29"/>
      <point x="244" y="29"/>
      <point x="260" y="28" type="curve" smooth="yes"/>
      <point x="276" y="27"/>
      <point x="290" y="26"/>
      <point x="304" y="24" type="curve" smooth="yes"/>
      <point x="318" y="22"/>
      <point x="331" y="20"/>
      <point x="341" y="16" type="curve" smooth="yes"/>
      <point x="351" y="12"/>
      <point x="359" y="7"/>
      <point x="365" y="1" type="curve" smooth="yes"/>
      <point x="371" y="-5"/>
      <point x="374" y="-13"/>
      <point x="374" y="-23" type="curve" smooth="yes"/>
    </contour>
    <contour>
      <point x="224" y="269"/>
      <point x="211" y="271"/>
      <point x="199" y="275" type="curve" smooth="yes"/>
      <point x="187" y="279"/>
      <point x="178" y="285"/>
      <point x="170" y="293" type="curve" smooth="yes"/>
      <point x="162" y="301"/>
      <point x="157" y="309"/>
      <point x="153" y="319" type="curve" smooth="yes"/>
      <point x="149" y="329"/>
      <point x="148" y="341"/>
      <point x="148" y="353" type="curve" smooth="yes"/>
      <point x="148" y="378"/>
      <point x="155" y="398"/>
      <point x="170" y="413" type="curve" smooth="yes"/>
      <point x="185" y="428"/>
      <point x="209" y="435"/>
      <point x="239" y="435" type="curve" smooth="yes"/>
      <point x="269" y="435"/>
      <point x="292" y="428"/>
      <point x="307" y="413" type="curve" smooth="yes"/>
      <point x="322" y="398"/>
      <point x="330" y="378"/>
      <point x="330" y="353" type="curve" smooth="yes"/>
      <point x="330" y="341"/>
      <point x="328" y="329"/>
      <point x="324" y="319" type="curve" smooth="yes"/>
      <point x="320" y="309"/>
      <point x="315" y="299"/>
      <point x="307" y="292" type="curve"/>
      <point x="300" y="285"/>
      <point x="290" y="279"/>
      <point x="279" y="275" type="curve" smooth="yes"/>
      <point x="268" y="271"/>
      <point x="254" y="269"/>
      <point x="239" y="269" type="curve" smooth="yes"/>
    </contour>
    <contour>
      <point x="258" y="513" type="move" name="top"/>
    </contour>
    <contour>
      <point x="258" y="0" type="move" name="bottom"/>
    </contour>
  </outline>
</glyph>
<glyph name="h" format="1">
  <advance width="635"/>
  <unicode hex="0068"/>
  <note>
    h
  </note>
  <outline>
    <contour>
      <point x="591" y="90"/>
      <point x="589" y="90"/>
      <point x="586" y="91" type="curve" smooth="yes"/>
      <point x="583" y="92"/>
      <point x="578" y="93"/>
      <point x="571" y="94" type="curve" smooth="yes"/>
      <point x="564" y="95"/>
      <point x="554" y="97"/>
      <point x="542" y="99" type="curve"/>
      <point x="542" y="327" type="line" smooth="yes"/>
      <point x="542" y="356"/>
      <point x="537" y="381"/>
      <point x="530" y="405" type="curve"/>
      <point x="522" y="429"/>
      <point x="511" y="450"/>
      <point x="497" y="467" type="curve" smooth="yes"/>
      <point x="482" y="484"/>
      <point x="465" y="498"/>
      <point x="443" y="507" type="curve" smooth="yes"/>
      <point x="421" y="516"/>
      <point x="397" y="521"/>
      <point x="369" y="521" type="curve" smooth="yes"/>
      <point x="337" y="521"/>
      <point x="308" y="515"/>
      <point x="284" y="503" type="curve" smooth="yes"/>
      <point x="260" y="491"/>
      <point x="238" y="476"/>
      <point x="218" y="457" type="curve"/>
      <point x="218" y="743" type="line"/>
      <point x="95" y="743" type="line"/>
      <point x="19" y="743" type="line"/>
      <point x="19" y="684" type="line" smooth="yes"/>
      <point x="19" y="667"/>
      <point x="27" y="657"/>
      <point x="44" y="653" type="curve"/>
      <point x="45" y="653"/>
      <point x="47" y="652"/>
      <point x="50" y="652" type="curve" smooth="yes"/>
      <point x="53" y="652"/>
      <point x="58" y="650"/>
      <point x="65" y="649" type="curve" smooth="yes"/>
      <point x="72" y="648"/>
      <point x="83" y="646"/>
      <point x="95" y="644" type="curve"/>
      <point x="95" y="99" type="line"/>
      <point x="83" y="97"/>
      <point x="72" y="95"/>
      <point x="65" y="94" type="curve" smooth="yes"/>
      <point x="58" y="93"/>
      <point x="53" y="91"/>
      <point x="50" y="91" type="curve" smooth="yes"/>
      <point x="47" y="91"/>
      <point x="45" y="90"/>
      <point x="44" y="90" type="curve"/>
      <point x="27" y="86"/>
      <point x="19" y="76"/>
      <point x="19" y="59" type="curve" smooth="yes"/>
      <point x="19" y="0" type="line"/>
      <point x="95" y="0" type="line"/>
      <point x="218" y="0" type="line"/>
      <point x="294" y="0" type="line"/>
      <point x="294" y="59" type="line" smooth="yes"/>
      <point x="294" y="76"/>
      <point x="286" y="86"/>
      <point x="269" y="90" type="curve"/>
      <point x="268" y="90"/>
      <point x="266" y="90"/>
      <point x="263" y="91" type="curve"/>
      <point x="260" y="91"/>
      <point x="255" y="93"/>
      <point x="248" y="94" type="curve" smooth="yes"/>
      <point x="241" y="95"/>
      <point x="230" y="97"/>
      <point x="218" y="99" type="curve"/>
      <point x="218" y="371" type="line"/>
      <point x="235" y="388"/>
      <point x="252" y="400"/>
      <point x="271" y="410" type="curve" smooth="yes"/>
      <point x="290" y="420"/>
      <point x="310" y="425"/>
      <point x="331" y="425" type="curve" smooth="yes"/>
      <point x="360" y="425"/>
      <point x="382" y="416"/>
      <point x="396" y="399" type="curve" smooth="yes"/>
      <point x="411" y="382"/>
      <point x="418" y="357"/>
      <point x="418" y="326" type="curve" smooth="yes"/>
      <point x="418" y="0" type="line"/>
      <point x="542" y="0" type="line"/>
      <point x="617" y="0" type="line"/>
      <point x="617" y="59" type="line" smooth="yes"/>
      <point x="617" y="76"/>
      <point x="609" y="86"/>
      <point x="592" y="90" type="curve"/>
    </contour>
    <contour>
      <point x="318" y="257" type="move" name="center"/>
    </contour>
    <contour>
      <point x="318" y="0" type="move" name="bottom"/>
    </contour>
    <contour>
      <point x="318" y="513" type="move" name="top"/>
    </contour>
  </outline>
</glyph>
<glyph name="j" format="1">
  <advance width="270"/>
  <unicode hex="006A"/>
  <note>
    j
  </note>
  <outline>
    <contour>
      <point x="246" y="703"/>
      <point x="239" y="711"/>
      <point x="232" y="718" type="curve" smooth="yes"/>
      <point x="225" y="725"/>
      <point x="217" y="731"/>
      <point x="207" y="735" type="curve" smooth="yes"/>
      <point x="197" y="739"/>
      <point x="187" y="741"/>
      <point x="176" y="741" type="curve" smooth="yes"/>
      <point x="165" y="741"/>
      <point x="155" y="739"/>
      <point x="146" y="735" type="curve"/>
      <point x="136" y="731"/>
      <point x="128" y="725"/>
      <point x="121" y="718" type="curve" smooth="yes"/>
      <point x="114" y="711"/>
      <point x="108" y="703"/>
      <point x="104" y="693" type="curve" smooth="yes"/>
      <point x="100" y="683"/>
      <point x="98" y="673"/>
      <point x="98" y="662" type="curve" smooth="yes"/>
      <point x="98" y="651"/>
      <point x="100" y="641"/>
      <point x="104" y="632" type="curve" smooth="yes"/>
      <point x="108" y="623"/>
      <point x="114" y="615"/>
      <point x="121" y="608" type="curve" smooth="yes"/>
      <point x="128" y="601"/>
      <point x="137" y="595"/>
      <point x="146" y="591" type="curve" smooth="yes"/>
      <point x="155" y="587"/>
      <point x="165" y="585"/>
      <point x="176" y="585" type="curve" smooth="yes"/>
      <point x="187" y="585"/>
      <point x="197" y="587"/>
      <point x="207" y="591" type="curve" smooth="yes"/>
      <point x="217" y="595"/>
      <point x="225" y="601"/>
      <point x="232" y="608" type="curve" smooth="yes"/>
      <point x="239" y="615"/>
      <point x="246" y="623"/>
      <point x="250" y="632" type="curve" smooth="yes"/>
      <point x="254" y="641"/>
      <point x="256" y="651"/>
      <point x="256" y="662" type="curve" smooth="yes"/>
      <point x="256" y="673"/>
      <point x="254" y="683"/>
      <point x="250" y="693" type="curve" smooth="yes"/>
    </contour>
    <contour>
      <point x="114" y="513" type="line"/>
      <point x="38" y="513" type="line"/>
      <point x="38" y="454" type="line" smooth="yes"/>
      <point x="38" y="437"/>
      <point x="46" y="427"/>
      <point x="63" y="423" type="curve"/>
      <point x="65" y="423"/>
      <point x="67" y="422"/>
      <point x="70" y="422" type="curve" smooth="yes"/>
      <point x="73" y="422"/>
      <point x="78" y="420"/>
      <point x="85" y="419" type="curve" smooth="yes"/>
      <point x="92" y="418"/>
      <point x="102" y="416"/>
      <point x="114" y="414" type="curve"/>
      <point x="114" y="-17" type="line" smooth="yes"/>
      <point x="114" y="-30"/>
      <point x="113" y="-42"/>
      <point x="111" y="-51" type="curve" smooth="yes"/>
      <point x="109" y="-60"/>
      <point x="105" y="-68"/>
      <point x="100" y="-73" type="curve"/>
      <point x="95" y="-79"/>
      <point x="87" y="-83"/>
      <point x="79" y="-85" type="curve"/>
      <point x="71" y="-88"/>
      <point x="60" y="-88"/>
      <point x="48" y="-88" type="curve" smooth="yes"/>
      <point x="36" y="-88"/>
      <point x="27" y="-89"/>
      <point x="23" y="-91" type="curve" smooth="yes"/>
      <point x="19" y="-93"/>
      <point x="16" y="-97"/>
      <point x="15" y="-104" type="curve"/>
      <point x="11" y="-170" type="line"/>
      <point x="21" y="-173"/>
      <point x="32" y="-177"/>
      <point x="42" y="-178" type="curve" smooth="yes"/>
      <point x="52" y="-179"/>
      <point x="62" y="-180"/>
      <point x="74" y="-180" type="curve" smooth="yes"/>
      <point x="104" y="-180"/>
      <point x="129" y="-175"/>
      <point x="150" y="-167" type="curve" smooth="yes"/>
      <point x="171" y="-159"/>
      <point x="188" y="-147"/>
      <point x="201" y="-132" type="curve" smooth="yes"/>
      <point x="214" y="-117"/>
      <point x="223" y="-100"/>
      <point x="229" y="-80" type="curve" smooth="yes"/>
      <point x="235" y="-60"/>
      <point x="237" y="-39"/>
      <point x="237" y="-17" type="curve" smooth="yes"/>
      <point x="237" y="513" type="line"/>
    </contour>
  </outline>
</glyph>
<glyph name="k" format="1">
  <advance width="606"/>
  <unicode hex="006B"/>
  <note>
    k
  </note>
  <outline>
    <contour>
      <point x="561" y="90"/>
      <point x="557" y="91"/>
      <point x="553" y="92" type="curve" smooth="yes"/>
      <point x="549" y="93"/>
      <point x="542" y="93"/>
      <point x="532" y="94" type="curve" smooth="yes"/>
      <point x="522" y="95"/>
      <point x="511" y="97"/>
      <point x="500" y="99" type="curve"/>
      <point x="397" y="249" type="line"/>
      <point x="392" y="257"/>
      <point x="386" y="264"/>
      <point x="381" y="271" type="curve" smooth="yes"/>
      <point x="376" y="278"/>
      <point x="370" y="283"/>
      <point x="363" y="288" type="curve"/>
      <point x="370" y="292"/>
      <point x="376" y="297"/>
      <point x="382" y="303" type="curve" smooth="yes"/>
      <point x="388" y="309"/>
      <point x="394" y="316"/>
      <point x="400" y="323" type="curve" smooth="yes"/>
      <point x="476" y="415" type="line"/>
      <point x="486" y="416"/>
      <point x="494" y="418"/>
      <point x="503" y="419" type="curve" smooth="yes"/>
      <point x="512" y="420"/>
      <point x="519" y="421"/>
      <point x="523" y="422" type="curve" smooth="yes"/>
      <point x="527" y="423"/>
      <point x="529" y="423"/>
      <point x="531" y="423" type="curve"/>
      <point x="548" y="427"/>
      <point x="556" y="437"/>
      <point x="556" y="454" type="curve" smooth="yes"/>
      <point x="556" y="513" type="line"/>
      <point x="556" y="513" type="line"/>
      <point x="446" y="513" type="line" smooth="yes"/>
      <point x="443" y="513"/>
      <point x="440" y="513"/>
      <point x="436" y="512" type="curve"/>
      <point x="436" y="513" type="line"/>
      <point x="313" y="513" type="line"/>
      <point x="313" y="454" type="line" smooth="yes"/>
      <point x="313" y="437"/>
      <point x="321" y="427"/>
      <point x="338" y="423" type="curve"/>
      <point x="339" y="423"/>
      <point x="342" y="422"/>
      <point x="347" y="421" type="curve"/>
      <point x="276" y="334" type="line" smooth="yes"/>
      <point x="271" y="328"/>
      <point x="266" y="323"/>
      <point x="261" y="321" type="curve" smooth="yes"/>
      <point x="256" y="319"/>
      <point x="249" y="318"/>
      <point x="241" y="318" type="curve" smooth="yes"/>
      <point x="218" y="318" type="line"/>
      <point x="218" y="743" type="line"/>
      <point x="95" y="743" type="line"/>
      <point x="19" y="743" type="line"/>
      <point x="19" y="684" type="line" smooth="yes"/>
      <point x="19" y="667"/>
      <point x="27" y="657"/>
      <point x="44" y="653" type="curve"/>
      <point x="45" y="653"/>
      <point x="47" y="652"/>
      <point x="50" y="652" type="curve" smooth="yes"/>
      <point x="53" y="652"/>
      <point x="58" y="650"/>
      <point x="65" y="649" type="curve" smooth="yes"/>
      <point x="72" y="648"/>
      <point x="83" y="646"/>
      <point x="95" y="644" type="curve"/>
      <point x="95" y="99" type="line"/>
      <point x="83" y="97"/>
      <point x="72" y="95"/>
      <point x="65" y="94" type="curve" smooth="yes"/>
      <point x="58" y="93"/>
      <point x="53" y="91"/>
      <point x="50" y="91" type="curve" smooth="yes"/>
      <point x="47" y="91"/>
      <point x="45" y="90"/>
      <point x="44" y="90" type="curve"/>
      <point x="27" y="86"/>
      <point x="19" y="76"/>
      <point x="19" y="59" type="curve" smooth="yes"/>
      <point x="19" y="0" type="line"/>
      <point x="95" y="0" type="line"/>
      <point x="218" y="0" type="line"/>
      <point x="294" y="0" type="line"/>
      <point x="294" y="59" type="line" smooth="yes"/>
      <point x="294" y="76"/>
      <point x="286" y="86"/>
      <point x="269" y="90" type="curve"/>
      <point x="268" y="90"/>
      <point x="266" y="91"/>
      <point x="263" y="91" type="curve"/>
      <point x="260" y="92"/>
      <point x="255" y="93"/>
      <point x="248" y="94" type="curve" smooth="yes"/>
      <point x="241" y="95"/>
      <point x="230" y="97"/>
      <point x="218" y="99" type="curve"/>
      <point x="218" y="235" type="line"/>
      <point x="246" y="235" type="line" smooth="yes"/>
      <point x="256" y="235"/>
      <point x="264" y="234"/>
      <point x="269" y="232" type="curve" smooth="yes"/>
      <point x="274" y="230"/>
      <point x="279" y="225"/>
      <point x="284" y="217" type="curve" smooth="yes"/>
      <point x="414" y="22" type="line" smooth="yes"/>
      <point x="419" y="14"/>
      <point x="425" y="8"/>
      <point x="432" y="5" type="curve" smooth="yes"/>
      <point x="439" y="2"/>
      <point x="447" y="0"/>
      <point x="457" y="0" type="curve" smooth="yes"/>
      <point x="512" y="0" type="line"/>
      <point x="568" y="0" type="line"/>
      <point x="588" y="0" type="line"/>
      <point x="588" y="59" type="line" smooth="yes"/>
      <point x="588" y="76"/>
      <point x="580" y="86"/>
      <point x="563" y="90" type="curve"/>
    </contour>
    <contour>
      <point x="303" y="513" type="move" name="top"/>
    </contour>
    <contour>
      <point x="303" y="0" type="move" name="bottom"/>
    </contour>
  </outline>
</glyph>
<glyph name="l" format="1">
  <advance width="311"/>
  <unicode hex="006C"/>
  <note>
    l
  </note>
  <outline>
    <contour>
      <point x="268" y="90"/>
      <point x="266" y="90"/>
      <point x="263" y="91" type="curve" smooth="yes"/>
      <point x="260" y="92"/>
      <point x="255" y="93"/>
      <point x="248" y="94" type="curve" smooth="yes"/>
      <point x="241" y="95"/>
      <point x="230" y="97"/>
      <point x="218" y="99" type="curve"/>
      <point x="218" y="743" type="line"/>
      <point x="95" y="743" type="line"/>
      <point x="19" y="743" type="line"/>
      <point x="19" y="684" type="line" smooth="yes"/>
      <point x="19" y="667"/>
      <point x="27" y="657"/>
      <point x="44" y="653" type="curve"/>
      <point x="45" y="653"/>
      <point x="47" y="652"/>
      <point x="50" y="652" type="curve" smooth="yes"/>
      <point x="53" y="652"/>
      <point x="58" y="650"/>
      <point x="65" y="649" type="curve" smooth="yes"/>
      <point x="72" y="648"/>
      <point x="83" y="646"/>
      <point x="95" y="644" type="curve"/>
      <point x="95" y="99" type="line"/>
      <point x="83" y="97"/>
      <point x="72" y="95"/>
      <point x="65" y="94" type="curve" smooth="yes"/>
      <point x="58" y="93"/>
      <point x="53" y="92"/>
      <point x="50" y="91" type="curve" smooth="yes"/>
      <point x="47" y="90"/>
      <point x="45" y="90"/>
      <point x="44" y="90" type="curve"/>
      <point x="27" y="86"/>
      <point x="19" y="76"/>
      <point x="19" y="59" type="curve" smooth="yes"/>
      <point x="19" y="0" type="line"/>
      <point x="95" y="0" type="line"/>
      <point x="218" y="0" type="line"/>
      <point x="294" y="0" type="line"/>
      <point x="294" y="59" type="line" smooth="yes"/>
      <point x="294" y="76"/>
      <point x="286" y="86"/>
      <point x="269" y="90" type="curve"/>
    </contour>
    <contour>
      <point x="156" y="0" type="move" name="bottom"/>
    </contour>
    <contour>
      <point x="156" y="513" type="move" name="top"/>
    </contour>
    <contour>
      <point x="291" y="513" type="move" name="topright"/>
    </contour>
    <contour>
      <point x="156" y="257" type="move" name="center"/>
    </contour>
  </outline>
</glyph>
<glyph name="n" format="1">
  <advance width="636"/>
  <unicode hex="006E"/>
  <note>
    n
  </note>
  <outline>
    <contour>
      <point x="592" y="90"/>
      <point x="590" y="91"/>
      <point x="587" y="91" type="curve" smooth="yes"/>
      <point x="584" y="91"/>
      <point x="579" y="93"/>
      <point x="572" y="94" type="curve" smooth="yes"/>
      <point x="565" y="95"/>
      <point x="554" y="97"/>
      <point x="542" y="99" type="curve"/>
      <point x="542" y="326" type="line" smooth="yes"/>
      <point x="542" y="355"/>
      <point x="539" y="381"/>
      <point x="531" y="405" type="curve" smooth="yes"/>
      <point x="523" y="429"/>
      <point x="512" y="450"/>
      <point x="498" y="467" type="curve" smooth="yes"/>
      <point x="483" y="484"/>
      <point x="466" y="498"/>
      <point x="444" y="507" type="curve"/>
      <point x="422" y="517"/>
      <point x="397" y="521"/>
      <point x="369" y="521" type="curve" smooth="yes"/>
      <point x="352" y="521"/>
      <point x="336" y="519"/>
      <point x="321" y="516" type="curve" smooth="yes"/>
      <point x="306" y="513"/>
      <point x="293" y="507"/>
      <point x="280" y="501" type="curve" smooth="yes"/>
      <point x="267" y="495"/>
      <point x="254" y="488"/>
      <point x="243" y="479" type="curve"/>
      <point x="231" y="470"/>
      <point x="221" y="461"/>
      <point x="211" y="450" type="curve"/>
      <point x="202" y="490" type="line"/>
      <point x="197" y="505"/>
      <point x="187" y="513"/>
      <point x="171" y="513" type="curve" smooth="yes"/>
      <point x="95" y="513" type="line"/>
      <point x="20" y="513" type="line"/>
      <point x="20" y="454" type="line" smooth="yes"/>
      <point x="20" y="437"/>
      <point x="28" y="427"/>
      <point x="45" y="423" type="curve"/>
      <point x="46" y="423"/>
      <point x="48" y="423"/>
      <point x="51" y="422" type="curve"/>
      <point x="54" y="422"/>
      <point x="59" y="420"/>
      <point x="66" y="419" type="curve" smooth="yes"/>
      <point x="73" y="418"/>
      <point x="83" y="416"/>
      <point x="95" y="414" type="curve"/>
      <point x="95" y="99" type="line"/>
      <point x="83" y="97"/>
      <point x="73" y="95"/>
      <point x="66" y="94" type="curve" smooth="yes"/>
      <point x="59" y="93"/>
      <point x="54" y="92"/>
      <point x="51" y="91" type="curve"/>
      <point x="48" y="91"/>
      <point x="46" y="90"/>
      <point x="45" y="90" type="curve"/>
      <point x="28" y="86"/>
      <point x="20" y="76"/>
      <point x="20" y="59" type="curve" smooth="yes"/>
      <point x="20" y="0" type="line"/>
      <point x="95" y="0" type="line"/>
      <point x="219" y="0" type="line"/>
      <point x="294" y="0" type="line"/>
      <point x="294" y="59" type="line" smooth="yes"/>
      <point x="294" y="76"/>
      <point x="286" y="86"/>
      <point x="269" y="90" type="curve"/>
      <point x="268" y="90"/>
      <point x="266" y="90"/>
      <point x="263" y="91" type="curve" smooth="yes"/>
      <point x="260" y="92"/>
      <point x="255" y="93"/>
      <point x="248" y="94" type="curve" smooth="yes"/>
      <point x="241" y="95"/>
      <point x="231" y="97"/>
      <point x="219" y="99" type="curve"/>
      <point x="219" y="371" type="line"/>
      <point x="236" y="388"/>
      <point x="253" y="400"/>
      <point x="272" y="410" type="curve" smooth="yes"/>
      <point x="291" y="420"/>
      <point x="311" y="425"/>
      <point x="332" y="425" type="curve" smooth="yes"/>
      <point x="361" y="425"/>
      <point x="383" y="416"/>
      <point x="397" y="399" type="curve" smooth="yes"/>
      <point x="411" y="382"/>
      <point x="419" y="357"/>
      <point x="419" y="326" type="curve" smooth="yes"/>
      <point x="419" y="0" type="line"/>
      <point x="542" y="0" type="line"/>
      <point x="618" y="0" type="line"/>
      <point x="618" y="59" type="line" smooth="yes"/>
      <point x="618" y="76"/>
      <point x="610" y="86"/>
      <point x="593" y="90" type="curve"/>
    </contour>
    <contour>
      <point x="318" y="513" type="move" name="top"/>
    </contour>
    <contour>
      <point x="318" y="0" type="move" name="bottom"/>
    </contour>
  </outline>
</glyph>
<glyph name="q" format="1">
  <advance width="578"/>
  <unicode hex="0071"/>
  <note>
    q
  </note>
  <outline>
    <contour>
      <point x="541" y="-78"/>
      <point x="537" y="-77"/>
      <point x="534" y="-77" type="curve" smooth="yes"/>
      <point x="531" y="-77"/>
      <point x="526" y="-75"/>
      <point x="518" y="-74" type="curve" smooth="yes"/>
      <point x="510" y="-73"/>
      <point x="499" y="-71"/>
      <point x="487" y="-69" type="curve"/>
      <point x="487" y="333" type="line"/>
      <point x="487" y="494" type="line"/>
      <point x="393" y="513"/>
      <point x="309" y="522"/>
      <point x="235" y="522" type="curve" smooth="yes"/>
      <point x="201" y="522"/>
      <point x="171" y="516"/>
      <point x="144" y="502" type="curve" smooth="yes"/>
      <point x="117" y="489"/>
      <point x="94" y="469"/>
      <point x="75" y="445" type="curve" smooth="yes"/>
      <point x="56" y="421"/>
      <point x="40" y="393"/>
      <point x="30" y="360" type="curve" smooth="yes"/>
      <point x="20" y="327"/>
      <point x="15" y="292"/>
      <point x="15" y="254" type="curve" smooth="yes"/>
      <point x="15" y="212"/>
      <point x="20" y="174"/>
      <point x="29" y="142" type="curve" smooth="yes"/>
      <point x="38" y="110"/>
      <point x="51" y="83"/>
      <point x="68" y="61" type="curve" smooth="yes"/>
      <point x="85" y="39"/>
      <point x="105" y="23"/>
      <point x="128" y="11" type="curve" smooth="yes"/>
      <point x="151" y="-1"/>
      <point x="176" y="-7"/>
      <point x="204" y="-7" type="curve" smooth="yes"/>
      <point x="238" y="-7"/>
      <point x="268" y="0"/>
      <point x="294" y="13" type="curve" smooth="yes"/>
      <point x="320" y="26"/>
      <point x="343" y="42"/>
      <point x="363" y="64" type="curve"/>
      <point x="363" y="-69" type="line"/>
      <point x="350" y="-71"/>
      <point x="341" y="-73"/>
      <point x="334" y="-74" type="curve" smooth="yes"/>
      <point x="327" y="-75"/>
      <point x="322" y="-76"/>
      <point x="319" y="-77" type="curve" smooth="yes"/>
      <point x="316" y="-78"/>
      <point x="314" y="-78"/>
      <point x="313" y="-78" type="curve"/>
      <point x="296" y="-82"/>
      <point x="288" y="-92"/>
      <point x="288" y="-109" type="curve" smooth="yes"/>
      <point x="288" y="-168" type="line"/>
      <point x="364" y="-168" type="line"/>
      <point x="487" y="-168" type="line"/>
      <point x="567" y="-168" type="line"/>
      <point x="567" y="-109" type="line" smooth="yes"/>
      <point x="567" y="-92"/>
      <point x="559" y="-82"/>
      <point x="542" y="-78" type="curve"/>
    </contour>
    <contour>
      <point x="295" y="95"/>
      <point x="273" y="89"/>
      <point x="247" y="89" type="curve" smooth="yes"/>
      <point x="231" y="89"/>
      <point x="216" y="92"/>
      <point x="203" y="98" type="curve" smooth="yes"/>
      <point x="190" y="104"/>
      <point x="179" y="114"/>
      <point x="170" y="127" type="curve" smooth="yes"/>
      <point x="161" y="140"/>
      <point x="155" y="157"/>
      <point x="150" y="178" type="curve" smooth="yes"/>
      <point x="145" y="199"/>
      <point x="142" y="224"/>
      <point x="142" y="254" type="curve" smooth="yes"/>
      <point x="142" y="284"/>
      <point x="145" y="309"/>
      <point x="151" y="331" type="curve" smooth="yes"/>
      <point x="157" y="353"/>
      <point x="164" y="371"/>
      <point x="175" y="385" type="curve"/>
      <point x="185" y="399"/>
      <point x="198" y="410"/>
      <point x="213" y="417" type="curve" smooth="yes"/>
      <point x="228" y="424"/>
      <point x="245" y="428"/>
      <point x="264" y="428" type="curve" smooth="yes"/>
      <point x="297" y="428"/>
      <point x="330" y="424"/>
      <point x="363" y="418" type="curve"/>
      <point x="363" y="151" type="line"/>
      <point x="347" y="131"/>
      <point x="331" y="117"/>
      <point x="313" y="106" type="curve" smooth="yes"/>
    </contour>
    <contour>
      <point x="289" y="513" type="move" name="top"/>
    </contour>
    <contour>
      <point x="289" y="0" type="move" name="bottom"/>
    </contour>
  </outline>
</glyph>
<glyph name="r" format="1">
  <advance width="436"/>
  <unicode hex="0072"/>
  <note>
    r
  </note>
  <outline>
    <contour>
      <point x="328" y="522"/>
      <point x="301" y="513"/>
      <point x="276" y="495" type="curve" smooth="yes"/>
      <point x="251" y="477"/>
      <point x="230" y="452"/>
      <point x="212" y="420" type="curve"/>
      <point x="204" y="482" type="line"/>
      <point x="202" y="493"/>
      <point x="199" y="501"/>
      <point x="194" y="506" type="curve" smooth="yes"/>
      <point x="189" y="511"/>
      <point x="181" y="513"/>
      <point x="168" y="513" type="curve" smooth="yes"/>
      <point x="95" y="513" type="line"/>
      <point x="95" y="513" type="line"/>
      <point x="20" y="513" type="line"/>
      <point x="20" y="454" type="line" smooth="yes"/>
      <point x="20" y="437"/>
      <point x="28" y="427"/>
      <point x="45" y="423" type="curve"/>
      <point x="53" y="422"/>
      <point x="52" y="422"/>
      <point x="95" y="414" type="curve"/>
      <point x="95" y="99" type="line"/>
      <point x="52" y="91"/>
      <point x="53" y="91"/>
      <point x="45" y="90" type="curve"/>
      <point x="28" y="86"/>
      <point x="20" y="76"/>
      <point x="20" y="59" type="curve" smooth="yes"/>
      <point x="20" y="0" type="line"/>
      <point x="95" y="0" type="line"/>
      <point x="219" y="0" type="line"/>
      <point x="219" y="0" type="line"/>
      <point x="294" y="0" type="line"/>
      <point x="294" y="59" type="line" smooth="yes"/>
      <point x="294" y="76"/>
      <point x="286" y="86"/>
      <point x="269" y="90" type="curve"/>
      <point x="261" y="91"/>
      <point x="262" y="91"/>
      <point x="219" y="99" type="curve"/>
      <point x="219" y="319" type="line"/>
      <point x="232" y="346"/>
      <point x="247" y="368"/>
      <point x="265" y="382" type="curve" smooth="yes"/>
      <point x="283" y="396"/>
      <point x="305" y="403"/>
      <point x="331" y="403" type="curve" smooth="yes"/>
      <point x="345" y="403"/>
      <point x="357" y="401"/>
      <point x="366" y="399" type="curve" smooth="yes"/>
      <point x="375" y="397"/>
      <point x="381" y="396"/>
      <point x="386" y="396" type="curve" smooth="yes"/>
      <point x="392" y="396"/>
      <point x="397" y="398"/>
      <point x="400" y="400" type="curve" smooth="yes"/>
      <point x="403" y="402"/>
      <point x="405" y="406"/>
      <point x="406" y="412" type="curve" smooth="yes"/>
      <point x="422" y="505" type="line"/>
      <point x="405" y="517"/>
      <point x="384" y="522"/>
      <point x="359" y="522" type="curve" smooth="yes"/>
    </contour>
    <contour>
      <point x="218" y="513" type="move" name="top"/>
    </contour>
    <contour>
      <point x="218" y="0" type="move" name="bottom"/>
    </contour>
  </outline>
</glyph>
<glyph name="s" format="1">
  <advance width="402"/>
  <unicode hex="0073"/>
  <note>
    s
  </note>
  <outline>
    <contour>
      <point x="371" y="231"/>
      <point x="362" y="243"/>
      <point x="350" y="253" type="curve"/>
      <point x="338" y="264"/>
      <point x="325" y="272"/>
      <point x="310" y="279" type="curve" smooth="yes"/>
      <point x="295" y="286"/>
      <point x="279" y="293"/>
      <point x="263" y="298" type="curve" smooth="yes"/>
      <point x="247" y="303"/>
      <point x="232" y="308"/>
      <point x="217" y="312" type="curve" smooth="yes"/>
      <point x="202" y="316"/>
      <point x="189" y="322"/>
      <point x="177" y="328" type="curve" smooth="yes"/>
      <point x="165" y="334"/>
      <point x="156" y="339"/>
      <point x="149" y="347" type="curve" smooth="yes"/>
      <point x="142" y="355"/>
      <point x="138" y="364"/>
      <point x="138" y="375" type="curve" smooth="yes"/>
      <point x="138" y="392"/>
      <point x="145" y="406"/>
      <point x="159" y="416" type="curve" smooth="yes"/>
      <point x="173" y="426"/>
      <point x="192" y="431"/>
      <point x="216" y="431" type="curve" smooth="yes"/>
      <point x="239" y="431"/>
      <point x="263" y="428"/>
      <point x="276" y="424" type="curve"/>
      <point x="280" y="385"/>
      <point x="282" y="373"/>
      <point x="283" y="368" type="curve"/>
      <point x="286" y="356"/>
      <point x="293" y="349"/>
      <point x="306" y="349" type="curve" smooth="yes"/>
      <point x="347" y="349" type="line"/>
      <point x="359" y="349" type="line"/>
      <point x="363" y="349" type="line"/>
      <point x="363" y="494" type="line"/>
      <point x="364" y="494" type="line"/>
      <point x="292" y="516"/>
      <point x="264" y="521"/>
      <point x="214" y="521" type="curve" smooth="yes"/>
      <point x="182" y="521"/>
      <point x="155" y="516"/>
      <point x="131" y="508" type="curve" smooth="yes"/>
      <point x="107" y="500"/>
      <point x="86" y="488"/>
      <point x="70" y="474" type="curve" smooth="yes"/>
      <point x="54" y="460"/>
      <point x="41" y="443"/>
      <point x="33" y="424" type="curve" smooth="yes"/>
      <point x="25" y="405"/>
      <point x="21" y="385"/>
      <point x="21" y="364" type="curve" smooth="yes"/>
      <point x="21" y="341"/>
      <point x="25" y="322"/>
      <point x="32" y="306" type="curve" smooth="yes"/>
      <point x="39" y="290"/>
      <point x="48" y="277"/>
      <point x="60" y="266" type="curve" smooth="yes"/>
      <point x="72" y="255"/>
      <point x="86" y="246"/>
      <point x="101" y="239" type="curve" smooth="yes"/>
      <point x="116" y="232"/>
      <point x="131" y="225"/>
      <point x="147" y="220" type="curve" smooth="yes"/>
      <point x="163" y="215"/>
      <point x="179" y="210"/>
      <point x="194" y="205" type="curve"/>
      <point x="209" y="201"/>
      <point x="222" y="196"/>
      <point x="234" y="190" type="curve" smooth="yes"/>
      <point x="246" y="184"/>
      <point x="256" y="178"/>
      <point x="263" y="170" type="curve" smooth="yes"/>
      <point x="270" y="162"/>
      <point x="273" y="153"/>
      <point x="273" y="141" type="curve" smooth="yes"/>
      <point x="273" y="133"/>
      <point x="272" y="125"/>
      <point x="269" y="117" type="curve" smooth="yes"/>
      <point x="266" y="109"/>
      <point x="261" y="104"/>
      <point x="254" y="98" type="curve" smooth="yes"/>
      <point x="247" y="92"/>
      <point x="239" y="88"/>
      <point x="228" y="84" type="curve"/>
      <point x="218" y="81"/>
      <point x="205" y="79"/>
      <point x="190" y="79" type="curve" smooth="yes"/>
      <point x="168" y="79"/>
      <point x="136" y="79"/>
      <point x="109" y="87" type="curve"/>
      <point x="105" y="127"/>
      <point x="103" y="141"/>
      <point x="102" y="146" type="curve"/>
      <point x="99" y="158"/>
      <point x="92" y="165"/>
      <point x="79" y="165" type="curve" smooth="yes"/>
      <point x="38" y="165" type="line"/>
      <point x="26" y="165" type="line"/>
      <point x="21" y="165" type="line"/>
      <point x="21" y="70" type="line"/>
      <point x="21" y="20" type="line"/>
      <point x="21" y="20" type="line"/>
      <point x="58" y="6"/>
      <point x="120" y="-8"/>
      <point x="184" y="-8" type="curve" smooth="yes"/>
      <point x="217" y="-8"/>
      <point x="247" y="-4"/>
      <point x="272" y="5" type="curve"/>
      <point x="298" y="13"/>
      <point x="319" y="25"/>
      <point x="336" y="40" type="curve" smooth="yes"/>
      <point x="353" y="55"/>
      <point x="366" y="73"/>
      <point x="375" y="94" type="curve" smooth="yes"/>
      <point x="384" y="115"/>
      <point x="389" y="138"/>
      <point x="389" y="163" type="curve" smooth="yes"/>
      <point x="389" y="184"/>
      <point x="385" y="201"/>
      <point x="378" y="216" type="curve" smooth="yes"/>
    </contour>
    <contour>
      <point x="201" y="513" type="move" name="top"/>
    </contour>
    <contour>
      <point x="201" y="0" type="move" name="bottom"/>
    </contour>
  </outline>
</glyph>
<glyph name="x" format="1">
  <advance width="561"/>
  <unicode hex="0078"/>
  <note>
    x
  </note>
  <outline>
    <contour>
      <point x="510" y="91"/>
      <point x="507" y="92"/>
      <point x="475" y="97" type="curve"/>
      <point x="362" y="270" type="line"/>
      <point x="464" y="416" type="line"/>
      <point x="497" y="421"/>
      <point x="500" y="422"/>
      <point x="507" y="423" type="curve"/>
      <point x="524" y="427"/>
      <point x="532" y="437"/>
      <point x="532" y="454" type="curve" smooth="yes"/>
      <point x="532" y="513" type="line"/>
      <point x="531" y="513" type="line"/>
      <point x="531" y="513" type="line"/>
      <point x="418" y="513" type="line"/>
      <point x="417" y="513" type="line"/>
      <point x="309" y="513" type="line"/>
      <point x="309" y="454" type="line" smooth="yes"/>
      <point x="309" y="437"/>
      <point x="317" y="427"/>
      <point x="334" y="423" type="curve"/>
      <point x="337" y="422"/>
      <point x="339" y="422"/>
      <point x="342" y="421" type="curve"/>
      <point x="303" y="359" type="line" smooth="yes"/>
      <point x="299" y="353"/>
      <point x="295" y="348"/>
      <point x="293" y="342" type="curve" smooth="yes"/>
      <point x="291" y="336"/>
      <point x="289" y="331"/>
      <point x="287" y="325" type="curve"/>
      <point x="226" y="423" type="line"/>
      <point x="226" y="423" type="line"/>
      <point x="243" y="427"/>
      <point x="251" y="437"/>
      <point x="251" y="454" type="curve" smooth="yes"/>
      <point x="251" y="513" type="line"/>
      <point x="148" y="513" type="line"/>
      <point x="148" y="513" type="line"/>
      <point x="29" y="513" type="line"/>
      <point x="29" y="513" type="line"/>
      <point x="29" y="513" type="line"/>
      <point x="29" y="454" type="line" smooth="yes"/>
      <point x="29" y="437"/>
      <point x="37" y="427"/>
      <point x="54" y="423" type="curve"/>
      <point x="61" y="422"/>
      <point x="64" y="421"/>
      <point x="95" y="416" type="curve"/>
      <point x="198" y="264" type="line"/>
      <point x="86" y="97" type="line"/>
      <point x="53" y="92"/>
      <point x="51" y="91"/>
      <point x="44" y="90" type="curve"/>
      <point x="27" y="86"/>
      <point x="18" y="76"/>
      <point x="18" y="59" type="curve" smooth="yes"/>
      <point x="18" y="0" type="line"/>
      <point x="22" y="0" type="line"/>
      <point x="67" y="0" type="line"/>
      <point x="94" y="0" type="line"/>
      <point x="133" y="0" type="line"/>
      <point x="241" y="0" type="line"/>
      <point x="241" y="59" type="line" smooth="yes"/>
      <point x="241" y="76"/>
      <point x="233" y="86"/>
      <point x="216" y="90" type="curve"/>
      <point x="214" y="90"/>
      <point x="212" y="91"/>
      <point x="210" y="91" type="curve"/>
      <point x="262" y="171" type="line" smooth="yes"/>
      <point x="267" y="179"/>
      <point x="272" y="189"/>
      <point x="275" y="201" type="curve"/>
      <point x="343" y="90" type="line"/>
      <point x="327" y="86"/>
      <point x="319" y="76"/>
      <point x="319" y="59" type="curve" smooth="yes"/>
      <point x="319" y="0" type="line"/>
      <point x="419" y="0" type="line"/>
      <point x="466" y="0" type="line"/>
      <point x="494" y="0" type="line"/>
      <point x="538" y="0" type="line"/>
      <point x="542" y="0" type="line"/>
      <point x="542" y="59" type="line" smooth="yes"/>
      <point x="542" y="76"/>
      <point x="534" y="86"/>
      <point x="517" y="90" type="curve"/>
    </contour>
    <contour>
      <point x="281" y="513" type="move" name="top"/>
    </contour>
    <contour>
      <point x="281" y="0" type="move" name="bottom"/>
    </contour>
  </outline>
</glyph>
<glyph name="z" format="1">
  <advance width="449"/>
  <unicode hex="007A"/>
  <note>
    z
  </note>
  <outline>
    <contour>
      <point x="424" y="168" type="line"/>
      <point x="412" y="168" type="line"/>
      <point x="370" y="168" type="line" smooth="yes"/>
      <point x="357" y="168"/>
      <point x="350" y="161"/>
      <point x="347" y="149" type="curve"/>
      <point x="346" y="144"/>
      <point x="345" y="132"/>
      <point x="341" y="95" type="curve"/>
      <point x="162" y="95" type="line"/>
      <point x="405" y="416" type="line"/>
      <point x="409" y="422"/>
      <point x="414" y="429"/>
      <point x="417" y="437" type="curve" smooth="yes"/>
      <point x="420" y="445"/>
      <point x="421" y="453"/>
      <point x="421" y="462" type="curve" smooth="yes"/>
      <point x="421" y="513" type="line"/>
      <point x="32" y="513" type="line"/>
      <point x="32" y="507" type="line"/>
      <point x="32" y="507" type="line"/>
      <point x="32" y="349" type="line"/>
      <point x="37" y="349" type="line"/>
      <point x="49" y="349" type="line"/>
      <point x="90" y="349" type="line" smooth="yes"/>
      <point x="103" y="349"/>
      <point x="110" y="356"/>
      <point x="113" y="368" type="curve" smooth="yes"/>
      <point x="114" y="372"/>
      <point x="116" y="384"/>
      <point x="119" y="418" type="curve"/>
      <point x="280" y="418" type="line"/>
      <point x="34" y="94" type="line"/>
      <point x="28" y="87"/>
      <point x="25" y="80"/>
      <point x="22" y="72" type="curve" smooth="yes"/>
      <point x="19" y="64"/>
      <point x="18" y="58"/>
      <point x="18" y="52" type="curve" smooth="yes"/>
      <point x="18" y="0" type="line"/>
      <point x="412" y="0" type="line"/>
      <point x="414" y="0" type="line"/>
      <point x="428" y="0" type="line"/>
      <point x="428" y="168" type="line"/>
    </contour>
    <contour>
      <point x="225" y="513" type="move" name="top"/>
    </contour>
    <contour>
      <point x="225" y="0" type="move" name="bottom"/>
    </contour>
  </outline>
</glyph>
<glyph name="braceleft" format="1">
  <advance width="280"/>
  <unicode hex="007B"/>
  <note>
    braceleft
  </note>
  <outline>
    <contour>
      <point x="76" y="189"/>
      <point x="74" y="174"/>
      <point x="72" y="158" type="curve" smooth="yes"/>
      <point x="70" y="142"/>
      <point x="68" y="127"/>
      <point x="65" y="111" type="curve" smooth="yes"/>
      <point x="62" y="95"/>
      <point x="59" y="80"/>
      <point x="57" y="64" type="curve" smooth="yes"/>
      <point x="55" y="48"/>
      <point x="54" y="32"/>
      <point x="54" y="16" type="curve" smooth="yes"/>
      <point x="54" y="-9"/>
      <point x="58" y="-33"/>
      <point x="65" y="-54" type="curve" smooth="yes"/>
      <point x="72" y="-75"/>
      <point x="84" y="-92"/>
      <point x="99" y="-107" type="curve" smooth="yes"/>
      <point x="114" y="-122"/>
      <point x="133" y="-134"/>
      <point x="156" y="-142" type="curve" smooth="yes"/>
      <point x="179" y="-150"/>
      <point x="207" y="-154"/>
      <point x="238" y="-154" type="curve" smooth="yes"/>
      <point x="264" y="-154" type="line"/>
      <point x="264" y="-100" type="line" smooth="yes"/>
      <point x="264" y="-96"/>
      <point x="264" y="-91"/>
      <point x="262" y="-88" type="curve" smooth="yes"/>
      <point x="260" y="-85"/>
      <point x="258" y="-82"/>
      <point x="255" y="-80" type="curve" smooth="yes"/>
      <point x="252" y="-78"/>
      <point x="249" y="-77"/>
      <point x="246" y="-76" type="curve" smooth="yes"/>
      <point x="243" y="-75"/>
      <point x="240" y="-74"/>
      <point x="238" y="-74" type="curve" smooth="yes"/>
      <point x="234" y="-74" type="line" smooth="yes"/>
      <point x="211" y="-74"/>
      <point x="192" y="-67"/>
      <point x="180" y="-52" type="curve" smooth="yes"/>
      <point x="168" y="-37"/>
      <point x="162" y="-17"/>
      <point x="162" y="8" type="curve" smooth="yes"/>
      <point x="162" y="26"/>
      <point x="162" y="44"/>
      <point x="164" y="61" type="curve" smooth="yes"/>
      <point x="166" y="78"/>
      <point x="169" y="94"/>
      <point x="171" y="110" type="curve" smooth="yes"/>
      <point x="173" y="126"/>
      <point x="175" y="142"/>
      <point x="177" y="157" type="curve" smooth="yes"/>
      <point x="179" y="172"/>
      <point x="180" y="187"/>
      <point x="180" y="203" type="curve" smooth="yes"/>
      <point x="180" y="215"/>
      <point x="179" y="228"/>
      <point x="175" y="239" type="curve" smooth="yes"/>
      <point x="171" y="250"/>
      <point x="166" y="261"/>
      <point x="159" y="270" type="curve" smooth="yes"/>
      <point x="152" y="279"/>
      <point x="145" y="287"/>
      <point x="135" y="294" type="curve" smooth="yes"/>
      <point x="125" y="301"/>
      <point x="114" y="306"/>
      <point x="102" y="310" type="curve"/>
      <point x="114" y="313"/>
      <point x="125" y="318"/>
      <point x="135" y="325" type="curve" smooth="yes"/>
      <point x="145" y="332"/>
      <point x="152" y="340"/>
      <point x="159" y="349" type="curve" smooth="yes"/>
      <point x="166" y="358"/>
      <point x="171" y="369"/>
      <point x="175" y="380" type="curve" smooth="yes"/>
      <point x="179" y="391"/>
      <point x="180" y="403"/>
      <point x="180" y="416" type="curve" smooth="yes"/>
      <point x="180" y="432"/>
      <point x="179" y="448"/>
      <point x="177" y="463" type="curve" smooth="yes"/>
      <point x="175" y="478"/>
      <point x="173" y="493"/>
      <point x="171" y="509" type="curve" smooth="yes"/>
      <point x="169" y="525"/>
      <point x="166" y="541"/>
      <point x="164" y="558" type="curve" smooth="yes"/>
      <point x="162" y="575"/>
      <point x="161" y="593"/>
      <point x="161" y="611" type="curve" smooth="yes"/>
      <point x="161" y="637"/>
      <point x="168" y="657"/>
      <point x="180" y="672" type="curve" smooth="yes"/>
      <point x="192" y="687"/>
      <point x="210" y="694"/>
      <point x="233" y="694" type="curve" smooth="yes"/>
      <point x="238" y="694" type="line" smooth="yes"/>
      <point x="240" y="694"/>
      <point x="243" y="694"/>
      <point x="246" y="695" type="curve" smooth="yes"/>
      <point x="249" y="696"/>
      <point x="252" y="698"/>
      <point x="255" y="700" type="curve" smooth="yes"/>
      <point x="258" y="702"/>
      <point x="260" y="704"/>
      <point x="262" y="707" type="curve" smooth="yes"/>
      <point x="264" y="710"/>
      <point x="264" y="714"/>
      <point x="264" y="718" type="curve" smooth="yes"/>
      <point x="264" y="774" type="line"/>
      <point x="238" y="774" type="line" smooth="yes"/>
      <point x="207" y="774"/>
      <point x="179" y="769"/>
      <point x="156" y="761" type="curve" smooth="yes"/>
      <point x="133" y="753"/>
      <point x="114" y="741"/>
      <point x="99" y="726" type="curve" smooth="yes"/>
      <point x="84" y="711"/>
      <point x="72" y="694"/>
      <point x="65" y="673" type="curve" smooth="yes"/>
      <point x="58" y="652"/>
      <point x="54" y="629"/>
      <point x="54" y="604" type="curve" smooth="yes"/>
      <point x="54" y="588"/>
      <point x="55" y="571"/>
      <point x="57" y="555" type="curve" smooth="yes"/>
      <point x="59" y="539"/>
      <point x="62" y="524"/>
      <point x="65" y="508" type="curve" smooth="yes"/>
      <point x="68" y="492"/>
      <point x="70" y="477"/>
      <point x="72" y="461" type="curve" smooth="yes"/>
      <point x="74" y="445"/>
      <point x="76" y="431"/>
      <point x="76" y="415" type="curve" smooth="yes"/>
      <point x="76" y="395"/>
      <point x="71" y="378"/>
      <point x="61" y="365" type="curve" smooth="yes"/>
      <point x="51" y="352"/>
      <point x="37" y="346"/>
      <point x="16" y="346" type="curve"/>
      <point x="16" y="274" type="line"/>
      <point x="37" y="274"/>
      <point x="51" y="268"/>
      <point x="61" y="255" type="curve" smooth="yes"/>
      <point x="71" y="242"/>
      <point x="76" y="225"/>
      <point x="76" y="205" type="curve" smooth="yes"/>
    </contour>
  </outline>
</glyph>
<glyph name="braceright" format="1">
  <advance width="280"/>
  <unicode hex="007D"/>
  <note>
    braceright
  </note>
  <outline>
    <contour>
      <point x="205" y="225"/>
      <point x="209" y="242"/>
      <point x="219" y="255" type="curve" smooth="yes"/>
      <point x="229" y="268"/>
      <point x="244" y="274"/>
      <point x="265" y="274" type="curve"/>
      <point x="265" y="346" type="line"/>
      <point x="244" y="346"/>
      <point x="229" y="352"/>
      <point x="219" y="365" type="curve" smooth="yes"/>
      <point x="209" y="378"/>
      <point x="205" y="394"/>
      <point x="205" y="414" type="curve" smooth="yes"/>
      <point x="205" y="430"/>
      <point x="206" y="445"/>
      <point x="208" y="461" type="curve" smooth="yes"/>
      <point x="210" y="476"/>
      <point x="212" y="492"/>
      <point x="215" y="508" type="curve" smooth="yes"/>
      <point x="218" y="524"/>
      <point x="221" y="539"/>
      <point x="223" y="555" type="curve" smooth="yes"/>
      <point x="225" y="571"/>
      <point x="226" y="588"/>
      <point x="226" y="604" type="curve" smooth="yes"/>
      <point x="226" y="629"/>
      <point x="222" y="652"/>
      <point x="215" y="673" type="curve" smooth="yes"/>
      <point x="208" y="694"/>
      <point x="196" y="711"/>
      <point x="181" y="726" type="curve" smooth="yes"/>
      <point x="166" y="741"/>
      <point x="147" y="753"/>
      <point x="124" y="761" type="curve" smooth="yes"/>
      <point x="101" y="769"/>
      <point x="73" y="774"/>
      <point x="42" y="774" type="curve" smooth="yes"/>
      <point x="16" y="774" type="line"/>
      <point x="16" y="718" type="line" smooth="yes"/>
      <point x="16" y="714"/>
      <point x="16" y="710"/>
      <point x="18" y="707" type="curve" smooth="yes"/>
      <point x="20" y="704"/>
      <point x="22" y="702"/>
      <point x="25" y="700" type="curve" smooth="yes"/>
      <point x="28" y="698"/>
      <point x="31" y="696"/>
      <point x="34" y="695" type="curve" smooth="yes"/>
      <point x="37" y="694"/>
      <point x="40" y="694"/>
      <point x="42" y="694" type="curve" smooth="yes"/>
      <point x="47" y="694" type="line" smooth="yes"/>
      <point x="70" y="694"/>
      <point x="88" y="687"/>
      <point x="100" y="672" type="curve" smooth="yes"/>
      <point x="112" y="657"/>
      <point x="119" y="637"/>
      <point x="119" y="611" type="curve" smooth="yes"/>
      <point x="119" y="593"/>
      <point x="118" y="575"/>
      <point x="116" y="558" type="curve" smooth="yes"/>
      <point x="114" y="541"/>
      <point x="111" y="525"/>
      <point x="109" y="509" type="curve" smooth="yes"/>
      <point x="107" y="493"/>
      <point x="105" y="477"/>
      <point x="103" y="462" type="curve" smooth="yes"/>
      <point x="101" y="447"/>
      <point x="100" y="432"/>
      <point x="100" y="416" type="curve" smooth="yes"/>
      <point x="100" y="403"/>
      <point x="101" y="391"/>
      <point x="105" y="380" type="curve" smooth="yes"/>
      <point x="109" y="369"/>
      <point x="114" y="358"/>
      <point x="121" y="349" type="curve" smooth="yes"/>
      <point x="128" y="340"/>
      <point x="135" y="332"/>
      <point x="145" y="325" type="curve" smooth="yes"/>
      <point x="155" y="318"/>
      <point x="166" y="313"/>
      <point x="178" y="310" type="curve"/>
      <point x="166" y="306"/>
      <point x="155" y="301"/>
      <point x="145" y="294" type="curve" smooth="yes"/>
      <point x="135" y="287"/>
      <point x="128" y="279"/>
      <point x="121" y="270" type="curve" smooth="yes"/>
      <point x="114" y="261"/>
      <point x="109" y="249"/>
      <point x="105" y="238" type="curve" smooth="yes"/>
      <point x="101" y="227"/>
      <point x="100" y="215"/>
      <point x="100" y="203" type="curve" smooth="yes"/>
      <point x="100" y="187"/>
      <point x="101" y="171"/>
      <point x="103" y="156" type="curve" smooth="yes"/>
      <point x="105" y="141"/>
      <point x="107" y="126"/>
      <point x="109" y="110" type="curve" smooth="yes"/>
      <point x="111" y="94"/>
      <point x="114" y="78"/>
      <point x="116" y="61" type="curve" smooth="yes"/>
      <point x="118" y="44"/>
      <point x="119" y="26"/>
      <point x="119" y="8" type="curve" smooth="yes"/>
      <point x="119" y="-17"/>
      <point x="112" y="-37"/>
      <point x="100" y="-52" type="curve" smooth="yes"/>
      <point x="88" y="-67"/>
      <point x="69" y="-74"/>
      <point x="46" y="-74" type="curve" smooth="yes"/>
      <point x="42" y="-74" type="line" smooth="yes"/>
      <point x="40" y="-74"/>
      <point x="37" y="-75"/>
      <point x="34" y="-76" type="curve" smooth="yes"/>
      <point x="31" y="-77"/>
      <point x="28" y="-78"/>
      <point x="25" y="-80" type="curve" smooth="yes"/>
      <point x="22" y="-82"/>
      <point x="20" y="-85"/>
      <point x="18" y="-88" type="curve" smooth="yes"/>
      <point x="16" y="-91"/>
      <point x="16" y="-96"/>
      <point x="16" y="-100" type="curve" smooth="yes"/>
      <point x="16" y="-154" type="line"/>
      <point x="42" y="-154" type="line" smooth="yes"/>
      <point x="73" y="-154"/>
      <point x="101" y="-150"/>
      <point x="124" y="-142" type="curve" smooth="yes"/>
      <point x="147" y="-134"/>
      <point x="166" y="-122"/>
      <point x="181" y="-107" type="curve" smooth="yes"/>
      <point x="196" y="-92"/>
      <point x="208" y="-75"/>
      <point x="215" y="-54" type="curve" smooth="yes"/>
      <point x="222" y="-33"/>
      <point x="226" y="-10"/>
      <point x="226" y="15" type="curve" smooth="yes"/>
      <point x="226" y="31"/>
      <point x="225" y="48"/>
      <point x="223" y="64" type="curve" smooth="yes"/>
      <point x="221" y="80"/>
      <point x="218" y="95"/>
      <point x="215" y="111" type="curve" smooth="yes"/>
      <point x="212" y="127"/>
      <point x="210" y="142"/>
      <point x="208" y="158" type="curve" smooth="yes"/>
      <point x="206" y="174"/>
      <point x="205" y="189"/>
      <point x="205" y="205" type="curve" smooth="yes"/>
    </contour>
  </outline>
</glyph>
<glyph name="asciitilde" format="1">
  <advance width="532"/>
  <unicode hex="007E"/>
  <note>
    asciitilde
  </note>
  <outline>
    <contour>
      <point x="337" y="324"/>
      <point x="327" y="326"/>
      <point x="314" y="331" type="curve" smooth="yes"/>
      <point x="301" y="336"/>
      <point x="287" y="340"/>
      <point x="273" y="346" type="curve"/>
      <point x="259" y="351"/>
      <point x="243" y="357"/>
      <point x="227" y="362" type="curve" smooth="yes"/>
      <point x="211" y="367"/>
      <point x="194" y="369"/>
      <point x="176" y="369" type="curve" smooth="yes"/>
      <point x="152" y="369"/>
      <point x="131" y="365"/>
      <point x="112" y="357" type="curve" smooth="yes"/>
      <point x="93" y="349"/>
      <point x="78" y="337"/>
      <point x="65" y="322" type="curve" smooth="yes"/>
      <point x="52" y="307"/>
      <point x="42" y="290"/>
      <point x="35" y="269" type="curve" smooth="yes"/>
      <point x="28" y="248"/>
      <point x="25" y="225"/>
      <point x="25" y="199" type="curve"/>
      <point x="124" y="199" type="line"/>
      <point x="124" y="221"/>
      <point x="130" y="238"/>
      <point x="140" y="250" type="curve" smooth="yes"/>
      <point x="150" y="262"/>
      <point x="165" y="268"/>
      <point x="184" y="268" type="curve" smooth="yes"/>
      <point x="195" y="268"/>
      <point x="205" y="266"/>
      <point x="218" y="261" type="curve" smooth="yes"/>
      <point x="231" y="256"/>
      <point x="245" y="251"/>
      <point x="259" y="245" type="curve" smooth="yes"/>
      <point x="273" y="239"/>
      <point x="289" y="235"/>
      <point x="305" y="230" type="curve" smooth="yes"/>
      <point x="321" y="225"/>
      <point x="338" y="223"/>
      <point x="356" y="223" type="curve" smooth="yes"/>
      <point x="380" y="223"/>
      <point x="401" y="227"/>
      <point x="420" y="235" type="curve" smooth="yes"/>
      <point x="439" y="243"/>
      <point x="454" y="254"/>
      <point x="467" y="269" type="curve" smooth="yes"/>
      <point x="480" y="284"/>
      <point x="490" y="302"/>
      <point x="497" y="323" type="curve" smooth="yes"/>
      <point x="504" y="344"/>
      <point x="507" y="367"/>
      <point x="507" y="393" type="curve"/>
      <point x="408" y="393" type="line"/>
      <point x="408" y="371"/>
      <point x="402" y="354"/>
      <point x="392" y="342" type="curve" smooth="yes"/>
      <point x="382" y="330"/>
      <point x="367" y="324"/>
      <point x="348" y="324" type="curve" smooth="yes"/>
    </contour>
  </outline>
</glyph>
<glyph name="section" format="1">
  <advance width="452"/>
  <unicode hex="00A7"/>
  <note>
    section
  </note>
  <outline>
    <contour>
      <point x="412" y="667" type="line"/>
      <point x="393" y="686"/>
      <point x="368" y="701"/>
      <point x="339" y="713" type="curve" smooth="yes"/>
      <point x="310" y="725"/>
      <point x="277" y="730"/>
      <point x="242" y="730" type="curve" smooth="yes"/>
      <point x="210" y="730"/>
      <point x="183" y="726"/>
      <point x="159" y="718" type="curve" smooth="yes"/>
      <point x="135" y="710"/>
      <point x="114" y="698"/>
      <point x="98" y="684" type="curve" smooth="yes"/>
      <point x="82" y="670"/>
      <point x="70" y="653"/>
      <point x="62" y="634" type="curve" smooth="yes"/>
      <point x="54" y="615"/>
      <point x="50" y="595"/>
      <point x="50" y="574" type="curve" smooth="yes"/>
      <point x="50" y="549"/>
      <point x="54" y="527"/>
      <point x="64" y="509" type="curve" smooth="yes"/>
      <point x="74" y="491"/>
      <point x="87" y="476"/>
      <point x="102" y="463" type="curve"/>
      <point x="74" y="451"/>
      <point x="52" y="434"/>
      <point x="38" y="413" type="curve" smooth="yes"/>
      <point x="24" y="392"/>
      <point x="18" y="368"/>
      <point x="18" y="342" type="curve" smooth="yes"/>
      <point x="18" y="320"/>
      <point x="22" y="302"/>
      <point x="30" y="286" type="curve" smooth="yes"/>
      <point x="38" y="270"/>
      <point x="49" y="256"/>
      <point x="62" y="244" type="curve" smooth="yes"/>
      <point x="75" y="232"/>
      <point x="90" y="222"/>
      <point x="107" y="214" type="curve" smooth="yes"/>
      <point x="124" y="206"/>
      <point x="140" y="197"/>
      <point x="158" y="190" type="curve" smooth="yes"/>
      <point x="176" y="183"/>
      <point x="193" y="177"/>
      <point x="210" y="171" type="curve" smooth="yes"/>
      <point x="227" y="165"/>
      <point x="242" y="158"/>
      <point x="255" y="150" type="curve" smooth="yes"/>
      <point x="268" y="142"/>
      <point x="279" y="134"/>
      <point x="287" y="124" type="curve" smooth="yes"/>
      <point x="295" y="114"/>
      <point x="299" y="103"/>
      <point x="299" y="90" type="curve" smooth="yes"/>
      <point x="299" y="70"/>
      <point x="291" y="54"/>
      <point x="276" y="43" type="curve" smooth="yes"/>
      <point x="261" y="32"/>
      <point x="239" y="26"/>
      <point x="212" y="26" type="curve" smooth="yes"/>
      <point x="192" y="26"/>
      <point x="177" y="28"/>
      <point x="164" y="32" type="curve" smooth="yes"/>
      <point x="151" y="36"/>
      <point x="139" y="41"/>
      <point x="130" y="46" type="curve" smooth="yes"/>
      <point x="121" y="51"/>
      <point x="113" y="56"/>
      <point x="106" y="60" type="curve" smooth="yes"/>
      <point x="99" y="64"/>
      <point x="92" y="67"/>
      <point x="84" y="67" type="curve" smooth="yes"/>
      <point x="76" y="67"/>
      <point x="70" y="65"/>
      <point x="65" y="62" type="curve" smooth="yes"/>
      <point x="60" y="59"/>
      <point x="56" y="55"/>
      <point x="52" y="49" type="curve"/>
      <point x="24" y="2" type="line"/>
      <point x="34" y="-7"/>
      <point x="45" y="-15"/>
      <point x="58" y="-23" type="curve" smooth="yes"/>
      <point x="71" y="-31"/>
      <point x="85" y="-37"/>
      <point x="101" y="-43" type="curve" smooth="yes"/>
      <point x="117" y="-49"/>
      <point x="133" y="-53"/>
      <point x="150" y="-56" type="curve" smooth="yes"/>
      <point x="167" y="-59"/>
      <point x="184" y="-61"/>
      <point x="202" y="-61" type="curve" smooth="yes"/>
      <point x="235" y="-61"/>
      <point x="264" y="-56"/>
      <point x="290" y="-48" type="curve" smooth="yes"/>
      <point x="316" y="-40"/>
      <point x="337" y="-27"/>
      <point x="354" y="-12" type="curve" smooth="yes"/>
      <point x="371" y="3"/>
      <point x="384" y="21"/>
      <point x="393" y="42" type="curve" smooth="yes"/>
      <point x="402" y="63"/>
      <point x="406" y="85"/>
      <point x="406" y="110" type="curve" smooth="yes"/>
      <point x="406" y="133"/>
      <point x="402" y="152"/>
      <point x="392" y="168" type="curve" smooth="yes"/>
      <point x="382" y="184"/>
      <point x="371" y="199"/>
      <point x="356" y="211" type="curve"/>
      <point x="384" y="224"/>
      <point x="404" y="242"/>
      <point x="416" y="264" type="curve" smooth="yes"/>
      <point x="428" y="286"/>
      <point x="434" y="310"/>
      <point x="434" y="337" type="curve" smooth="yes"/>
      <point x="434" y="357"/>
      <point x="431" y="375"/>
      <point x="423" y="390" type="curve" smooth="yes"/>
      <point x="415" y="405"/>
      <point x="405" y="419"/>
      <point x="392" y="431" type="curve" smooth="yes"/>
      <point x="379" y="443"/>
      <point x="363" y="453"/>
      <point x="347" y="462" type="curve" smooth="yes"/>
      <point x="331" y="471"/>
      <point x="313" y="479"/>
      <point x="296" y="487" type="curve"/>
      <point x="279" y="494"/>
      <point x="263" y="501"/>
      <point x="246" y="508" type="curve" smooth="yes"/>
      <point x="230" y="515"/>
      <point x="215" y="522"/>
      <point x="202" y="529" type="curve" smooth="yes"/>
      <point x="189" y="536"/>
      <point x="178" y="544"/>
      <point x="170" y="552" type="curve" smooth="yes"/>
      <point x="162" y="560"/>
      <point x="158" y="569"/>
      <point x="158" y="580" type="curve" smooth="yes"/>
      <point x="158" y="588"/>
      <point x="160" y="596"/>
      <point x="164" y="603" type="curve" smooth="yes"/>
      <point x="168" y="610"/>
      <point x="174" y="616"/>
      <point x="181" y="622" type="curve" smooth="yes"/>
      <point x="188" y="628"/>
      <point x="197" y="632"/>
      <point x="208" y="635" type="curve" smooth="yes"/>
      <point x="219" y="638"/>
      <point x="230" y="640"/>
      <point x="244" y="640" type="curve" smooth="yes"/>
      <point x="260" y="640"/>
      <point x="273" y="638"/>
      <point x="285" y="635" type="curve" smooth="yes"/>
      <point x="297" y="632"/>
      <point x="307" y="628"/>
      <point x="316" y="624" type="curve" smooth="yes"/>
      <point x="325" y="620"/>
      <point x="333" y="615"/>
      <point x="340" y="612" type="curve" smooth="yes"/>
      <point x="347" y="609"/>
      <point x="354" y="608"/>
      <point x="360" y="608" type="curve" smooth="yes"/>
      <point x="366" y="608"/>
      <point x="370" y="609"/>
      <point x="374" y="611" type="curve" smooth="yes"/>
      <point x="378" y="613"/>
      <point x="381" y="617"/>
      <point x="384" y="622" type="curve" smooth="yes"/>
    </contour>
    <contour>
      <point x="127" y="375"/>
      <point x="130" y="386"/>
      <point x="137" y="396" type="curve" smooth="yes"/>
      <point x="144" y="406"/>
      <point x="155" y="414"/>
      <point x="170" y="422" type="curve"/>
      <point x="189" y="413"/>
      <point x="207" y="405"/>
      <point x="226" y="398" type="curve" smooth="yes"/>
      <point x="245" y="391"/>
      <point x="261" y="382"/>
      <point x="276" y="374" type="curve" smooth="yes"/>
      <point x="291" y="366"/>
      <point x="304" y="357"/>
      <point x="313" y="347" type="curve" smooth="yes"/>
      <point x="322" y="337"/>
      <point x="327" y="325"/>
      <point x="327" y="310" type="curve" smooth="yes"/>
      <point x="327" y="298"/>
      <point x="324" y="286"/>
      <point x="318" y="276" type="curve" smooth="yes"/>
      <point x="312" y="266"/>
      <point x="302" y="258"/>
      <point x="289" y="251" type="curve"/>
      <point x="270" y="260"/>
      <point x="251" y="267"/>
      <point x="232" y="275" type="curve"/>
      <point x="213" y="282"/>
      <point x="195" y="291"/>
      <point x="179" y="299" type="curve" smooth="yes"/>
      <point x="163" y="307"/>
      <point x="152" y="316"/>
      <point x="142" y="326" type="curve" smooth="yes"/>
      <point x="132" y="336"/>
      <point x="127" y="348"/>
      <point x="127" y="362" type="curve" smooth="yes"/>
    </contour>
  </outline>
</glyph>
<glyph name="dieresis" format="1">
  <advance width="373"/>
  <unicode hex="00A8"/>
  <note>
    dieresis
  </note>
  <outline>
    <contour>
      <point x="162" y="656"/>
      <point x="160" y="665"/>
      <point x="156" y="673" type="curve" smooth="yes"/>
      <point x="152" y="681"/>
      <point x="147" y="690"/>
      <point x="141" y="696" type="curve" smooth="yes"/>
      <point x="135" y="702"/>
      <point x="127" y="706"/>
      <point x="119" y="710" type="curve" smooth="yes"/>
      <point x="111" y="714"/>
      <point x="101" y="716"/>
      <point x="92" y="716" type="curve" smooth="yes"/>
      <point x="83" y="716"/>
      <point x="74" y="714"/>
      <point x="66" y="710" type="curve" smooth="yes"/>
      <point x="58" y="706"/>
      <point x="50" y="702"/>
      <point x="44" y="696" type="curve" smooth="yes"/>
      <point x="38" y="690"/>
      <point x="34" y="681"/>
      <point x="30" y="673" type="curve" smooth="yes"/>
      <point x="26" y="665"/>
      <point x="24" y="656"/>
      <point x="24" y="646" type="curve" smooth="yes"/>
      <point x="24" y="637"/>
      <point x="26" y="628"/>
      <point x="30" y="620" type="curve" smooth="yes"/>
      <point x="34" y="612"/>
      <point x="38" y="604"/>
      <point x="44" y="598" type="curve" smooth="yes"/>
      <point x="50" y="592"/>
      <point x="58" y="588"/>
      <point x="66" y="584" type="curve" smooth="yes"/>
      <point x="74" y="580"/>
      <point x="83" y="579"/>
      <point x="92" y="579" type="curve" smooth="yes"/>
      <point x="101" y="579"/>
      <point x="111" y="580"/>
      <point x="119" y="584" type="curve" smooth="yes"/>
      <point x="127" y="588"/>
      <point x="135" y="592"/>
      <point x="141" y="598" type="curve" smooth="yes"/>
      <point x="147" y="604"/>
      <point x="152" y="612"/>
      <point x="156" y="620" type="curve" smooth="yes"/>
      <point x="160" y="628"/>
      <point x="162" y="637"/>
      <point x="162" y="646" type="curve" smooth="yes"/>
    </contour>
    <contour>
      <point x="349" y="656"/>
      <point x="348" y="665"/>
      <point x="344" y="673" type="curve" smooth="yes"/>
      <point x="340" y="681"/>
      <point x="334" y="690"/>
      <point x="328" y="696" type="curve" smooth="yes"/>
      <point x="322" y="702"/>
      <point x="315" y="706"/>
      <point x="306" y="710" type="curve"/>
      <point x="298" y="714"/>
      <point x="289" y="716"/>
      <point x="280" y="716" type="curve" smooth="yes"/>
      <point x="271" y="716"/>
      <point x="261" y="714"/>
      <point x="253" y="710" type="curve" smooth="yes"/>
      <point x="245" y="706"/>
      <point x="237" y="702"/>
      <point x="231" y="696" type="curve" smooth="yes"/>
      <point x="225" y="690"/>
      <point x="220" y="681"/>
      <point x="216" y="673" type="curve" smooth="yes"/>
      <point x="212" y="665"/>
      <point x="211" y="656"/>
      <point x="211" y="646" type="curve" smooth="yes"/>
      <point x="211" y="637"/>
      <point x="212" y="628"/>
      <point x="216" y="620" type="curve" smooth="yes"/>
      <point x="220" y="612"/>
      <point x="225" y="604"/>
      <point x="231" y="598" type="curve" smooth="yes"/>
      <point x="237" y="592"/>
      <point x="245" y="588"/>
      <point x="253" y="584" type="curve" smooth="yes"/>
      <point x="261" y="580"/>
      <point x="271" y="579"/>
      <point x="280" y="579" type="curve" smooth="yes"/>
      <point x="289" y="579"/>
      <point x="298" y="580"/>
      <point x="306" y="584" type="curve" smooth="yes"/>
      <point x="314" y="588"/>
      <point x="322" y="592"/>
      <point x="328" y="598" type="curve" smooth="yes"/>
      <point x="334" y="604"/>
      <point x="340" y="612"/>
      <point x="344" y="620" type="curve" smooth="yes"/>
      <point x="348" y="628"/>
      <point x="349" y="637"/>
      <point x="349" y="646" type="curve" smooth="yes"/>
    </contour>
  </outline>
</glyph>
<glyph name="copyright" format="1">
  <advance width="775"/>
  <unicode hex="00A9"/>
  <note>
    copyright
  </note>
  <outline>
    <contour>
      <point x="493" y="254"/>
      <point x="487" y="252"/>
      <point x="481" y="248" type="curve" smooth="yes"/>
      <point x="475" y="244"/>
      <point x="468" y="240"/>
      <point x="461" y="236" type="curve" smooth="yes"/>
      <point x="454" y="232"/>
      <point x="446" y="230"/>
      <point x="435" y="227" type="curve" smooth="yes"/>
      <point x="425" y="224"/>
      <point x="410" y="223"/>
      <point x="394" y="223" type="curve" smooth="yes"/>
      <point x="377" y="223"/>
      <point x="362" y="226"/>
      <point x="348" y="232" type="curve" smooth="yes"/>
      <point x="334" y="238"/>
      <point x="321" y="247"/>
      <point x="311" y="259" type="curve" smooth="yes"/>
      <point x="301" y="271"/>
      <point x="293" y="286"/>
      <point x="287" y="303" type="curve" smooth="yes"/>
      <point x="281" y="320"/>
      <point x="278" y="340"/>
      <point x="278" y="363" type="curve" smooth="yes"/>
      <point x="278" y="385"/>
      <point x="281" y="405"/>
      <point x="287" y="422" type="curve" smooth="yes"/>
      <point x="293" y="439"/>
      <point x="301" y="454"/>
      <point x="312" y="466" type="curve" smooth="yes"/>
      <point x="323" y="478"/>
      <point x="336" y="487"/>
      <point x="352" y="494" type="curve"/>
      <point x="368" y="500"/>
      <point x="385" y="504"/>
      <point x="405" y="504" type="curve" smooth="yes"/>
      <point x="422" y="504"/>
      <point x="435" y="502"/>
      <point x="446" y="499" type="curve" smooth="yes"/>
      <point x="457" y="496"/>
      <point x="466" y="492"/>
      <point x="473" y="488" type="curve" smooth="yes"/>
      <point x="480" y="484"/>
      <point x="486" y="480"/>
      <point x="491" y="477" type="curve" smooth="yes"/>
      <point x="496" y="474"/>
      <point x="501" y="472"/>
      <point x="507" y="472" type="curve" smooth="yes"/>
      <point x="513" y="472"/>
      <point x="517" y="473"/>
      <point x="520" y="476" type="curve" smooth="yes"/>
      <point x="523" y="479"/>
      <point x="526" y="481"/>
      <point x="528" y="484" type="curve"/>
      <point x="561" y="528" type="line"/>
      <point x="543" y="548"/>
      <point x="520" y="564"/>
      <point x="494" y="576" type="curve" smooth="yes"/>
      <point x="468" y="588"/>
      <point x="435" y="594"/>
      <point x="398" y="594" type="curve" smooth="yes"/>
      <point x="365" y="594"/>
      <point x="336" y="589"/>
      <point x="308" y="578" type="curve" smooth="yes"/>
      <point x="280" y="567"/>
      <point x="256" y="550"/>
      <point x="235" y="530" type="curve" smooth="yes"/>
      <point x="214" y="510"/>
      <point x="198" y="485"/>
      <point x="186" y="457" type="curve" smooth="yes"/>
      <point x="174" y="429"/>
      <point x="169" y="397"/>
      <point x="169" y="363" type="curve" smooth="yes"/>
      <point x="169" y="330"/>
      <point x="174" y="299"/>
      <point x="184" y="271" type="curve" smooth="yes"/>
      <point x="194" y="243"/>
      <point x="210" y="219"/>
      <point x="229" y="198" type="curve" smooth="yes"/>
      <point x="248" y="177"/>
      <point x="271" y="161"/>
      <point x="298" y="149" type="curve" smooth="yes"/>
      <point x="325" y="137"/>
      <point x="355" y="131"/>
      <point x="388" y="131" type="curve" smooth="yes"/>
      <point x="426" y="131"/>
      <point x="460" y="138"/>
      <point x="488" y="150" type="curve" smooth="yes"/>
      <point x="516" y="162"/>
      <point x="540" y="180"/>
      <point x="559" y="204" type="curve"/>
      <point x="518" y="248" type="line"/>
      <point x="516" y="251"/>
      <point x="513" y="252"/>
      <point x="510" y="254" type="curve" smooth="yes"/>
      <point x="507" y="256"/>
      <point x="504" y="256"/>
      <point x="500" y="256" type="curve"/>
    </contour>
    <contour>
      <point x="18" y="328"/>
      <point x="23" y="295"/>
      <point x="32" y="264" type="curve" smooth="yes"/>
      <point x="41" y="233"/>
      <point x="53" y="203"/>
      <point x="69" y="176" type="curve" smooth="yes"/>
      <point x="85" y="149"/>
      <point x="105" y="123"/>
      <point x="127" y="101" type="curve" smooth="yes"/>
      <point x="149" y="79"/>
      <point x="175" y="60"/>
      <point x="202" y="44" type="curve" smooth="yes"/>
      <point x="229" y="28"/>
      <point x="259" y="15"/>
      <point x="290" y="6" type="curve" smooth="yes"/>
      <point x="321" y="-3"/>
      <point x="354" y="-7"/>
      <point x="388" y="-7" type="curve" smooth="yes"/>
      <point x="422" y="-7"/>
      <point x="454" y="-3"/>
      <point x="486" y="6" type="curve" smooth="yes"/>
      <point x="518" y="15"/>
      <point x="547" y="28"/>
      <point x="574" y="44" type="curve" smooth="yes"/>
      <point x="601" y="60"/>
      <point x="627" y="79"/>
      <point x="649" y="101" type="curve" smooth="yes"/>
      <point x="671" y="123"/>
      <point x="690" y="149"/>
      <point x="706" y="176" type="curve" smooth="yes"/>
      <point x="722" y="203"/>
      <point x="735" y="232"/>
      <point x="744" y="264" type="curve" smooth="yes"/>
      <point x="753" y="296"/>
      <point x="757" y="328"/>
      <point x="757" y="362" type="curve" smooth="yes"/>
      <point x="757" y="396"/>
      <point x="753" y="428"/>
      <point x="744" y="460" type="curve" smooth="yes"/>
      <point x="735" y="492"/>
      <point x="722" y="521"/>
      <point x="706" y="548" type="curve" smooth="yes"/>
      <point x="690" y="575"/>
      <point x="671" y="600"/>
      <point x="649" y="623" type="curve" smooth="yes"/>
      <point x="627" y="645"/>
      <point x="601" y="665"/>
      <point x="574" y="681" type="curve" smooth="yes"/>
      <point x="547" y="697"/>
      <point x="518" y="709"/>
      <point x="486" y="718" type="curve" smooth="yes"/>
      <point x="454" y="727"/>
      <point x="422" y="731"/>
      <point x="388" y="731" type="curve" smooth="yes"/>
      <point x="354" y="731"/>
      <point x="321" y="727"/>
      <point x="290" y="718" type="curve" smooth="yes"/>
      <point x="259" y="709"/>
      <point x="229" y="696"/>
      <point x="202" y="680" type="curve" smooth="yes"/>
      <point x="175" y="664"/>
      <point x="149" y="645"/>
      <point x="127" y="623" type="curve" smooth="yes"/>
      <point x="105" y="601"/>
      <point x="85" y="575"/>
      <point x="69" y="548" type="curve" smooth="yes"/>
      <point x="53" y="521"/>
      <point x="41" y="492"/>
      <point x="32" y="460" type="curve" smooth="yes"/>
      <point x="23" y="428"/>
      <point x="18" y="396"/>
      <point x="18" y="362" type="curve" smooth="yes"/>
    </contour>
    <contour>
      <point x="86" y="391"/>
      <point x="89" y="418"/>
      <point x="96" y="445" type="curve" smooth="yes"/>
      <point x="103" y="472"/>
      <point x="113" y="497"/>
      <point x="126" y="520" type="curve" smooth="yes"/>
      <point x="139" y="543"/>
      <point x="155" y="564"/>
      <point x="173" y="583" type="curve" smooth="yes"/>
      <point x="191" y="602"/>
      <point x="212" y="617"/>
      <point x="234" y="631" type="curve" smooth="yes"/>
      <point x="256" y="645"/>
      <point x="280" y="655"/>
      <point x="306" y="662" type="curve" smooth="yes"/>
      <point x="332" y="669"/>
      <point x="360" y="674"/>
      <point x="388" y="674" type="curve" smooth="yes"/>
      <point x="416" y="674"/>
      <point x="443" y="669"/>
      <point x="469" y="662" type="curve" smooth="yes"/>
      <point x="495" y="655"/>
      <point x="520" y="645"/>
      <point x="542" y="631" type="curve" smooth="yes"/>
      <point x="564" y="617"/>
      <point x="585" y="602"/>
      <point x="603" y="583" type="curve" smooth="yes"/>
      <point x="621" y="564"/>
      <point x="637" y="543"/>
      <point x="650" y="520" type="curve" smooth="yes"/>
      <point x="663" y="497"/>
      <point x="673" y="472"/>
      <point x="680" y="445" type="curve" smooth="yes"/>
      <point x="687" y="418"/>
      <point x="691" y="391"/>
      <point x="691" y="362" type="curve" smooth="yes"/>
      <point x="691" y="319"/>
      <point x="684" y="278"/>
      <point x="668" y="240" type="curve" smooth="yes"/>
      <point x="652" y="202"/>
      <point x="630" y="170"/>
      <point x="603" y="142" type="curve" smooth="yes"/>
      <point x="576" y="114"/>
      <point x="543" y="92"/>
      <point x="506" y="76" type="curve" smooth="yes"/>
      <point x="469" y="60"/>
      <point x="430" y="52"/>
      <point x="388" y="52" type="curve" smooth="yes"/>
      <point x="346" y="52"/>
      <point x="306" y="60"/>
      <point x="269" y="76" type="curve" smooth="yes"/>
      <point x="232" y="92"/>
      <point x="200" y="114"/>
      <point x="173" y="142" type="curve" smooth="yes"/>
      <point x="146" y="170"/>
      <point x="125" y="202"/>
      <point x="109" y="240" type="curve" smooth="yes"/>
      <point x="93" y="278"/>
      <point x="86" y="319"/>
      <point x="86" y="362" type="curve" smooth="yes"/>
    </contour>
  </outline>
</glyph>
<glyph name="logicalnot" format="1">
  <advance width="498"/>
  <unicode hex="00AC"/>
  <note>
    logicalnot
  </note>
  <outline>
    <contour>
      <point x="26" y="382" type="line"/>
      <point x="26" y="290" type="line"/>
      <point x="365" y="290" type="line"/>
      <point x="365" y="148" type="line"/>
      <point x="470" y="148" type="line"/>
      <point x="470" y="382" type="line"/>
    </contour>
  </outline>
</glyph>
<glyph name="twosuperior" format="1">
  <advance width="312"/>
  <unicode hex="00B2"/>
  <note>
    twosuperior
  </note>
  <outline>
    <contour>
      <point x="288" y="555" type="line"/>
      <point x="281" y="555" type="line"/>
      <point x="257" y="555" type="line" smooth="yes"/>
      <point x="249" y="555"/>
      <point x="245" y="551"/>
      <point x="243" y="544" type="curve"/>
      <point x="243" y="542"/>
      <point x="243" y="537"/>
      <point x="242" y="530" type="curve"/>
      <point x="197" y="530" type="line" smooth="yes"/>
      <point x="189" y="530"/>
      <point x="181" y="530"/>
      <point x="172" y="528" type="curve" smooth="yes"/>
      <point x="163" y="526"/>
      <point x="153" y="524"/>
      <point x="144" y="521" type="curve"/>
      <point x="208" y="586" type="line" smooth="yes"/>
      <point x="218" y="596"/>
      <point x="228" y="606"/>
      <point x="237" y="616" type="curve" smooth="yes"/>
      <point x="246" y="626"/>
      <point x="253" y="636"/>
      <point x="260" y="646" type="curve" smooth="yes"/>
      <point x="267" y="656"/>
      <point x="273" y="667"/>
      <point x="277" y="678" type="curve" smooth="yes"/>
      <point x="281" y="689"/>
      <point x="283" y="702"/>
      <point x="283" y="716" type="curve" smooth="yes"/>
      <point x="283" y="731"/>
      <point x="280" y="746"/>
      <point x="275" y="759" type="curve" smooth="yes"/>
      <point x="270" y="772"/>
      <point x="261" y="783"/>
      <point x="251" y="793" type="curve"/>
      <point x="240" y="803"/>
      <point x="228" y="810"/>
      <point x="213" y="816" type="curve" smooth="yes"/>
      <point x="198" y="822"/>
      <point x="180" y="824"/>
      <point x="161" y="824" type="curve" smooth="yes"/>
      <point x="124" y="824"/>
      <point x="93" y="815"/>
      <point x="68" y="797" type="curve" smooth="yes"/>
      <point x="43" y="779"/>
      <point x="28" y="750"/>
      <point x="22" y="712" type="curve"/>
      <point x="72" y="704" type="line"/>
      <point x="78" y="704" type="line" smooth="yes"/>
      <point x="80" y="704"/>
      <point x="81" y="703"/>
      <point x="83" y="703" type="curve" smooth="yes"/>
      <point x="91" y="703"/>
      <point x="97" y="705"/>
      <point x="101" y="708" type="curve" smooth="yes"/>
      <point x="105" y="711"/>
      <point x="109" y="715"/>
      <point x="113" y="721" type="curve"/>
      <point x="117" y="731"/>
      <point x="123" y="739"/>
      <point x="130" y="745" type="curve" smooth="yes"/>
      <point x="137" y="751"/>
      <point x="145" y="753"/>
      <point x="156" y="753" type="curve" smooth="yes"/>
      <point x="168" y="753"/>
      <point x="177" y="750"/>
      <point x="183" y="742" type="curve" smooth="yes"/>
      <point x="189" y="734"/>
      <point x="193" y="725"/>
      <point x="193" y="713" type="curve" smooth="yes"/>
      <point x="193" y="705"/>
      <point x="192" y="697"/>
      <point x="189" y="689" type="curve" smooth="yes"/>
      <point x="186" y="681"/>
      <point x="182" y="673"/>
      <point x="177" y="665" type="curve" smooth="yes"/>
      <point x="172" y="657"/>
      <point x="167" y="648"/>
      <point x="160" y="640" type="curve" smooth="yes"/>
      <point x="153" y="632"/>
      <point x="146" y="624"/>
      <point x="139" y="617" type="curve" smooth="yes"/>
      <point x="35" y="514" type="line" smooth="yes"/>
      <point x="30" y="509"/>
      <point x="26" y="502"/>
      <point x="24" y="496" type="curve" smooth="yes"/>
      <point x="22" y="490"/>
      <point x="20" y="484"/>
      <point x="20" y="478" type="curve" smooth="yes"/>
      <point x="20" y="450" type="line"/>
      <point x="291" y="450" type="line"/>
      <point x="291" y="456" type="line"/>
      <point x="291" y="502" type="line"/>
      <point x="291" y="555" type="line"/>
    </contour>
  </outline>
</glyph>
<glyph name="acute" format="1">
  <advance width="282"/>
  <unicode hex="00B4"/>
  <note>
    acute
  </note>
  <outline>
    <contour>
      <point x="260" y="731" type="line"/>
      <point x="140" y="731" type="line" smooth="yes"/>
      <point x="127" y="731"/>
      <point x="117" y="728"/>
      <point x="110" y="724" type="curve" smooth="yes"/>
      <point x="103" y="720"/>
      <point x="98" y="713"/>
      <point x="93" y="704" type="curve" smooth="yes"/>
      <point x="22" y="583" type="line"/>
      <point x="96" y="583" type="line" smooth="yes"/>
      <point x="105" y="583"/>
      <point x="113" y="585"/>
      <point x="119" y="587" type="curve" smooth="yes"/>
      <point x="125" y="589"/>
      <point x="131" y="593"/>
      <point x="137" y="600" type="curve"/>
    </contour>
  </outline>
</glyph>
<glyph name="mu" format="1">
  <advance width="503"/>
  <unicode hex="00B5"/>
  <note>
    mu
  </note>
  <outline>
    <contour>
      <point x="152" y="513" type="line"/>
      <point x="28" y="513" type="line"/>
      <point x="28" y="-116" type="line" smooth="yes"/>
      <point x="28" y="-133"/>
      <point x="33" y="-145"/>
      <point x="43" y="-154" type="curve" smooth="yes"/>
      <point x="53" y="-163"/>
      <point x="66" y="-168"/>
      <point x="83" y="-168" type="curve" smooth="yes"/>
      <point x="144" y="-168" type="line"/>
      <point x="144" y="-48" type="line" smooth="yes"/>
      <point x="144" y="-34"/>
      <point x="143" y="-20"/>
      <point x="142" y="-4" type="curve" smooth="yes"/>
      <point x="141" y="12"/>
      <point x="139" y="27"/>
      <point x="135" y="42" type="curve"/>
      <point x="147" y="31"/>
      <point x="161" y="22"/>
      <point x="177" y="16" type="curve" smooth="yes"/>
      <point x="193" y="10"/>
      <point x="211" y="7"/>
      <point x="231" y="7" type="curve" smooth="yes"/>
      <point x="244" y="7"/>
      <point x="256" y="8"/>
      <point x="267" y="10" type="curve" smooth="yes"/>
      <point x="278" y="12"/>
      <point x="289" y="16"/>
      <point x="299" y="20" type="curve" smooth="yes"/>
      <point x="309" y="24"/>
      <point x="319" y="31"/>
      <point x="329" y="38" type="curve" smooth="yes"/>
      <point x="339" y="45"/>
      <point x="350" y="54"/>
      <point x="360" y="64" type="curve"/>
      <point x="368" y="22" type="line"/>
      <point x="373" y="7"/>
      <point x="384" y="0"/>
      <point x="400" y="0" type="curve" smooth="yes"/>
      <point x="475" y="0" type="line"/>
      <point x="475" y="513" type="line"/>
      <point x="352" y="513" type="line"/>
      <point x="352" y="142" type="line"/>
      <point x="335" y="125"/>
      <point x="318" y="113"/>
      <point x="299" y="103" type="curve" smooth="yes"/>
      <point x="280" y="93"/>
      <point x="260" y="88"/>
      <point x="239" y="88" type="curve" smooth="yes"/>
      <point x="210" y="88"/>
      <point x="188" y="97"/>
      <point x="174" y="114" type="curve" smooth="yes"/>
      <point x="160" y="131"/>
      <point x="152" y="156"/>
      <point x="152" y="187" type="curve" smooth="yes"/>
    </contour>
  </outline>
</glyph>
<glyph name="cedilla" format="1">
  <advance width="247"/>
  <unicode hex="00B8"/>
  <note>
    cedilla
  </note>
  <outline>
    <contour>
      <point x="44" y="-114"/>
      <point x="39" y="-117"/>
      <point x="37" y="-125" type="curve" smooth="yes"/>
      <point x="26" y="-163" type="line"/>
      <point x="52" y="-172"/>
      <point x="70" y="-174"/>
      <point x="99" y="-174" type="curve" smooth="yes"/>
      <point x="157" y="-174"/>
      <point x="220" y="-154"/>
      <point x="220" y="-102" type="curve" smooth="yes"/>
      <point x="220" y="-85"/>
      <point x="214" y="-69"/>
      <point x="202" y="-57" type="curve" smooth="yes"/>
      <point x="190" y="-45"/>
      <point x="170" y="-35"/>
      <point x="140" y="-28" type="curve"/>
      <point x="150" y="7" type="line"/>
      <point x="73" y="7" type="line"/>
      <point x="50" y="-67" type="line"/>
      <point x="75" y="-70"/>
      <point x="94" y="-74"/>
      <point x="106" y="-78" type="curve" smooth="yes"/>
      <point x="118" y="-82"/>
      <point x="124" y="-89"/>
      <point x="124" y="-99" type="curve" smooth="yes"/>
      <point x="124" y="-114"/>
      <point x="109" y="-120"/>
      <point x="91" y="-120" type="curve" smooth="yes"/>
      <point x="74" y="-120"/>
      <point x="59" y="-114"/>
      <point x="51" y="-114" type="curve" smooth="yes"/>
    </contour>
  </outline>
</glyph>
<glyph name="onesuperior" format="1">
  <advance width="284"/>
  <unicode hex="00B9"/>
  <note>
    onesuperior
  </note>
  <outline>
    <contour>
      <point x="50" y="507" type="line"/>
      <point x="50" y="450" type="line"/>
      <point x="266" y="450" type="line"/>
      <point x="266" y="507" type="line"/>
      <point x="208" y="507" type="line"/>
      <point x="208" y="820" type="line"/>
      <point x="134" y="820" type="line"/>
      <point x="17" y="724" type="line"/>
      <point x="44" y="686" type="line" smooth="yes"/>
      <point x="46" y="683"/>
      <point x="49" y="681"/>
      <point x="53" y="679" type="curve" smooth="yes"/>
      <point x="57" y="677"/>
      <point x="61" y="676"/>
      <point x="66" y="676" type="curve" smooth="yes"/>
      <point x="72" y="676"/>
      <point x="79" y="678"/>
      <point x="84" y="682" type="curve" smooth="yes"/>
      <point x="122" y="712" type="line"/>
      <point x="120" y="687" type="line"/>
      <point x="120" y="507" type="line"/>
    </contour>
  </outline>
</glyph>
